<mxfile host="app.diagrams.net" agent="Mozilla/5.0 (Windows NT 10.0; Win64; x64) AppleWebKit/537.36 (KHTML, like Gecko) Chrome/125.0.0.0 Safari/537.36" version="24.7.16">
  <diagram name="Página-1" id="meYCgCRSEo67cjXvRKSK">
    <mxGraphModel dx="1969" dy="878" grid="1" gridSize="10" guides="1" tooltips="1" connect="1" arrows="1" fold="1" page="1" pageScale="1" pageWidth="827" pageHeight="1169" math="0" shadow="0">
      <root>
        <mxCell id="0" />
        <mxCell id="1" parent="0" />
        <mxCell id="uFv2Ksm_HB0WcEMQn49q-2" value="&amp;lt;" style="rounded=0;whiteSpace=wrap;html=1;glass=0;dashed=1;fillStyle=auto;strokeColor=#6666FF;strokeWidth=1;fillColor=none;gradientColor=default;" vertex="1" parent="1">
          <mxGeometry x="918" y="711.96" width="120" height="299.8" as="geometry" />
        </mxCell>
        <mxCell id="uFv2Ksm_HB0WcEMQn49q-3" value="" style="shape=ext;double=1;rounded=1;whiteSpace=wrap;html=1;" vertex="1" parent="1">
          <mxGeometry x="910" y="661.96" width="870" height="480" as="geometry" />
        </mxCell>
        <mxCell id="uFv2Ksm_HB0WcEMQn49q-4" value="" style="shape=ext;double=1;rounded=0;whiteSpace=wrap;html=1;strokeColor=#6666FF;strokeWidth=1;fillColor=none;fillStyle=auto;perimeterSpacing=0;dashed=1;" vertex="1" parent="1">
          <mxGeometry x="1050" y="711.96" width="720" height="397" as="geometry" />
        </mxCell>
        <mxCell id="uFv2Ksm_HB0WcEMQn49q-5" value="" style="rounded=0;whiteSpace=wrap;html=1;glass=0;dashed=1;fillStyle=auto;strokeColor=#6666FF;strokeWidth=1;fillColor=none;gradientColor=default;" vertex="1" parent="1">
          <mxGeometry x="1062" y="951.96" width="348" height="119" as="geometry" />
        </mxCell>
        <mxCell id="uFv2Ksm_HB0WcEMQn49q-6" value="" style="rounded=0;whiteSpace=wrap;html=1;" vertex="1" parent="1">
          <mxGeometry x="960" y="1275.96" width="761.88" height="456" as="geometry" />
        </mxCell>
        <mxCell id="uFv2Ksm_HB0WcEMQn49q-7" value="" style="rounded=0;whiteSpace=wrap;html=1;glass=0;dashed=1;fillStyle=auto;strokeColor=#6666FF;strokeWidth=1;fillColor=none;gradientColor=default;rotation=-90;" vertex="1" parent="1">
          <mxGeometry x="1259.49" y="1281.16" width="438.8" height="440.38" as="geometry" />
        </mxCell>
        <mxCell id="uFv2Ksm_HB0WcEMQn49q-8" value="" style="rounded=0;whiteSpace=wrap;html=1;glass=0;dashed=1;fillStyle=auto;strokeColor=#6666FF;strokeWidth=1;fillColor=none;gradientColor=default;rotation=-90;" vertex="1" parent="1">
          <mxGeometry x="1473.44" y="1365.22" width="255.38" height="159.25" as="geometry" />
        </mxCell>
        <mxCell id="uFv2Ksm_HB0WcEMQn49q-9" value="" style="rounded=0;whiteSpace=wrap;html=1;glass=0;dashed=1;fillStyle=auto;strokeColor=#6666FF;strokeWidth=1;fillColor=none;gradientColor=default;rotation=-90;" vertex="1" parent="1">
          <mxGeometry x="1541.9299999999998" y="1316.0500000000002" width="120.5" height="141.53" as="geometry" />
        </mxCell>
        <mxCell id="uFv2Ksm_HB0WcEMQn49q-10" value="" style="rounded=0;whiteSpace=wrap;html=1;glass=0;dashed=1;fillStyle=auto;strokeColor=#6666FF;strokeWidth=1;fillColor=none;gradientColor=default;rotation=-90;" vertex="1" parent="1">
          <mxGeometry x="1548.06" y="1442.88" width="108.41" height="133.36" as="geometry" />
        </mxCell>
        <mxCell id="uFv2Ksm_HB0WcEMQn49q-11" value="" style="rounded=0;whiteSpace=wrap;html=1;glass=0;dashed=1;fillStyle=auto;strokeColor=#6666FF;strokeWidth=1;fillColor=none;gradientColor=default;rotation=-90;" vertex="1" parent="1">
          <mxGeometry x="1171.31" y="1388.77" width="426.15" height="228.31" as="geometry" />
        </mxCell>
        <mxCell id="uFv2Ksm_HB0WcEMQn49q-12" value="" style="shape=cylinder3;whiteSpace=wrap;html=1;boundedLbl=1;backgroundOutline=1;size=3;rotation=0;fillColor=#FF8000;" vertex="1" parent="1">
          <mxGeometry x="999" y="1139.96" width="15.63" height="110" as="geometry" />
        </mxCell>
        <mxCell id="uFv2Ksm_HB0WcEMQn49q-13" value="" style="shape=cylinder3;whiteSpace=wrap;html=1;boundedLbl=1;backgroundOutline=1;size=4.560000000000059;rotation=-90;fillColor=#FF8000;" vertex="1" parent="1">
          <mxGeometry x="774.28" y="839.3100000000001" width="15.63" height="244" as="geometry" />
        </mxCell>
        <mxCell id="uFv2Ksm_HB0WcEMQn49q-14" value="" style="shape=ext;double=1;rounded=0;whiteSpace=wrap;html=1;" vertex="1" parent="1">
          <mxGeometry x="338.35" y="1206.96" width="181.38" height="181" as="geometry" />
        </mxCell>
        <mxCell id="uFv2Ksm_HB0WcEMQn49q-15" value="" style="rounded=0;whiteSpace=wrap;html=1;glass=0;dashed=1;fillStyle=auto;strokeColor=#6666FF;strokeWidth=1;fillColor=none;gradientColor=default;rotation=-90;" vertex="1" parent="1">
          <mxGeometry x="375.28" y="1222.96" width="107.53" height="133.36" as="geometry" />
        </mxCell>
        <mxCell id="uFv2Ksm_HB0WcEMQn49q-16" value="" style="shape=ext;double=1;rounded=1;whiteSpace=wrap;html=1;" vertex="1" parent="1">
          <mxGeometry x="190" y="940.96" width="452.41" height="201" as="geometry" />
        </mxCell>
        <mxCell id="uFv2Ksm_HB0WcEMQn49q-17" value="" style="rounded=0;whiteSpace=wrap;html=1;glass=0;dashed=1;fillStyle=auto;strokeColor=#6666FF;strokeWidth=1;fillColor=none;gradientColor=default;" vertex="1" parent="1">
          <mxGeometry x="352.41" y="972.96" width="267.59" height="159" as="geometry" />
        </mxCell>
        <mxCell id="uFv2Ksm_HB0WcEMQn49q-18" value="" style="rounded=0;whiteSpace=wrap;html=1;glass=0;dashed=1;fillStyle=auto;strokeColor=#6666FF;strokeWidth=1;fillColor=none;gradientColor=default;" vertex="1" parent="1">
          <mxGeometry x="1428.24" y="951.96" width="330" height="112" as="geometry" />
        </mxCell>
        <mxCell id="uFv2Ksm_HB0WcEMQn49q-19" value="" style="sketch=0;aspect=fixed;html=1;points=[];align=center;image;fontSize=12;image=img/lib/mscae/ResourceGroup.svg;dashed=1;strokeColor=#6666FF;strokeWidth=14;" vertex="1" parent="1">
          <mxGeometry x="1690" y="1076.96" width="50" height="40" as="geometry" />
        </mxCell>
        <mxCell id="uFv2Ksm_HB0WcEMQn49q-20" value="" style="rounded=0;whiteSpace=wrap;html=1;glass=0;dashed=1;fillStyle=auto;strokeColor=#FF0000;strokeWidth=1;fillColor=none;gradientColor=default;" vertex="1" parent="1">
          <mxGeometry x="1063.8899999999999" y="736.96" width="326.11" height="185" as="geometry" />
        </mxCell>
        <mxCell id="uFv2Ksm_HB0WcEMQn49q-21" value="Resource Group - Producción" style="text;html=1;strokeColor=none;fillColor=none;align=center;verticalAlign=middle;whiteSpace=wrap;rounded=0;dashed=1;" vertex="1" parent="1">
          <mxGeometry x="1512.18" y="1103.96" width="180" height="30" as="geometry" />
        </mxCell>
        <mxCell id="uFv2Ksm_HB0WcEMQn49q-22" value="" style="rounded=0;whiteSpace=wrap;html=1;glass=0;dashed=1;fillStyle=auto;strokeColor=#6666FF;strokeWidth=1;fillColor=none;gradientColor=default;" vertex="1" parent="1">
          <mxGeometry x="1428.24" y="736.1600000000001" width="330" height="185.8" as="geometry" />
        </mxCell>
        <mxCell id="uFv2Ksm_HB0WcEMQn49q-23" value="" style="verticalLabelPosition=bottom;sketch=0;aspect=fixed;html=1;verticalAlign=top;strokeColor=none;align=center;outlineConnect=0;shape=mxgraph.citrix.web_server;dashed=1;" vertex="1" parent="1">
          <mxGeometry x="1108.8600000000001" y="772.96" width="58.65" height="69" as="geometry" />
        </mxCell>
        <mxCell id="uFv2Ksm_HB0WcEMQn49q-24" value="" style="verticalLabelPosition=bottom;sketch=0;aspect=fixed;html=1;verticalAlign=top;strokeColor=none;align=center;outlineConnect=0;shape=mxgraph.citrix.database_server;dashed=1;" vertex="1" parent="1">
          <mxGeometry x="1485.8400000000001" y="774.96" width="62.22" height="70" as="geometry" />
        </mxCell>
        <mxCell id="uFv2Ksm_HB0WcEMQn49q-25" value="" style="verticalLabelPosition=bottom;sketch=0;aspect=fixed;html=1;verticalAlign=top;strokeColor=none;align=center;outlineConnect=0;shape=mxgraph.citrix.database_server;dashed=1;" vertex="1" parent="1">
          <mxGeometry x="1650.4299999999998" y="774.96" width="62.22" height="70" as="geometry" />
        </mxCell>
        <mxCell id="uFv2Ksm_HB0WcEMQn49q-26" value="" style="verticalLabelPosition=bottom;sketch=0;aspect=fixed;html=1;verticalAlign=top;strokeColor=none;align=center;outlineConnect=0;shape=mxgraph.citrix.web_server;dashed=1;" vertex="1" parent="1">
          <mxGeometry x="1651" y="987.46" width="58.65" height="69" as="geometry" />
        </mxCell>
        <mxCell id="uFv2Ksm_HB0WcEMQn49q-27" value="Portal Informativo&lt;br&gt;&amp;nbsp;Web&amp;nbsp;192.168.77.4" style="text;html=1;strokeColor=none;fillColor=none;align=center;verticalAlign=middle;whiteSpace=wrap;rounded=0;dashed=1;" vertex="1" parent="1">
          <mxGeometry x="1061" y="854.36" width="149" height="30" as="geometry" />
        </mxCell>
        <mxCell id="uFv2Ksm_HB0WcEMQn49q-28" value="BDD MySQL - Portal Informativo&lt;br&gt;172.16.77.4" style="text;html=1;strokeColor=none;fillColor=none;align=center;verticalAlign=middle;whiteSpace=wrap;rounded=0;dashed=1;" vertex="1" parent="1">
          <mxGeometry x="1453.95" y="844.96" width="128" height="68" as="geometry" />
        </mxCell>
        <mxCell id="uFv2Ksm_HB0WcEMQn49q-29" value="" style="shape=image;verticalLabelPosition=bottom;labelBackgroundColor=default;verticalAlign=top;aspect=fixed;imageAspect=0;image=data:image/png,iVBORw0KGgoAAAANSUhEUgAAAOEAAADhCAMAAAAJbSJIAAAAllBMVEX////kACviAADkACnkACXkACbjACDjABnjABzjABbjACLjABviAAbjABHiAArjAA7oUF7+9vj51Nj4zNH0r7brYnHzp6/scH398fPxnKXteYbqUmT/+vv1tr3uf4vlFTXoO1HmJEHvhpH86OvoQ1fwkpz3yM3wjJf64eLyoqr3w8nlDTLsaXf63N/97O/mKkPqW2voPVRnI+z/AAATz0lEQVR4nNVd54LyKBQdIQ1NGWMv0Vhib/P+L7chthQgQIh+e/7tfqPmhAu3X35+asfKD/rR+HQLF3PYwIDzRXg7jaP+wV/V//N1ou13l5OFAzxkWkZTg/BOMKYIodY0LBN5wFlMll2//e1HlYDfH8xtF1lN/UmLDAibFnLt+aDvf/uRBeCPJshGBptajqgRf+J39H9gOQx6lmtqIuxeLDXTtXrB8NsUWFjt10Bs7QhrCdb7f/T8aff/bFOrwO4JzQR//X/v7Nn0AFJB70ESgd7m25TSGEZHt6mM3h1N9xj9Kwt5PgGzyt6jAZpgcP42uRidX2DUQO8OA/x2vszvENrqdh8Jmh1+c0Nu6uaXcARf4+ivP8Av4Wivv2HsXHrgM/wSjuB0+TTByK7vfCHBsKOP8jtAVId+YAGixue2Y/sGPs0v4QhuHzIBuu5nBfQNw+t+gF97Yn9jAe+A9qT2ZQzQtxbwDsM81Etw8JUdmAYEgxr57ebml/lhmIvaPOTA1r/NLoFmB/UQHH9dQp+AYFYDv+kafZtYCmg9VU1wdRQ9QyHUm4ZltcwYLcuQCr/RYRwVb8aOyBaEmmV6AM3D23i2jUYxouVg3VAZyGk0dE+pvxHwbkGoWw5w17N9Z1UQo1V3DRQeVRAoPG9GXARxRBeFs2BH/yL/qlDdQLBXRXALOH7OcOzJqFO6/5WaDECRRzVzy+m5xvjAd7oFrsLdaCvRGgOv5GeanjEW2PUrlZLqjmsnCFtgImoLUyTVauEso65DETn2KlOcMQnqDowkAihd0plqzaLluDcJr8eWDVzPSdKqJdnHGG5FQd2y9qBmLyQP7N3Ryn8Z1F7/Op1ezp1Df7Q83RYIANdBLQbXagGcEeMUrRbHvOVfnUETt8v50I3Gk6tux1RJOeUqSiOgE9SrxqLzOtYtDd+3z5v+the6wENWxgaUV/0dqu6CzqKyq+0b6XQVNLg/eOl0Z2vNdkzjsZshkDTgVtSAjOGosCaGYeq8oQopDZfDqLcAbrKc0JEyw6dHihGpgxM9HBQMwmt4G4wCjt/0U+d0uZASn9Hvzn4113V1mQDVmuIutY70DRhonqHrsddkOkA/BSU/e36fNlCXeMInhn6wHYl/bEx2eJmBoEwUILZU3QnzDBi/VYZVh9POBuUYbbKCeQXzBzYdNKO6GumfkBPSKtiRTxkzZFS79EkvBVrglyzVfmrBBU5SVZgTTxmbFaoc0nSL5s4JwfhLOvf/eSEdkMx/CJjbeVwwxN6fdPSCelmknSj70xlQ4iaEgKnkpw7LSIbIyr6ezEkNG7XSKWJISg5Cm30YBA6DYMKxGb195EHmpP64kE4ImrDUMmII6fMrTPPJcZS1u11VQsppGHVt0gqWPcSaIzgBTWOED+PcqZtynCoCcOUX2y5BRtl7EKPcV71zdOd/jZwxoUxIfdvjsd5uBBkF/dKPccTjHiQL70LZSdpHRq/8rw6ER0UcKTtuhkXKyk7SsdEA5V4rIQ6kheVffpFnqO4kveocr2tbNLihzRFsWhGOJ04oE9IpNpNQSdjmQrBHXZ4DalcaNqZBnZCebY716BWPmeaa59s7ZXFjKqylEno/T6PDOLH+xifsJsAVITiUmDR0qLNJt3ejA7DKbglqm/McCGQzxPCohl6M2z20pTGEblM8LqDH1//QlWWoTkh/Hm1VLI0REpaQ8wFGsukWdULafm4xunY7EJYQcKYlopYcwZyQnp354rqe9MazZbTvBgd/t+LuoXmH7qiLSFjCJocVlGBZ6lqQkZORyIS6rmn3EgfkOJ4NYmiL39tgO+ofOuchPUvZf4kRbREJu7Dh8Ybux5LlbjkhvRKjJ1C/N/M5ngs8uFj3ZlH34K9yVvbg/QgUX/a3uISwyUkw/fUiyKn7VbntBzFdq4Uc13bN62086nbO93VdvN9Oc0J6xjPh2/lj7Te5npmckO7FzitcsWOiWJIbYW+7T79jok48EVbB4c6/8DjABOSEVPJbMFUr83IMgjc0JAmIy32QhVKVMrmTdEhyvuUAiq5wRBAQOOclSDkiypATUmnDqAizGPk8El4f24jNYC719nNC2lPXAFc0Bjck78fkT5E3pPpisxmnqaewmsjN6zniWYj408dNmYfLCam8f0JAPmLTJioijzsjNLVkGOaEVFKnUgCy1k+fuMddRhFe7g0xY/oU5PeK1FuiAmXjg2RFxOf8JgxlAlE5Ie1IB0KIyLqJFGsJ8BIka9My5IR0Jmm8U78+7RaRrSXocTPcSYTa8iEokr6qgoyYkoVUQOGfJSQsJ6Q+eFSyqSKaFlOKjLECHjn4EgxzQroLgtF2fAvnCLiOaUmpnyzA2+akBFnIPggRHaA1m4YRO65JdT5K4GB4GPYdGbOTGoKaDv3Dfnmbg6TsqQLRlDonREkxBIy2Tri+3Qbj8Wy2xdX53W43iHGI4WPs7lilbbvyCNDqsB9cTRtZkvXvKaVPUUTqU7NphpwhqOm5O7sCryXRrwGt55dkNhEe/xMLGg4YqCoUJzIUCuZPN9Ha8YTX8pVbfkUCoWsDc/57m0X7YHMeqm9mTDEUjpNON7M5MIVIvlyoZ4AGzs/FPhClSDGUipPuRlcRkq+j8ll6of2qZEPCm6F0MH83WgDeIT8Q3T/jP+2R5k0ZFQreDKsE8/2Bi/gW8iEoL7+CFL5RizfDasH86X7u8XB8GG4vt8zaKqHBwIth9YzT4crRTvdYs9fPCgQtpNB5lyKpyDhtrqWhubtl3X65Bai8pqQCghC8IyVqMk6HY9nwChtrvLe+d2pqIMboH9MbR1nufuSxIx+Jzn+b3fwRbkG0IyP7stWlRYfsGR0IV1m882L8gSchXGZeflKWynrSwGQsY/IqJ6/doaxEsI0xvON8AgXDXmHuHv/aL70OJLFq3kkpmzu0VsBsEeMYQ9di4PZt8+4YAtIgFNVOS0SVVH0R//M7DphEGKft4c7vbA7d/Uigh+Fk6bhxMA266KgTlic6DkU3QicTZtP/rnPYcoHteo6DTCcUYCgSzK2hMp86LgBcMq05yTK8/ksgTCOWIK2j6HkakmORnv9zoGa0RAxxIYb1VOavidUgKEhVMHyKYV2V+USKZv8nokaaRRrmRBjWVplP6kWzIkaZSF0MlZ+kLyyKge2YxIn6bIbAuyZUqtCgrjK/gGGroKOap58b9dlEpEmAYZ3tI51C8F67/YRU1VwTw1p7nEb5NDIMfxZ0hgIuPz/Dmnuc1rlNBxeMIop6GNbc45Tv2Yq9fLr9WA/D+k7SO/o5RwP+MN52HQz5awFlka9dYjBsCQSmuBkK990LI1+Nz2BIKJyigpvhB1qac41bH2ZYv5D+/Oyyi/hhhvUL6U/ehGScpXUw/EjffWYnQoY+rIFhjTZpGqnjNNaHdJumBoYfEdJM5UVs09Dt0hoYfmg4RKrRN7ZL6b6FeoYfGw7xPmti34LuH4qkovgYfkhI02Ia+4d0H1+91aZ2XCUD7yKv+KXS4zTqGRrjaH/o5Htd6sArkG9FjFhbDZa3gQt1gKNfe7N9cK7x3qNXJafZZ3QA1OM9Ne7TaS3TcYETnqLgXMeSvlihQybmnWNYTxQjTVU3YqLevBfxDM4Swcs2jbc+vZG+foYPnrDZcoD9u1RI81VZjwu5qTXoIgwnlXtBoGY54NjrK7od6GG44dxTuqkti7oiwiyaBnJRr69gLR/tN0n+kPr6v8AwYdlEYLGsat49cvdJDpja38rdIauWIYZuua1BpbqJR71lksen9pl/kWEDC6zXEhnem8NDXSS1GNQidJEMqVAOmJ+kvRhJastHD1USu2zTWiW+zjCGboKBVP3EY05HUhNF9fL16/cZ4oUEEwlhvRsyj44RWsvYv8EwRhP8CmvJO8NHbSK5by0JAHBjVu/tM01wEjTT7wwftYg+ZSOKZIlUd2UVYLBHGlIYPjN5lBJGkcBY+Ty6qoDOVURUk5PmWedNs2pgi79wn+5Hq4MmsoyJtniV5tMmr3CNd3swlBxtIgTo8te/JBr/FUuj6XxC1/5XGcZG2IL3wElW7Z2rpPQ92fw2vvQAHkFoBucz4aPv3fdE610TSNd+imFDR3wUsfeUMqwpsRqBmmHBoSRVKFpcgoo9YPQeNEfpIXX4J+fTrIYa0OQytXDjUKqHlNIHLFC7/0GGjRaHV4erZjOeA/kBBfovFE4lKQfHXQhYHZrp6cwXouEmkJopmyKsFNAqNUWw9srOSyCKqcWfmtl8kmGjVRoFnGgN7S/zf4ihDIFQ1EZ6MKQMICg7Tz2Y32NT0mkqEKgRGX0JUeWrdst6brCVlrfISEpf4+/Hp+cGCjDmQVCVYspaISIyizXcpBlDesjPkHumgont/UB+Yu0dHjvUGOoNt/AXhLkbAi4w9+QPdH+1pKHoImC3u8aqgdB4RLAsoa2cIXps7apzy9idU7F6J6ToSTN0ALcLzDmBx3nNoehWHLfDnMkZCynptCWE3ARmDHGtoZeSrXwxryBYXsEZkEd6EOYmutyRkTbPILLMRXekqdMCQIwB1WOLMku4GK7hdy6mHEMAcpcV7isZCQyLcupAyuyETkHSBOa1lY8eKcwRIQyE5QdD58dnpk1ZmsJPmvxXc5XO3CsOSllVubCTkaDWIFWRb/I7UaAhmV4A+CBIeFmF5ggRhtRCkRFq2FR7IL+IAmMkSmZfkq/WuMrLKXUfThF9CYuLKDDshD2/FJGf5ywvp9T4Q3yQ0nYhRs5N1PlzM8zpsVTzL5KWU0DJKsY6j5n3zOlEgfvemGlu/Y/2MVk5pT5Z/IXsO3+yeUDocEe9mXMr6RX6snJKOyFioSi5iOWStYj5zTb2PG961I5wYwgPCvNX7/ABLL1vJMr8In9MmD2TnXGPi9QAYoprMW3oDVRab5i5uZJ/FkhJaoa+N0hjxEtBOZtjr5PDp81oDP6IaUlYnzG+LxKXU0oQY+nwXEyVjdjwl3qXhIShTY+OUQvrqCDffINvAjN4MoxpR4i/fa1syjHjXQnLaZOofPBFVZBvxHoqTMS/hmXBNgjpn43E/CjynRvJ5cU2171r6fY2/n1YequBx/DEJkJVAMS0RULQ4A1/tp8jgSDz2p0syhiyLv6azgVMG+JN4wdMEDrcRTfJ3WtQM0Xu9CbfXJp+9Qxj6sI/1tIlpRq6iWkkcj/3GACgr0ecd8wkKB03zpz3urI4VxGQXNZlIkCm0MjAs3DbR1AWHmSfc9QROtnvIF5TeEtOKp1/rrMkjmWrwD6Yp7/l4bpWgyDpu7l1Jy8/5YoTKz0/syy/ACWdayPAXkYNDAgR6r5738J8F3RWxNJDzHUsqwu43BgcmyAkLOBw8nCG0Gfa4tr9NXAsamCxPJfl94BJ+rjeIt993X1OozME6pkron3Yri3bQ5ahFQeald24G2O4/7OdVvM9xhtqBrLnW5Kjuls/vVn9WO904AIum+72tF5YALheOrrBcw9qTPIQ3a4tAPCM81hp/Y27RD+8PQbPPQFdxW1T3Jiuzn7m7hjeW9ySz+7O592FujYRepl6EEj3nwy7u8qrv03bnKpmXk5HVurgFrFl8hgB6zoYHapomkzmFbYqfNMLw62VLgQQrI/OIQK4RdAGx9uyv5Fa0Gxu2bhV1sudXnaYpltx+vHs7izCpoU825uvx1Eg1sibq9RpgnVfxNzN4TJa2Fmd6VVWhLOUvQnjo7sVM3VbYW+273Z4OnkLtUgabk07yDT7XPp/hYnsnoIJ3TPSVeu4kRd5LnDm4WS8HQUHf3UhPzSp2kq3HHAd9H0Rmn4UgqLJpIIgmeJ7VfXH3Yu2i4zG9fc0mEX9fsz4fF4lVw/QQlS6gVzv2Nt2/VKhHW6iCXJbBBeS6CxKIOILFUF8+aJh4Os18W2TLr5g00Ws1ClMtjdwrpNx1D90drnbGKbDXWw63I7U2y2AshHre+ksGHsW7fOPYjloYTGwUbMxX1z/whiLOTRcbP5RL5yB1dREFkGVhLQA8HRePRlFnB0WSyaodPy471QpK6gDOnESTAUT7DKvtztNFMaxYGyvljDe+YtIdhjF9PejZcAlQOvCakVgEuza5+5V3tuffWgzlgOCopY4vRyMQP6IDdx/YzPqhFWKYsds0+ls/CnOk0qfQavFx1pjGDDnRev9glcQOEbsOI9wFkr+xBl/XVIhIBlqSxynSf6lh71sKBCsz+PAuongAzDIAbsj/r8AR9UPeDW3VW49at+qlU1WArQnZF2QpJAeaxhLaFBt8l1Qci9IfTDIyV/cTIG1I5iHV3ONDflOSS1/Gdq9r+xGCG5UZX5fw98gmCXGalB5WPGmUbkpRJgfajCKEBZ4cZN9OMZSOuPvFKEiIt3MUSMMm6nGo+uTYYBr2D0VSYzLCXxO/2ugx/aTh1jJg1vCcPUTIeYfc+O8/hBH3V6XpgO6qYT8QT5CnMcm/ABH3b7yFNRvX6ZcpDTRtglt5dOFMtDsK2flWQAWo835ELWQ4hGinUlJYrMKDLDm77ae7tdNG05qyJSeB6Ak+ysHaIKToultldEeHZUrj6Z7lPbWa8GmR4jXSkND4FbXJXDyaPfXthKSmgn++h+YcSqDS38NEO81qETggXvr/bcyulwYBj3LNaWuDYea6bZ63X9q81HgjybIFltLaMSf+B19as6wCvj9wdx2kdUsuRw9SV249nzQ/z+xe6Ltd5eThQM8ZFpGU3uH6SG+/BunrDzgLCbLrlCa7R/ExQ/60fh0w8mWO8H5IrydcLrJ/8CZ8h9jPGhKBPyQqgAAAABJRU5ErkJggg==;" vertex="1" parent="1">
          <mxGeometry x="986.81" y="1347.96" width="40" height="40" as="geometry" />
        </mxCell>
        <mxCell id="uFv2Ksm_HB0WcEMQn49q-30" value="" style="image;html=1;image=img/lib/clip_art/networking/Firewall_02_128x128.png;rounded=0;glass=0;dashed=1;fillStyle=auto;strokeColor=#6666FF;strokeWidth=1;fillColor=none;gradientColor=default;" vertex="1" parent="1">
          <mxGeometry x="976" y="1234.96" width="80" height="80" as="geometry" />
        </mxCell>
        <mxCell id="uFv2Ksm_HB0WcEMQn49q-31" value="AS- 400 &lt;br&gt;(172.16.65.1)" style="text;html=1;strokeColor=none;fillColor=none;align=center;verticalAlign=middle;whiteSpace=wrap;rounded=0;glass=0;dashed=1;fillStyle=auto;" vertex="1" parent="1">
          <mxGeometry x="1538.15" y="1460.6399999999999" width="131.85" height="30" as="geometry" />
        </mxCell>
        <mxCell id="uFv2Ksm_HB0WcEMQn49q-32" value="Notificador&amp;nbsp;&lt;br&gt;172.16.65.100" style="text;html=1;strokeColor=none;fillColor=none;align=center;verticalAlign=middle;whiteSpace=wrap;rounded=0;glass=0;dashed=1;fillStyle=auto;" vertex="1" parent="1">
          <mxGeometry x="1574.08" y="1395.41" width="60" height="30" as="geometry" />
        </mxCell>
        <mxCell id="uFv2Ksm_HB0WcEMQn49q-33" value="&lt;b&gt;Banco Internacional&lt;/b&gt;" style="text;html=1;strokeColor=none;fillColor=none;align=center;verticalAlign=middle;whiteSpace=wrap;rounded=0;glass=0;dashed=1;fillStyle=auto;" vertex="1" parent="1">
          <mxGeometry x="1562.27" y="1247.67" width="157.62" height="30" as="geometry" />
        </mxCell>
        <mxCell id="uFv2Ksm_HB0WcEMQn49q-34" value="WS - Consulta Listas de Observados (OFAC BI)&amp;nbsp;&lt;span dir=&quot;ltr&quot; class=&quot;ui-provider bzn bzo bcc bzp bzq bzr bzs bzt bzu bzv bzw bzx bzy bzz caa cab cac cae caf cag cah cai caj cak cal cam can cao cap caq car cas cat cau cav&quot;&gt;172.16.67.99&lt;/span&gt;" style="text;html=1;strokeColor=none;fillColor=none;align=center;verticalAlign=middle;whiteSpace=wrap;rounded=0;glass=0;dashed=1;fillStyle=auto;" vertex="1" parent="1">
          <mxGeometry x="1270.87" y="1587.08" width="219.13" height="30" as="geometry" />
        </mxCell>
        <mxCell id="uFv2Ksm_HB0WcEMQn49q-35" value="Onboarding Administration Biometría&lt;br&gt;&lt;span style=&quot;color: rgba(0, 0, 0, 0.9); font-family: &amp;quot;Segoe UI VSS (Regular)&amp;quot;, &amp;quot;Segoe UI&amp;quot;, -apple-system, BlinkMacSystemFont, Roboto, &amp;quot;Helvetica Neue&amp;quot;, Helvetica, Ubuntu, Arial, sans-serif, &amp;quot;Apple Color Emoji&amp;quot;, &amp;quot;Segoe UI Emoji&amp;quot;, &amp;quot;Segoe UI Symbol&amp;quot;; text-align: left; background-color: rgb(255, 255, 255);&quot;&gt;&lt;font style=&quot;font-size: 12px;&quot;&gt;172.16.78.4&lt;/font&gt;&lt;/span&gt;" style="text;html=1;strokeColor=none;fillColor=none;align=center;verticalAlign=middle;whiteSpace=wrap;rounded=0;dashed=1;" vertex="1" parent="1">
          <mxGeometry x="1485.8400000000001" y="1004.86" width="161.05" height="30" as="geometry" />
        </mxCell>
        <mxCell id="uFv2Ksm_HB0WcEMQn49q-36" value="WAS - nuevo servicio transaccional" style="text;html=1;strokeColor=none;fillColor=none;align=center;verticalAlign=middle;whiteSpace=wrap;rounded=0;glass=0;dashed=1;fillStyle=auto;" vertex="1" parent="1">
          <mxGeometry x="1355.07" y="1317.96" width="160" height="30" as="geometry" />
        </mxCell>
        <mxCell id="uFv2Ksm_HB0WcEMQn49q-37" value="&lt;b&gt;Capa Intermedia&lt;/b&gt;" style="text;html=1;strokeColor=none;fillColor=none;align=center;verticalAlign=middle;whiteSpace=wrap;rounded=0;glass=0;dashed=1;fillStyle=auto;" vertex="1" parent="1">
          <mxGeometry x="1313.63" y="1286.96" width="114.61" height="30" as="geometry" />
        </mxCell>
        <mxCell id="uFv2Ksm_HB0WcEMQn49q-38" value="" style="sketch=0;aspect=fixed;html=1;points=[];align=center;image;fontSize=12;image=img/lib/mscae/Network_Security_Groups_Classic.svg;" vertex="1" parent="1">
          <mxGeometry x="1393" y="839.3100000000001" width="30.71" height="41.5" as="geometry" />
        </mxCell>
        <mxCell id="uFv2Ksm_HB0WcEMQn49q-39" value="NSG" style="text;html=1;strokeColor=none;fillColor=none;align=center;verticalAlign=middle;whiteSpace=wrap;rounded=0;dashed=1;" vertex="1" parent="1">
          <mxGeometry x="1376.01" y="882.36" width="64.68" height="30" as="geometry" />
        </mxCell>
        <mxCell id="uFv2Ksm_HB0WcEMQn49q-40" value="" style="shape=mxgraph.cisco.computers_and_peripherals.ibm_mini_as400;html=1;pointerEvents=1;dashed=0;fillColor=#036897;strokeColor=#ffffff;strokeWidth=2;verticalLabelPosition=bottom;verticalAlign=top;align=center;outlineConnect=0;rounded=0;glass=0;fillStyle=auto;" vertex="1" parent="1">
          <mxGeometry x="1579.6299999999999" y="1501.96" width="43" height="62" as="geometry" />
        </mxCell>
        <mxCell id="uFv2Ksm_HB0WcEMQn49q-41" value="" style="shape=image;verticalLabelPosition=bottom;labelBackgroundColor=default;verticalAlign=top;aspect=fixed;imageAspect=0;image=https://icuality.com/images/Azure.png;" vertex="1" parent="1">
          <mxGeometry x="267.78" y="785.36" width="272.25" height="200" as="geometry" />
        </mxCell>
        <mxCell id="uFv2Ksm_HB0WcEMQn49q-42" value="" style="verticalLabelPosition=bottom;sketch=0;aspect=fixed;html=1;verticalAlign=top;strokeColor=none;align=center;outlineConnect=0;shape=mxgraph.citrix.web_service;rounded=0;glass=0;dashed=1;fillStyle=auto;fillColor=none;gradientColor=default;" vertex="1" parent="1">
          <mxGeometry x="372.40999999999997" y="991.96" width="63" height="60" as="geometry" />
        </mxCell>
        <mxCell id="uFv2Ksm_HB0WcEMQn49q-43" value="" style="verticalLabelPosition=bottom;sketch=0;aspect=fixed;html=1;verticalAlign=top;strokeColor=none;align=center;outlineConnect=0;shape=mxgraph.citrix.web_server;dashed=1;" vertex="1" parent="1">
          <mxGeometry x="502.40999999999997" y="991.96" width="58.65" height="69" as="geometry" />
        </mxCell>
        <mxCell id="uFv2Ksm_HB0WcEMQn49q-44" value="WS - Validación Identidad" style="text;html=1;strokeColor=none;fillColor=none;align=center;verticalAlign=middle;whiteSpace=wrap;rounded=0;dashed=1;" vertex="1" parent="1">
          <mxGeometry x="472.4100000000001" y="1066.96" width="128" height="30" as="geometry" />
        </mxCell>
        <mxCell id="uFv2Ksm_HB0WcEMQn49q-45" value="Azure - Banco Internacional" style="text;html=1;strokeColor=none;fillColor=none;align=center;verticalAlign=middle;whiteSpace=wrap;rounded=0;dashed=1;" vertex="1" parent="1">
          <mxGeometry x="958.7" y="671.96" width="172.81" height="30" as="geometry" />
        </mxCell>
        <mxCell id="uFv2Ksm_HB0WcEMQn49q-46" value="Azure - Latinus" style="text;html=1;strokeColor=none;fillColor=none;align=center;verticalAlign=middle;whiteSpace=wrap;rounded=0;dashed=1;" vertex="1" parent="1">
          <mxGeometry x="310" y="942.96" width="172.81" height="30" as="geometry" />
        </mxCell>
        <mxCell id="uFv2Ksm_HB0WcEMQn49q-47" value="Proceso de validación con SRI /Super de compañias" style="text;html=1;strokeColor=none;fillColor=none;align=center;verticalAlign=middle;whiteSpace=wrap;rounded=0;dashed=1;" vertex="1" parent="1">
          <mxGeometry x="354.81000000000006" y="1066.96" width="128" height="30" as="geometry" />
        </mxCell>
        <mxCell id="uFv2Ksm_HB0WcEMQn49q-48" value="" style="sketch=0;aspect=fixed;html=1;points=[];align=center;image;fontSize=12;image=img/lib/mscae/VPN_Gateway.svg;rounded=0;glass=0;dashed=1;fillStyle=auto;strokeColor=#6666FF;strokeWidth=1;fillColor=none;gradientColor=default;" vertex="1" parent="1">
          <mxGeometry x="618.81" y="928.96" width="41.4" height="46" as="geometry" />
        </mxCell>
        <mxCell id="uFv2Ksm_HB0WcEMQn49q-49" value="" style="sketch=0;aspect=fixed;html=1;points=[];align=center;image;fontSize=12;image=img/lib/mscae/Virtual_Network_Classic.svg;" vertex="1" parent="1">
          <mxGeometry x="1673" y="700.96" width="39.65" height="22.2" as="geometry" />
        </mxCell>
        <mxCell id="uFv2Ksm_HB0WcEMQn49q-50" value="" style="sketch=0;aspect=fixed;html=1;points=[];align=center;image;fontSize=12;image=img/lib/mscae/Virtual_Network_Classic.svg;" vertex="1" parent="1">
          <mxGeometry x="542.76" y="963.1600000000001" width="39.65" height="22.2" as="geometry" />
        </mxCell>
        <mxCell id="uFv2Ksm_HB0WcEMQn49q-51" value="Super compañias / SRI" style="text;html=1;strokeColor=none;fillColor=none;align=center;verticalAlign=middle;whiteSpace=wrap;rounded=0;dashed=1;" vertex="1" parent="1">
          <mxGeometry x="332.4" y="1207.96" width="172.81" height="30" as="geometry" />
        </mxCell>
        <mxCell id="uFv2Ksm_HB0WcEMQn49q-52" value="Validez proceso" style="text;html=1;strokeColor=none;fillColor=none;align=center;verticalAlign=middle;whiteSpace=wrap;rounded=0;dashed=1;" vertex="1" parent="1">
          <mxGeometry x="365.0400000000001" y="1315.46" width="128" height="30" as="geometry" />
        </mxCell>
        <mxCell id="uFv2Ksm_HB0WcEMQn49q-53" value="" style="shape=mxgraph.cisco.computers_and_peripherals.ibm_mini_as400;html=1;pointerEvents=1;dashed=0;fillColor=#036897;strokeColor=#ffffff;strokeWidth=2;verticalLabelPosition=bottom;verticalAlign=top;align=center;outlineConnect=0;rounded=0;glass=0;fillStyle=auto;" vertex="1" parent="1">
          <mxGeometry x="407.53999999999996" y="1253.46" width="43" height="62" as="geometry" />
        </mxCell>
        <mxCell id="uFv2Ksm_HB0WcEMQn49q-54" value="" style="shape=flexArrow;endArrow=classic;startArrow=none;html=1;rounded=0;strokeColor=#FF8000;" edge="1" parent="1">
          <mxGeometry width="100" height="100" relative="1" as="geometry">
            <mxPoint x="982" y="1181.96" as="sourcePoint" />
            <mxPoint x="982" y="1138.96" as="targetPoint" />
            <Array as="points" />
          </mxGeometry>
        </mxCell>
        <mxCell id="uFv2Ksm_HB0WcEMQn49q-55" value="" style="shape=flexArrow;endArrow=classic;startArrow=classic;html=1;rounded=0;strokeColor=#FF8000;entryX=0.427;entryY=0.995;entryDx=0;entryDy=0;entryPerimeter=0;exitX=0.304;exitY=-0.067;exitDx=0;exitDy=0;exitPerimeter=0;" edge="1" parent="1" source="uFv2Ksm_HB0WcEMQn49q-51" target="uFv2Ksm_HB0WcEMQn49q-16">
          <mxGeometry width="100" height="100" relative="1" as="geometry">
            <mxPoint x="385.40999999999997" y="1192.96" as="sourcePoint" />
            <mxPoint x="392.40999999999997" y="1122.96" as="targetPoint" />
            <Array as="points" />
          </mxGeometry>
        </mxCell>
        <mxCell id="uFv2Ksm_HB0WcEMQn49q-56" value="" style="endArrow=classic;startArrow=classic;html=1;rounded=0;" edge="1" parent="1">
          <mxGeometry width="50" height="50" relative="1" as="geometry">
            <mxPoint x="439.40999999999997" y="1025.96" as="sourcePoint" />
            <mxPoint x="499.40999999999997" y="1025.96" as="targetPoint" />
          </mxGeometry>
        </mxCell>
        <mxCell id="uFv2Ksm_HB0WcEMQn49q-57" value="&lt;b&gt;Red Interna&lt;/b&gt;" style="text;html=1;strokeColor=none;fillColor=none;align=center;verticalAlign=middle;whiteSpace=wrap;rounded=0;glass=0;dashed=1;fillStyle=auto;" vertex="1" parent="1">
          <mxGeometry x="1579.63" y="1277.67" width="157.62" height="30" as="geometry" />
        </mxCell>
        <mxCell id="uFv2Ksm_HB0WcEMQn49q-58" value="" style="endArrow=classic;startArrow=classic;html=1;rounded=0;entryX=0.5;entryY=0;entryDx=0;entryDy=0;" edge="1" parent="1" target="uFv2Ksm_HB0WcEMQn49q-29">
          <mxGeometry width="50" height="50" relative="1" as="geometry">
            <mxPoint x="1006.41" y="1311.96" as="sourcePoint" />
            <mxPoint x="1126.4099999999999" y="1311.96" as="targetPoint" />
          </mxGeometry>
        </mxCell>
        <mxCell id="uFv2Ksm_HB0WcEMQn49q-59" value="WS - consultationIbsEjb -Portales" style="text;html=1;strokeColor=none;fillColor=none;align=center;verticalAlign=middle;whiteSpace=wrap;rounded=0;glass=0;dashed=1;fillStyle=auto;" vertex="1" parent="1">
          <mxGeometry x="1275.06" y="1382.96" width="196.5" height="30" as="geometry" />
        </mxCell>
        <mxCell id="uFv2Ksm_HB0WcEMQn49q-60" value="" style="verticalLabelPosition=bottom;sketch=0;aspect=fixed;html=1;verticalAlign=top;strokeColor=none;align=center;outlineConnect=0;shape=mxgraph.citrix.web_service;rounded=0;glass=0;dashed=1;fillStyle=auto;fillColor=none;gradientColor=default;" vertex="1" parent="1">
          <mxGeometry x="1330" y="1322.96" width="63" height="60" as="geometry" />
        </mxCell>
        <mxCell id="uFv2Ksm_HB0WcEMQn49q-61" value="" style="verticalLabelPosition=bottom;sketch=0;aspect=fixed;html=1;verticalAlign=top;strokeColor=none;align=center;outlineConnect=0;shape=mxgraph.citrix.web_service;rounded=0;glass=0;dashed=1;fillStyle=auto;fillColor=none;gradientColor=default;" vertex="1" parent="1">
          <mxGeometry x="1346.51" y="1518.1800000000003" width="63" height="60" as="geometry" />
        </mxCell>
        <mxCell id="uFv2Ksm_HB0WcEMQn49q-62" value="" style="verticalLabelPosition=bottom;sketch=0;aspect=fixed;html=1;verticalAlign=top;strokeColor=none;align=center;outlineConnect=0;shape=mxgraph.citrix.web_service;rounded=0;glass=0;dashed=1;fillStyle=auto;fillColor=none;gradientColor=default;" vertex="1" parent="1">
          <mxGeometry x="1356.51" y="1632.0900000000001" width="46.26" height="44.06" as="geometry" />
        </mxCell>
        <mxCell id="uFv2Ksm_HB0WcEMQn49q-63" value="WS - Fuentes externas DTP&lt;br&gt;&lt;span dir=&quot;ltr&quot; class=&quot;ui-provider bzn bzo bcc bzp bzq bzr bzs bzt bzu bzv bzw bzx bzy bzz caa cab cac cae caf cag cah cai caj cak cal cam can cao cap caq car cas cat cau cav&quot;&gt;172.16.69.81&lt;/span&gt;" style="text;html=1;strokeColor=none;fillColor=none;align=center;verticalAlign=middle;whiteSpace=wrap;rounded=0;glass=0;dashed=1;fillStyle=auto;" vertex="1" parent="1">
          <mxGeometry x="1285.87" y="1676.1499999999999" width="189.13" height="30" as="geometry" />
        </mxCell>
        <mxCell id="uFv2Ksm_HB0WcEMQn49q-64" value="WS -&amp;nbsp;transactionIbsEjb - Portales" style="text;html=1;strokeColor=none;fillColor=none;align=center;verticalAlign=middle;whiteSpace=wrap;rounded=0;glass=0;dashed=1;fillStyle=auto;" vertex="1" parent="1">
          <mxGeometry x="1276.06" y="1395.41" width="193.37" height="30" as="geometry" />
        </mxCell>
        <mxCell id="uFv2Ksm_HB0WcEMQn49q-65" value="WS -&amp;nbsp;SecurityAdmin - Portales" style="text;html=1;strokeColor=none;fillColor=none;align=center;verticalAlign=middle;whiteSpace=wrap;rounded=0;glass=0;dashed=1;fillStyle=auto;" vertex="1" parent="1">
          <mxGeometry x="1271.87" y="1408.6399999999999" width="186.5" height="30" as="geometry" />
        </mxCell>
        <mxCell id="uFv2Ksm_HB0WcEMQn49q-66" value="WS -&amp;nbsp;consultationIbsEjbRestful" style="text;html=1;strokeColor=none;fillColor=none;align=center;verticalAlign=middle;whiteSpace=wrap;rounded=0;glass=0;dashed=1;fillStyle=auto;" vertex="1" parent="1">
          <mxGeometry x="1267.38" y="1422.03" width="199.13" height="30" as="geometry" />
        </mxCell>
        <mxCell id="uFv2Ksm_HB0WcEMQn49q-67" value="WS -&amp;nbsp;transactionIbsEjbRestful" style="text;html=1;strokeColor=none;fillColor=none;align=center;verticalAlign=middle;whiteSpace=wrap;rounded=0;glass=0;dashed=1;fillStyle=auto;" vertex="1" parent="1">
          <mxGeometry x="1274.06" y="1433.71" width="179.89" height="30" as="geometry" />
        </mxCell>
        <mxCell id="uFv2Ksm_HB0WcEMQn49q-68" value="WS -&amp;nbsp;securityAuthIbsEjbRestful" style="text;html=1;strokeColor=none;fillColor=none;align=center;verticalAlign=middle;whiteSpace=wrap;rounded=0;glass=0;dashed=1;fillStyle=auto;" vertex="1" parent="1">
          <mxGeometry x="1272.5" y="1447.0300000000002" width="188.5" height="30" as="geometry" />
        </mxCell>
        <mxCell id="uFv2Ksm_HB0WcEMQn49q-69" value="WS -&amp;nbsp;NotifycaBI" style="text;html=1;strokeColor=none;fillColor=none;align=center;verticalAlign=middle;whiteSpace=wrap;rounded=0;glass=0;dashed=1;fillStyle=auto;" vertex="1" parent="1">
          <mxGeometry x="1512.1799999999998" y="1419.96" width="189.13" height="30" as="geometry" />
        </mxCell>
        <mxCell id="uFv2Ksm_HB0WcEMQn49q-70" value="WS -&amp;nbsp;Firma del contrato - onboarding&amp;nbsp;" style="text;html=1;strokeColor=none;fillColor=none;align=center;verticalAlign=middle;whiteSpace=wrap;rounded=0;glass=0;dashed=1;fillStyle=auto;" vertex="1" parent="1">
          <mxGeometry x="198.12" y="1070.96" width="122.41" height="30" as="geometry" />
        </mxCell>
        <mxCell id="uFv2Ksm_HB0WcEMQn49q-71" value="" style="verticalLabelPosition=bottom;sketch=0;aspect=fixed;html=1;verticalAlign=top;strokeColor=none;align=center;outlineConnect=0;shape=mxgraph.citrix.xenserver;rounded=0;glass=0;dashed=1;fillStyle=auto;fillColor=none;gradientColor=default;" vertex="1" parent="1">
          <mxGeometry x="1578.15" y="1334.41" width="51.85" height="61" as="geometry" />
        </mxCell>
        <mxCell id="uFv2Ksm_HB0WcEMQn49q-72" value="" style="endArrow=classic;startArrow=classic;html=1;rounded=0;" edge="1" parent="1" source="uFv2Ksm_HB0WcEMQn49q-29">
          <mxGeometry width="50" height="50" relative="1" as="geometry">
            <mxPoint x="1206.51" y="1264.65" as="sourcePoint" />
            <mxPoint x="1317.51" y="1347.96" as="targetPoint" />
            <Array as="points">
              <mxPoint x="1110" y="1367.96" />
              <mxPoint x="1110" y="1347.96" />
            </Array>
          </mxGeometry>
        </mxCell>
        <mxCell id="uFv2Ksm_HB0WcEMQn49q-73" value="" style="endArrow=classic;startArrow=classic;html=1;rounded=0;entryX=0;entryY=0.5;entryDx=0;entryDy=0;exitX=0.25;exitY=1;exitDx=0;exitDy=0;" edge="1" parent="1" source="uFv2Ksm_HB0WcEMQn49q-11" target="uFv2Ksm_HB0WcEMQn49q-8">
          <mxGeometry width="50" height="50" relative="1" as="geometry">
            <mxPoint x="1510" y="1681.96" as="sourcePoint" />
            <mxPoint x="1560" y="1631.96" as="targetPoint" />
            <Array as="points">
              <mxPoint x="1601" y="1609.96" />
            </Array>
          </mxGeometry>
        </mxCell>
        <mxCell id="uFv2Ksm_HB0WcEMQn49q-74" value="&lt;b&gt;Snet-APP-Prod&lt;/b&gt;" style="text;html=1;strokeColor=none;fillColor=none;align=center;verticalAlign=middle;whiteSpace=wrap;rounded=0;dashed=1;" vertex="1" parent="1">
          <mxGeometry x="1424.8899999999999" y="950.85" width="108" height="31.11" as="geometry" />
        </mxCell>
        <mxCell id="uFv2Ksm_HB0WcEMQn49q-75" value="&lt;b&gt;Snet-DMZ3&lt;/b&gt;" style="text;html=1;strokeColor=none;fillColor=none;align=center;verticalAlign=middle;whiteSpace=wrap;rounded=0;dashed=1;" vertex="1" parent="1">
          <mxGeometry x="1312.31" y="732.1600000000001" width="84" height="30" as="geometry" />
        </mxCell>
        <mxCell id="uFv2Ksm_HB0WcEMQn49q-76" value="&lt;b&gt;Snet-DMZ1&lt;/b&gt;" style="text;html=1;strokeColor=none;fillColor=none;align=center;verticalAlign=middle;whiteSpace=wrap;rounded=0;dashed=1;" vertex="1" parent="1">
          <mxGeometry x="1028.56" y="946.31" width="146.4" height="30" as="geometry" />
        </mxCell>
        <mxCell id="uFv2Ksm_HB0WcEMQn49q-77" value="Backend Onboarding Biometría&lt;br&gt;&lt;span style=&quot;color: rgba(0, 0, 0, 0.9); font-family: &amp;quot;Segoe UI VSS (Regular)&amp;quot;, &amp;quot;Segoe UI&amp;quot;, -apple-system, BlinkMacSystemFont, Roboto, &amp;quot;Helvetica Neue&amp;quot;, Helvetica, Ubuntu, Arial, sans-serif, &amp;quot;Apple Color Emoji&amp;quot;, &amp;quot;Segoe UI Emoji&amp;quot;, &amp;quot;Segoe UI Symbol&amp;quot;; text-align: left; background-color: rgb(255, 255, 255);&quot;&gt;&lt;font style=&quot;font-size: 12px;&quot;&gt;192.168.78.4&lt;/font&gt;&lt;/span&gt;" style="text;html=1;strokeColor=none;fillColor=none;align=center;verticalAlign=middle;whiteSpace=wrap;rounded=0;dashed=1;" vertex="1" parent="1">
          <mxGeometry x="1198.06" y="1040.96" width="211.45" height="30" as="geometry" />
        </mxCell>
        <mxCell id="uFv2Ksm_HB0WcEMQn49q-78" value="" style="html=1;strokeWidth=1;shadow=0;dashed=0;shape=mxgraph.ios7.misc.vpn;fillColor=#007AFF;strokeColor=none;buttonText=;strokeColor2=#222222;fontColor=#222222;fontSize=8;verticalLabelPosition=bottom;verticalAlign=top;align=center;sketch=0;rounded=0;glass=0;fillStyle=auto;" vertex="1" parent="1">
          <mxGeometry x="965.8199999999999" y="1177.96" width="30.88" height="30" as="geometry" />
        </mxCell>
        <mxCell id="uFv2Ksm_HB0WcEMQn49q-79" value="" style="shape=flexArrow;endArrow=none;startArrow=classic;html=1;rounded=0;strokeColor=#FF8000;" edge="1" parent="1">
          <mxGeometry width="100" height="100" relative="1" as="geometry">
            <mxPoint x="982" y="1248.96" as="sourcePoint" />
            <mxPoint x="981.8287500000001" y="1207.96" as="targetPoint" />
            <Array as="points">
              <mxPoint x="982" y="1228.96" />
              <mxPoint x="982" y="1208.96" />
            </Array>
          </mxGeometry>
        </mxCell>
        <mxCell id="uFv2Ksm_HB0WcEMQn49q-80" value="&lt;b&gt;Snet-BDD-Prod&lt;/b&gt;" style="text;html=1;strokeColor=none;fillColor=none;align=center;verticalAlign=middle;whiteSpace=wrap;rounded=0;dashed=1;" vertex="1" parent="1">
          <mxGeometry x="1650.4299999999998" y="736.1600000000001" width="108" height="30" as="geometry" />
        </mxCell>
        <mxCell id="uFv2Ksm_HB0WcEMQn49q-81" value="" style="verticalLabelPosition=bottom;sketch=0;aspect=fixed;html=1;verticalAlign=top;strokeColor=none;align=center;outlineConnect=0;shape=mxgraph.citrix.web_server;dashed=1;" vertex="1" parent="1">
          <mxGeometry x="1291" y="772.96" width="58.65" height="69" as="geometry" />
        </mxCell>
        <mxCell id="uFv2Ksm_HB0WcEMQn49q-82" value="" style="edgeStyle=orthogonalEdgeStyle;rounded=0;orthogonalLoop=1;jettySize=auto;html=1;startArrow=classic;startFill=1;" edge="1" parent="1" source="uFv2Ksm_HB0WcEMQn49q-83" target="uFv2Ksm_HB0WcEMQn49q-113">
          <mxGeometry relative="1" as="geometry" />
        </mxCell>
        <mxCell id="uFv2Ksm_HB0WcEMQn49q-83" value="&lt;font style=&quot;font-size: 12px;&quot;&gt;Front Onboarding Biometría 192.168.77.5&lt;/font&gt;" style="text;html=1;strokeColor=none;fillColor=none;align=center;verticalAlign=middle;whiteSpace=wrap;rounded=0;dashed=1;" vertex="1" parent="1">
          <mxGeometry x="1248.01" y="858.96" width="128" height="30" as="geometry" />
        </mxCell>
        <mxCell id="uFv2Ksm_HB0WcEMQn49q-84" value="" style="aspect=fixed;perimeter=ellipsePerimeter;html=1;align=center;shadow=0;dashed=0;spacingTop=3;image;image=img/lib/active_directory/internet_cloud.svg;" vertex="1" parent="1">
          <mxGeometry x="600.41" y="648.08" width="231.98" height="146.15" as="geometry" />
        </mxCell>
        <mxCell id="uFv2Ksm_HB0WcEMQn49q-85" value="Internet" style="text;html=1;strokeColor=none;fillColor=none;align=center;verticalAlign=middle;whiteSpace=wrap;rounded=0;dashed=1;" vertex="1" parent="1">
          <mxGeometry x="621.81" y="706.1600000000001" width="172.81" height="30" as="geometry" />
        </mxCell>
        <mxCell id="uFv2Ksm_HB0WcEMQn49q-86" value="" style="verticalLabelPosition=bottom;html=1;verticalAlign=top;align=center;strokeColor=none;fillColor=#00BEF2;shape=mxgraph.azure.user;" vertex="1" parent="1">
          <mxGeometry x="534.91" y="526" width="47.5" height="50" as="geometry" />
        </mxCell>
        <mxCell id="uFv2Ksm_HB0WcEMQn49q-87" value="" style="shape=image;verticalLabelPosition=bottom;labelBackgroundColor=default;verticalAlign=top;aspect=fixed;imageAspect=0;image=data:image/png,iVBORw0KGgoAAAANSUhEUgAAAOgAAAB6CAYAAAC1Bx8wAAAgAElEQVR4Aey9aawl53ke+NReZz/n7ksvtzc22c1F3CRRtGVJDmV7ZFuJkcVyDCTzKwYSxIAH/ufBGBgEAwQzAwTzx/AA42Awg4GRCTK24pFjObZFmxIp7mSzSfZ2e7l993PPWvs2eN6v6vZtLiI9QWAB4SFvnzpVX331Le++lXZy7Uxh2w6anTZ0TUOSa9A1wNAKZHkOfnRdl+/qn6IoAE2DVp34wDeva5q6Km3B5hqq80fPHb01z/MPPYv3RUGI6WR82JTteL56xuGFzw4+W4Ef0xUgrMZxjCRJ4LouDMMQfDg63DRN5ZxlWYendRQFnJq6Ic41LNQi2EaONAccx4VtmfADH2EUIU4SeQgRNi0fFoYhojhCFMUIghBpmiHLM/A8/7IsE6TL80IQP05iZFmOosilLxIBIizb1dwaOJ7qw3P82OX4qnacHD8VosuPz/75bAX+hleASEjY/CjGQeQ8ffo0vvnNX0Sv1xVEPTpcwvKxY6s4dWrtPuQ1pVFRCOdcrof42RO7uDmp47s36njq6Wdx+lgHd+4eAHkC3w+R5DHyyMHJ08vIzBzh2EcRx8iNFJpdQ+hPYWk2DCJxkWF2fhbvXb6Eja0hvvjAF6C3UiRE6ExDXkywvn4bfhBh5fhxNF0Xm9tb2N/vY252Fo88fBE/fPkVhGEkwyTnNA0D3/iFX8TO9hZ+8P3vf+yCHJ38Z8efrcB/7hUgM+n1elhYmMf21jZG4wkM457kSaSdm5vD4uIier0Z7O3t3zckcta1tTV0u13cunX7UJJUCEoxVgP81EA/tDGILOiGia2tDdScAjXbxOTAh21aQF5g72CA/oELzShgmyYmoyHsroWZ5gxCf4yi0JBmCWA7SOIYo/EUQIbdwQ66RROGq4Hs3LIN+a7Vm1ia72FjYxu6pgtyc8C7u7tQ4qyaCyfJ39tbWxgc9D8Tc+/b4s9+/E2uADnnaDTCcDgUuDyKnBwXpc6bN29ie3sL29s7sG37vuE6joM333xTBEgeE/750U6cOFW0ez1QzE0zwNIp3uqCsFmaIElT1VDXFULwJl1DxsblR9N1FDmQ5ykMgzifo6CGWhSgaMvB6LpCWv7mh/ouEdkwDZimBde2MPWm0DVD+ifL5yBlIpqGUb9/OOiMY9I0mOYhfamG8tn3ZyvwY7sCZEpkMNQxPyQGU807YvOprmsPXnikqDebh5PKCxpfBL0Oz33ag6rTT9u+akdkJOJ+kOpU14mMSRQhDILDU58dfLYCPy4rQPj9OIPpx42RdhgyOjHAHrG7fLC92Wi1xNjCh8RxAse5n/XyBsrXlWGGSEhKQKWXiFNzXemzOp+miRiKKktUmqQykOrBbEcqoj5UqnXp/4PngUIGz/OyAFTAS8pT/a6ucRzUeTlOcnPQyqvTkFTIWLkIvEfalQYmcnfy8mph2Vf1kbal5bk6p74VIZFFvf/CYf8io3yEhVueJkO49xwlvn9mjf7AUv7Y/6yMl4RxkeIIOyWToaT4wc9ReCKceb6PpblZ+H6AKIpAkZZt+Me+TVpxS6Q1q5sJLA+cO4P1m7cOdTteY4edTgfj8VgQhsjZ63bx2GOPYup5eO2116UNz9NqS+BttVoYjyeCIDMzM8L5KPSauo4oTtHttQVZiiTBcOqh22nB9yN0uh0UmbIC04kTJzGCMBQRWNcNtBou/CiBY5kI4xhxGMG0bWhFhjhO0Wy14HsedNNCEgfQDQezs7PyfLdWRxwG8MsxUtLO8wQFDCDP5FlEVy4OxeokChGEkcynWjyL7qhGDZPxhKo48R2aRtEf0E0DeUpCZiLPUqRZLsRHFj3PYFsOaDPg/Pnh+Xq9jixLkCTKvF7kBTSDMy919BIA2Pazz4/HChBPOp2uwPxgcCDIRQQjHDi01Uw92fecOp9sWwHHrSHPM9nnJE7wsz/zHL76lZ8Sz8f/9nv/Gnc3NwXRifCE1739fVEBOWNR4nzfx09/7av42le/gj/49r/HpUvvCJcj16Tl6fTpU7h69ZoYbYjhTz/9FLa2tvDoo4/g9dffkJUjgrKfZ7/0Jfzmb/4m/vmv/3Pc2djE3/r6c0iCCJalkyei6dRw6epbKMwGjDDAThDiuZ94FsPdPna9MXp2DYWeo9XrIs80TMb7aLYX0N+6gb2xhxNrJ3H37i4ef/hRbO1uwnUbSL1dfPcvXsRDDz2MrTvreOKZL+PyK89jd5Th537uS9jdCXHr1joarSauXHobYZZhZfU0vvjkg4gzwEsDjPs+XD3H1fV1JJqBU2unsNBuIs4SkR5My8SdW5s4fmIB/cEQvW4PQZzAmw5R5C5majWkTgbHbUMPc0wzD7ZmIPB9OE4do3iIht1DGo5hNVyEfoSVlUW8/tZVLLZbsGoW3E4LyWCK9e1NPHj+PPbvbuCNt95GXCid/ccDRP/LHQWRs9Go4/Of/7wg6Pe//wKm0yksy4Sm2/jpLz+DTE/Q7/toGE3krsmAAjR7LRRxijuX38cb713GP/yVX8Zbb72N8+cfwC/+wjfwP/7P/wptwoBl4fixVezs7EAv7SvG8urx3yaXpB+TDd6+9M4hJ+RWkHqTou/v78sxB0nKv7KygitXr0pnRGSep9hLbksXyUs/fEm4n23ZCCcTbG5tod/vYzAZYdQfCXcKvAkOhiOMDgYYjIfY2LiDycTDaHyAnb09bNy+i0I3sX79mhiwxsMRhuMJIt/D+rXrgGbi9s0bSAsN3nQCzwuxOL+A7c0NZIWGIi1g2RpubWwhpXJuGOjv7aLQDcRxhDQvcLC7D6PZQM0wMfGniNME/sRTxKTuYBoEoFEqTpV7yPcCmIYF3dSxu9uHbZArFtDyDIPxGKPhAEWhw/fH2N3vwzBqaNVtTLyRtEOaYDCcotWsS9+BlygqqecYTKaYHnhoth0aveFNfezu75Xc+sOi03+5qPI3N3MyopmZnuDI7du3RMKixEUhJ00i+ImPKMgQBgkWVxawtbmB3c0dTEYT+P4Uewd9nDh+Al/84ueF8H/nj/8Et+/cgV1KS+1OGzu7e9IvZ6k98YVnCyIoLaYUT+/pVwQIpaUVRSaHlXxNy26n3RGrK1vxfg6QImkYhPC8KdrtjrB6Ii2Rl+IjRUFaqiy6a8q+eS5lQEIBJRIKVaD4qaKFqm/ebIq+ymgjpcfSsERFm/dykShGVIEPdNfYjoM8y0C9mKKnZZqg6MHxcqH5x3E71KOLDGGkrMbUZwWB00za8gFsJ3o4H5crfUGth4q8IgHgM2X48gwl+ioRl/5bU4IzlNZbCNKxU2UYU3q2mMKpQ1P8LigiqzFLpx/6pxJ7jyJuda5q/HHX1F5UrT77/nQroLBBEz2Rd9AD4di27BNtDBRfCeo0skIHXNtGFEbICTzEAMOAoRsCRz/5E8+KL/SNt94SMZmwQLgkjBF/RN2hCvW5xz93b1fLjgSTqjHzHA0uJfBVp4k4ApBHYaDkuASwgudLPU3uUbOrbv/03+zrI1qr7u9d4eTu+wiQq+vVJU5Ftbt/MIxqIuLQ9VM97V7P9/X6n/hDjZGPqZb6aIdytZrGx8y7an+kmRi6ZEbVyaqRfN8/1+qUMpEdaXhkwh+6dqTZpz1UQzk6oCMPOOykun70GqHycBuOHhzede+guv/emY8/+oh1+NjGR8fz4UbVVYGXj9tMOhuLytDJPtSkKGlRTaQ6SGSs1WoCk9JnCRRLK8dhCcMpoD1xwqqe9+GR8EyRI2ssobA7csznaIcooyFJActQW1oZm0n9hQJwWNUakkKUZmU+kETmvs/hppRYXQIox3yvqTqiwcgwFNcmhyITFestO6z6Eb+Sal/kOZI8E7G1anL4bGmiRs55yaKXFl6Z1eHzj85ajYm33g/M1WRV76IelAvAtrxqcKzSjP/wT42Rx3y2UF/eXgBZUYgYzmP1HE0MbTJfuVedp8GK120amI5YEYXwUMrgA8t4atM0sL29j53dg8MlODwo1+Lw90ccVPM4eqmaAc/J1I5e/OseVwDzURTsr9vXj0H71ZU5zM22kRKs8xTa6K7Co49YKbHgmib+9R/8AGceuIAoDGCa96KRPno67Ng0UFBppahLACt3JCuAU3MFbg010cXIhwiUjuko0CWQZanotqQUYRiI7E42rz7V1iqRq0IIdY0IUV3nGbX1PENRVderIAUOkP+XEyFySdMCJD3so8gz6BRn6TJS0FxhiYyzbK6eUE1OdO+jo1RsrxoR76mOq++jY+SduogtNPAUsmZspzR6msuITOWYBWmp6ZfGIEHOHDktwRqQU+oVuqUrIidALJMGiY+oAaCrSYPGDRVfNuGAbUqXVjlgrhqDTGg5/uzzn38FuFU0MCIjoSSTOgI4H3g8Qc/UNdFH9/t9dDttEuRPwFACPP2I9BGUAEcA8GPgyZUcT6wA37+t4e1dDTUL4tJ44vEn8cwzX0IQBGJQ2tvbxWAwEF3wT/7Dd5BrjEIqoBuGiMkEXAKsQmZbfEMUDxhhRC6gKIslyEb9UOmgDMKncYqGIBIPBeAkEAUXgtxILN0cv/K3cvxKT6W/iairgLxCLI2YXSKo9CMLSOQqobuk7oJoh00VITm6ijzmWd6lkK7SR4FUEF+RE+GWmo6M5KXkfKI2cA65ckvlWoGE+i+fV2XwyLcSoQT9NEZ+EUFVG7Jozo7nuHflNGRu/Fk96wPw8Z/0k+Ia9+mv++GcuNY/6kMYJRH6cfmcPHkSZ86cwauvvirhfT9qXNxPse2UBF+IskyXkHH/h+tAOwuTU7rzy4I/Jjf+Ez/VRstCajQw4kSvwIPzGho2cGFBwyDSsO+r8LvpdCJ+08uXL2F+YQHLSyvyiPF4hEcf/ZwgCUUtWoYpi9PZqyzAy6Bl7MLFh9FoNHD16hW0Wm0sLS3h+vVr4D3KaKSj2WxJ9gwzYPoH+9CPBCaLsaXCDiEFigQQ2fVChyFcVYnhRHCKH4ZWIknJ7RQCK2qngcDBf9WRAidlnOLEdC2HVa1jCWvy+EO9nQjDvsg5FaCp5lxLNVCe5RiU0YvIaUh7MaDlKpbzkPkTyyruTOLJ0YkrRnFtJXlo0AwdBYkKH5GRWimj1Mch6KlTp/Abv/Eb+N73vicGNDrRCTRcc35zT+jr5ofnHnroIQVEpolHH30Uzz//PJaXl3HlyhVpT0C+dOkSvvjFL+KVV15RRjYA58+fx927dyU4/Hd/93fFVSGdfsw/3/rWt8Q7wHs4jocffhivvfaaSGarq6sCa++9957c3W63xWDIb47jscceE/h5//33BcY4bhIS9sFYb/r3K8Ly3e9+9/D4Y4aC+fl5PP7443j99dfxUz/1U/j2t78tY/q49txPUce4DRkzXT6upRLqLMvA/t4ehtMI83OzotJ8/B28wt3nRlPMJRQVwBOLGda6igMlOS9r+FunC1wdaPjBjUx8p1/56tckKml/f08mFQZNSbeZn5vHybU1WawTJ07i5s11rN+4Lgv1i9/8JXz7D/8dzp57ADeuX8M3v/lLElxMq9Y/+Ae/IuP84Q9/AM/z8Au/8Ev48z//U8kM+L3f+1/RbLbLeQi4EhYFLjlghRKUd0mty0kIkCvxkGIfOYBQc/YiYYcSXCzHlEsUctyPoAQWrrcBFbus1l6hB5/O/hT2qCtEIrpgyOF5Pi37LQcuyETkERJCHTpNRcKwDMX1KJSmKUVfqg2mIGWc5TAlWEKTHN5DHZaMk/HThor7LIxM7qMEIuOqHnrkmw53Bpb8/M//vCAELftESgIyLd4EZgI4uQeDwqm2UEoikWWO43PPPSd9X7x4Ua7t7e0JIjHN6sSJE2g2m7h165Yg8bPPPouDg4PD+Oojw/jQ4Y0bN/Dkk0/iqaeekn6IUERyftNPz334zne+I3t4/PhxLCwsyLg4Jo7/S1/6krRnOwbRkDHQpUjCz3N0GZJJvPDCC5hMGGDz8R9l+S8k64RzIFJzDT7uQzAjV1TYQltAiVMfcQPBQiSl0lbDfTKJXD/yk5MSGygYIkd9qCgQ5nTTZdIZbycLp0EjygwRn5qtpoTbLcwv4OLFh/H89/5cFoKIt7e/IwhKfykdslyYn/zyV3DjxnVcvvw2fu3X/hn+xb/4bbz77jv4J7/2T3Ht2hX88R//Eb7xjW/izbdew3PP/Rxu3V7H+++/g6eefArrN28oJOFAZCpqPlx4hR3lmlBMFQThFw/IUYhECjEFaJWaydMlN9NRkFmVHIrrxN6Jd0RY6uClYK3O84klZ2NbDiEXhOM9StSU0YmFWfVL/bQcOLTyXiKREBiZkuK55KTcZotSRFaI+Z66NdfPJAaLKJWVlvWSSJT9cf9g6tATBQAft9/kMr/6q78qfXIeRKhnnnlGgJAATUAkIZNn0mWV0xVkCIJy/diGH54jIPM3kZfcjtd5jkhNAkvEYX8890mfl156CfzjmHgfn1v1T+781ltviQrF5/KP7aqxEol/53d+R1St6lkcP6UDwi3b8jc/lXTwo8ZDVe0HP/gBzp49K359Eo6/+qu/+thbCCvEMeVprCQkgaIP3cM4eBJoBcHqsnFm3vxtQTIi2kf9ETzrM9CcplJyNQ37gY6bIxNnewW6NWAQ6PjTWzb6ITXJXMKViIB/+If/DvPzC9jc3EAUhjBMU/yjrI7wwx++iJMn1/AHf/Bvsbi4JAv2J//hj9Bqt7Gyegynz57Fe+++A8uy8cQTT+HSpbfwg+//FVqtJuq1On7/9/8PnDt3HnOzc7AdG7dv3xQRWCEaF0IhkrKMcuLUS9U5UdZLgww3iffwmw14TN8kxUMax+jr4rXDfgy1iFx00fvudSoLWGgmcs1AoRG5+UByTCp+mjpH5OY93IhKpxSDkTIasV8awXiNwEMDkfjRhKpSZ6caoQDRtGww/JCcksO3CQwcN5HVMCU+mYRIHk99nxRah4RV9gf3KlR8EFKIAPwjwF67du0QIdiOYyLQk7sS4OM4lnM8z9/84zW2qa7xmOfZZ3WO3/z9aT7sm3/88L6qf36vr68LEWBfR8fFttU9PK7uqdrwGu/hXzVuecCn+IcE5s6dO8Jx+f2jPsdXZ9FoukLkSWr1YCiElvv4QXwjgaZk9OzX/y50y0W9XoP29QuumvnHPYV+m95ZFPVZIK/iSIE013CileHxpQQvblrY8XWYRIIyjpSAIhQyy8CSKvzQ8V6JReQfNAoR+LlICqgMMMWt0WzKPZPJWKgbo5E8bwJ+czGJNBXXoSGJVjJaJcXAUs6j4pKHm0ukEK5J3VMFRgilYvA+DTqEYnI2kQhKGlaKybLR1MM4TtK3ktNKf3kheiSpHz8iYnLzafSSrVBrUvFJtdjlklcnJUFPDZwkjhFP7DtJ6RpS4m310JI3yjgqnZRtKLo3tVSQkgY9EkOeJ3IT2cUCL4EXXG/g9XeuYzD80eJcuZSfff3/XIGlhS4ee2RN9kEEuDSBvndDweF9fFI9gEE1DJr5b/7l/wWjxoi8mU8h4rIjUn8Rcbnl/BQwC+Cub2K8YWASa3DLMiqkVJTpn376GQyGBwL4FCEII2KQKUWag4M+VlZWMRmPJeeU4lS9Tn1nG2+++YYketfculg/CO68RhSQSP8SPQmsHBEDzkW0Z5B6EgvSU6wjwgqXMjQkYSSRHkRmxcAUx6JVTRhduWBKYyUaKkuoyJp8iHDCSq9U66DcGBxidZcslYjOfAj184zctFw16UueU/YtVxRiK9VEtUxFT1aRJzwv3L3sg8RMWhHxSpdJlCSou7boOtIbuWbKLCIDumWioEuFRKk0QpluDU8/9TB2dvsIo/iQ2KlH0GpdkgFi8qGqoMZZtammxDI4vEJxltyJP+hGE6JQNqrmL3RCDV4ROoEknlB9V0+4d0YoT2k3YGdCHg/Xk+1lpJVb6b4rbH/45Gq48iRFS3m3Irb3XTx6m1yo+jhsdaTf8hwndjgLda5Ws7G42JF1kIg3NhEpiMSyfHZ5e/VFb4GonGV/PP/JVlzRXOlmoZ6jBqu2r4BdAEGuwTkS68CQNvrZgtCHbVuHOgpD8Tx/imZDpbfxGlPV+v09qXVUz2vC2Tg2snnqEvJRcy+pTjkVsbGID0VC+RgtQS5HoIgCTzaBHETMLeS2LNgUBLJdyqeo5iFcmwhq8I+J4joM0Um52qX5vxKvRCks7yPy8rcyporoeG+smrhleJ1itRh2pKEa+73tVpbdw+mVU6u+pP/yR3UPwZNZM3KtJArMENJtE5auwyzNYRy7IJaSrEUqAAkF14jIo2tiWDpxfEn5Ytm+uieNFTLzoZzjIYJyMGq03H82J6CRQ5Mo+x7TpgxxeUkop/R3eEtJuZQBjn3K7dVkpTPVu1wRvFHhlYJkR9pX93EMlDY4JzkWmFAoqUZZjp99y5/6TaIdZJrEalPMrHBF9asQVt1frjq/qg7lGYqAyZOk69JCL81k0aQ5kTKIUth6AVuEM7r9GDpaTfrD37xWeVXKpwvR/XDLD54xNOTiZDtiMal6+EBbItZkOsLz3/tTBUil+MiFqIIJiEjkCu+887aIq/xNwwf5EO9nTupRAFWPUEAnjxVk1JFGIfI4lioMLFTGRZFFL70KBpUucW2US14aBBSDUr5Giq0Zfa3MWxWdkMEA3NOSw4oAofQ6pUpyHJQGyC0UEN1bcx4pSOFY+J9DvQ86UnWboullM86Lz1G3KAJzuKzSTWl/pqhNJZMfcjW5RRdOxx0lUOt0IYkcoUbDsQZBBNPKJA0qp9uGMjEJH0WGUgdTD+dvCuXCkkXN4NLd+yjAZYMjQ5db+Q+jXZpNV4CJY6n2UubFvWJfMuYjnZaQSiIpS1BBp8yTqCfQr9ZHpBm1VpXWSlhRQSdcZe59ZXUn4c5LKYB7TKmnnIlWIMhyPLwA/PzZe+qaTKpsUg713tQ/6qiaRtWv2lXVsrzGqpiTGPg37+rY8xlco9aO+3K0+dHuS154dDgMXDh8ytG2944rH6hALSG3nMKPuE0FgCtDh3QkbdUNauFV9+Sq/AhzMpVhR11Rm8GlV5NRsy6fzIuycTSE6HoGn3mbot/Wy840TKIYWqFDLzRYWi6wyREwAICbKWKjVsAQ6yevVH+H/hnJTaX1lMSCQfgMundKfbped5UoLVS8vL3cHI5Z05TvkDqtIZzm/n2hf1I4GuGwtCYKoSqTBDh3EjRBYI0BIKEcO64jujCBU4nnFYKyPbHgHkA6jokgiKXYG4utNeq2wk1WVSTHpZ5Ku0JGYC3XmESsWgrZDPbHfWcLWUEhA7wk4rbEZNOYRuKtrosQLpxXiWyi+ldiu8CbwnRBThq1GHBCFYh2CtGdeR+fWSKqPFfBhNqnEkoYUioWBMJJJvulSZgpkTQTJK2mIghMRmBo+OULAT6/nMGLiTgyMbHI0xieSKwF4UJTYZYVQB755kox4odTpPdC/NdM+lC0U1qyTcMpMIh0/O/vmKg5hmQoKWpRjepIpzwUwxGv3fvQRfPJHyJEyUEFaco7BCB4LJtRnVSbJGsqm6EAnvK1enQZiqdYqkA2kYSczPcnJaeoyAw5lBJlOWEuMrmrZVVGJx2abaPj1iQplpuXJdSpAJfpY1MfWZLAypkqFsPhHExdQuiIHK5lYZqEKDQDLVrMaGUTjkkAYeYLOTJ9oDnyJDksK0orq+uqwk40ahH4+Wwik4B5XsBxashoXpf10ZgWLtd4vVwhAXxyYloFKz2z3qjLWKlrM9QvjiNBJLE8azpGwwlazSYa9TqCKJDMB4rnnEvCuRc56o2GfLNkKkVf+k51AiKJBQFaEtQL+F6K0PNEZ7QdA7ZrC5Izsb1Wo/6v5qNouOJoavQqgpAIzlpWw0FfqmiQ+E09H45twXFJfDVlWNN01R8gc+WSGJYpakWSRIKgbr0u85pIfqWFgLCg6XDdmkLaQxiTFZZxEoRUmIaCSrrEKEUwFTDPdNl7ulM8zxcCy/GSkJNaT2PujYZLGxHe3gjRrhnwoxxfv9gUKSxIcvTqKrCAj+YakElXgszWMEXN0tGpG+j7GZK8wExduRlJPOOUiAvYliH8P5pOkEcBGmWUmwDpB/455KBHcJQqzCd+aBUUXxpFupLS8qbDftSaqX7kZLWIdDXwuAqXY5NytuVT6Sf7xjf+Ni5ceARXr76nRJUCCKNAjgkoYcBoIwturYb337+MK+9fhiVlIgyJuNEJnHEiaWtpkuD06XP4mV/4OxIAwTIpY4k0MsQ62u3NCOBPpxOpSGjU67i1sYEXvv+XsEwdHVYpjDLERSJIZQlHy9FsNPGP/ut/AhquNrc2BMjPP3gR77z9hjj1+Vzf9yTYgDrYCy+oaBwGEXBjScQIULJ+Mr8If+/vfkv8c6wGRwQdT8ZYWVqWfmh8YTTM+++/J+6Op5/6Avb7+2A0FpGfkTt7+3vii6NxZnFxAXoUYPPuHXz/+e9Kehu3gonyKlleLT05ThT6+NY/+jVMJlPsbG3KGJI0wplzDwqR2bp7By/95Z8hSRPF3UmgudsKU4Ue58jx937lH0tK32gwwGh4IBkYrKXMwBK6x4QgGAa2N++K++fiI0/g+pX3BDnnF5cFQRnwwDWh5f7suYdw5cpltFsd9A/2hHC8/sbL2Nq6K/svIEMAP4Q9LihdJSrEkDCaRpFUzfCngRA3WvczsjYh8IVwyjhpQdNM4XyTIBdEW9+LsTZnC2Ld7Ef4/VdG+PxaHUmmEK1m66hZGjZHKR5ccrA5TDCJcuGkDNLyohy9ho4gLrDYNvEzF5uyXrR9+PtTaCbHkKnEsBL2P/RFs0aFjyVOfXKggqyyjlyMRKWeUvZ8iJflwWEUi1xXHJNRM7x8iMxqqw8RldwoCHy8/fbrePLJL4CRR/y9vHxRqO1kPIK9uCxcoVFvwPemgqASgEyxIooFaMmjaKKmj1CoHYBmswEvDPHlrzwnlt6b169h5dgxQTIaNuI4kmckPF4AACAASURBVJDBpV4PV157ERqd/roBK4sRpRk8unw0DS3bAQuWzc3NixX58rtvwTJMcfs8dOERWdXd7U0wTSiKIwk1S7/3Z4iDUICWMcM0RHEdBEkZFG0YIJE4feo0zp19AFeuvCvZ+nXXxRzrpvb3sLS0In4/upvOnD2L3T1VrlHTC5nz6sqqJP8yDJJSyInTZ1Gr1/Hi899V1kA+jyI996PaLFYFqLfgunU0mi08+NBF3L1zC0urx4Rz0wZQrzfx8gvfQ1HEsm+ksTQsSRcSeMFgBYak7YqEs7J6HDOzs2i1OphOx7J/vdl5caPZjovu7CzefuMVWG4NDzz8iKwPLb1hFOLU6XO4feuG7F0YeFhaWBK7xNKyCg+9s3FLCKKIehQp01Q4oxROj5W/leeUpMWcTFUYnVSEEg33ie4/fmgXYGilqA3k4rqGq7sR/vx9D/uTFCdmbZxfsjHbMPHQkipRQ+Rb7VnYm9BGoQJIXEvDXMuEY2WC3CxwGaQ5Oq6B63sRrMrSw4dKPS8dBuXnTIn893BBhnX4z6EV9/AMoP3qFxrV1h05feQwT5Atfg55a1WKV98nzh5pxsMKQUnjpFNhljyqhlTqSXJf9VhyGFUTiKZ6LrTSYdlWBzkTF0ZEvpx+U2XCL7gIUSyblesmCAi8NtrflfYjOstDX6zM5x+4gNH+NoZbW5hZWkCRFWI5btdqmMQBUs2AreuwGKQgY1VWSgJ2KuFCGuIwFKv0cDyEN/XEAi0hd6YtllqSxsotRJ2ElJ1cUXQfWRtNuD6JiAQeEGDEZ0yQoQ7FX0ovlTA+umnEVVJG7Ei8MpPqNUnwDfzg0KrOcVKCbRYMGlDrp/pit9SFK85drrlhSCpTq93BzNwC1q9dlTZuzZX7KRoTmImUsqdiyFFWddZMIkBOp56InyQ7jIaiGmCbDuKEIrkhQR5Ui6ijESH4l0QJhsOpzLdWpyO+gbzIpJYTXTsinrJuFd1mtiP7KWvJgIIsRRLGiKNYfOHypgNJkFY+dAWKCtYUh+Wx2kcFm1xl9caE/+nnXTy6rCy5b94J8fbdEHVLFzH1uQtNzDToolM2NdWv+ldsbOV5rukhtyshnOcYd8s47jgr0HI0/P4bMX73pRCdGgM4M3QwqrDjaNdyXPlB//F/93+isNuYn5uBGTJV4kd9aCDhQoQhtCyVOFJZhiP2G8JjhYLsSpaGJzhiXuH/5WMq6qUeWV4XANaRxEwJo9megQR8gNpcAl0cK3FL02iqpuicS0V7IhQBaTwai4ibRwqJ9YyRJQXatQbWr74nulaTOhahmYsrYmaMgECTBBJUoGcZluoudqNIXCUOE2oNXYqUEaniNBPOE/jMkidXMRDFMWICs+OoyvtxhJpjwWStpCCGzppGLIkRBWg1CzF+KAuvCiLgcEQ/F8sqjR4FUqmkz/kTqJT/kkXRuI50NcpaCBFQ0okExCNHmJHjadCTXNlrZDNUP+U2iNjF+sWabmE8mWAwYKFlC3EawaQbgJlKkaquoWXMOKIOThGylJ7EkG/AdBxs7+wLUjm2gVarhiQh0QASyvQlYVV+AyVNcciuywoEKumhemMA95mcnr5aARsJC1RvExC4KeOSJXGAIxGjG8elSQ4AiZvMjwY/USOItBX8US9V0Ek7N8vcEFFIjOmSf/qEjZ84U1ampI4c0zqcKcIinbLrylpfSiMlkIvqIoCs+udhGQMjZWz4DMV8CsQGCVmOUKOFWW760D9i/TbUMypJ1/zKeWVw+VDr6kQKJOfOIZ2/gDz1FTUsGOlC/FG1PdWilk8txDul7hbM5XnqoHyk2igR88o58QyBggAgcTOCmMw64aYR0CoRma6ZkmqxXwJKGMIbT7E7VP7VdqeLkDWBkONuEEmcbe7T4GFh0O+j5zhYPXZchZ2VqrDEt5LS5zmiLIWpWxj5EfwixzAK0CwyrHZncHdnG8dXj2Pj7ib2axqUFVegQQiG7rRhNOpS18jWDTizC5j4AZxwjJqIewXmzASrc/OIklS4qPBMg0HvyhikOKmslhLFSlpLJM6LMg+mgoWStqkgCepJGbqZp4iaAJRaU64rC4RTGrFo+JL0tVRcPySWXF0iIY/FbVFCBu+goWw4ZiC8JeFqBD4pZE6OqqvoLUkTFm4ruK+yZ0pQkP5lvCXbKa2cJFDEIKHf4hVRxkCOk0BPA54SKpQLjGMkUMt5Eqk0k4qS04mHlNFo5NBiCafBbYogCgVRaQkmR2NkFlUKGVahI7BMbGY0FOUwMw3ROEbKhH71WDHKORb9xrkwixymBGJIEEGJFwwgqIgACZjsnfAiZYGm5DROcjR7GT7/YC7i8NQf4mLDgVV6KysUq75pvGPoZt3S4JVraP7Tr7Sq6x/9HQPR134a0bn/Cll0ID5H5CqTQoPyHQpTImUQ14IOndYubozGIAFFeTUwcEABRKHlFMcFaIjO5GZEKiIoKY7G+rbUnQrFscm9eKehKyVbxFxaSCcT8fXlVkuyWkzTxfrrr6LQM7w9ChAQoPb3UG83JGvm4W4bJx97mAoDbh3s4Pz8Mm4fjLCX52hbBtqmiXkGY6esTWqiyFLadaVI2MH4AHMz83j/6jW8e/ktzC/MyJgSitmGgWF7CQ3dgpmFsHUXhe3ArTlIxwdoLi9iEkRYMBNcWDuFyTSQ2qhRlolluNWo48TqMlNVZA9SUnoiJCmSECgiD+l+oYIOhOsKvRMgIiBZyLAc83UYymBCC7Cy6xPwaEyzMBhN4Vg62j2KlgR0QgrXWBgQRG0QBKW4yXhfBxubeyAisBIh7QXLK4uCuBTpRS/l/cJpuIkiDyhA5x7yPLN3JEyyQJ6qWlIiRYkWwMJulSTBcbItRURKP0o0T3OmvJGzq7xKImsUBFJo7qA/QJDG4mFggMyUhdqoF0sQA1UMA0Q0lsMkh6a47U89vLAd4y93dUSiw4aIUlvSBSkJUNftNFwpf+pHnBuDZmoiRbkO3XoFLEMXlxW/ucYkjlz3KnKNC8DiBDQQ9pZyfOsYMAoO0D9I8MunAKYvK2rxAZSjpGK5uFLXMZwqDDV91nT8ER8t0TA96CPe3oCWsjYuE6e5OYYEchuwFVuTIHJWt2Nn3HFSNfkhG6UVrEGrEFGYuDQhgCi9i1e4cRS/WBuXk1TMntSVv7kIJMFsp/xymh9C5xvY7Bo2t7blJUvkqEzgTrY2ML98En3DhZFoMAoTQ2+KB1MmMduYr3UFfsMkxfooFCTTgwm+cmwRL+57iNIEPdvECdfB2lwXcZJiPJ2i2W5KCleWchy5iOWeniGy6vD2djBvG1xjFMMB8rSFvZ093Fy/hok3xqMXHsU1fVcqvbXaLal6SJfG2HUlqYB+VtI14STK5qfYkngeEwmo4IpyHQka9B0KF+KJPEVA0bxcc1kz6Y37kSPVE0y9ADdGHoy7Fmwzx7GFOeEuLHgmwg4FI+mYj2XAf4zFhY4Ye25uH6DXa8A8GKLb7ck+cS9En6b/TkRUElg1ZBIIIoWWa0LwyJ2TTHFNIoHUD2YpmlQFuZM8k7NWHJTiLLsENXzRT00RPckhR+MBhqMDCfqnLpoRNvhiLZ21aR3hljSkTXwPUy+Cv+cji1IhcEyYF+4g7DKHTk5oaOjWDKkKMvWo8iSSCki7h7AUiqc5rb4k1gWKhPOyJbOo5jCbCLA09QqTII6FuxvCdBL4YYJIy7C+10ccmgiPKSKl5vYBxKMPWnzuhHn1p/JsPtDu/p8atNiHRr9UHEArPHFuU7+TYG46htlZu4Xe4imCgog59C2Km5lUsYy8ySSjhNT5KAUhSCpKJKAnm0IRqKTAMhhFTenFI5WmQUIBlIHxaISbt66JCDK/tChA66cJdg/68C1acT20ijqMmIjbRlIwRjZFx6mBuZSnei2c6TalYoQfN6Rcy0M9DdvTKUZFikkWST2jmxt38OTFx3BlcxPTyRB1R0XycG6u4eDc4gIO0gRtM0HNMlFb6KLRbuPY0ryk1QWjIS6cfwhLa6dg110E06lwCQJVzXVk3JQquBIMrhCxTQLuFVHjMlAc52pJQD/FVq6rLKWENKig/4yEUHEPhW0qMooi/PLSLEzHxc2NHdR6riRKd1t0OShio5aa+8VRqGoM0yTFzMo8Fk6dEImIbotEYxijEkclfimjEUfSbpSPWZBU5b0SEJlYQWNbXEZ7meTohaZKmXK8xBlyuCyRbxKXXAp6s19mySSI4hBeEGA4moK+0jiOxNXFaDGWPmVGUxL7GB5MURQmRlGMwXAsY+ZYGUdB6ysNYZlOZDZEUqMKRa/BTqwhjli/2YTrOHAc8o4MURLB0R3ZD9GtSR4p6VAqsCgtajBzB7mlYRpFGPshopDhkhGKxBfjXRwFGMYZWoxX/zgFVBZf/UMdnT5b+T5y/iMPiQhxDsQFRR5TQuIc00ZuJKL0FowL4MIfiqOlXoZc0qpIgUTUIUeV8fFf9VHgJiyjDFAguEkr4SIK/HhKhYOpaySoiigwdMO2XZx94AHMzvSgWw7e2twSkbTrNuHT4GE1EeUZRmMPa60ZTIsYWRTh9t4+zq2s4vpggrteiAaTlS0LKy0NJ5p1nKjVRJRJabVkFYAzZ8Rvx3KinVZHRGpWpmeET2HWUFgO5udnUUz30WUScZLDhYVmpwmHMcLNmhiPuIaL80uImj6mzREO+ntitRbkk6UhYihliD95SNFWjhU9L9ezOkdEYLQS15T/qJaKk7EN/YTqGg1Ns8065i+eQqYlosuRy9FSSl830+PoH9QJkDpzgDVkNBJBR8KyE9I/dTlNdFk+lyIpRVghFhI+SGJx70PuRlIbpgnCJBIjCq29GhJ4USBIRtMYEV8q/wcRArHUqllnSS7umCD0kJRctZAkdQ2WS7HbkBjvg/0BhhMfSRbDccn9KeHxTXmWBAs4dJ9pKeU9aMx+YmJFnsizPEaiAXAsW/z9lOLSOJPoKOqvDO5AFiPn2tgWTIfIw9VQ7Wi/G+Qedj0fNd0EXZ6mFiPPIhyMp5ikCRLTwLGuI0n191bnw0fM1lpcWMBc9wHoeaRqJn+42b0zVLSHfBmv72GSTLHdH+OhlSWMfB97uwOcnptBappoaQ2aFUT5pOGCG6YQ815flTXt8MwhUFEsUpz2ECkPGxEKyOgJZQJportSACZPaTbrMOwW+qMBQrHgsuiSCbfRgh9O8PDqGcTI8d6d6wj1HLNuHdwmc66AblEkspF6ETaiGDv7A8zYK3h5OBbHs53rONGycH6+gyiIkNYytFtNqR5AXZmcPCUlz0ijItF/BnfXscLXS2gGmrUaGjUXjXoNueMgjkNxFRDouDp2Temp3GoeIzFUNg4NJRTjC+o31NE5V6KJUVoXyfGqLBleI8eVxRT5UlCk/Ml1EgspZZsiUdXl2Fvp8Cf65XyWbgpQ07oLBhnopviFqWcKyxbNTp50yMslFkcyiHKkUape8szIJ1FBSGgYTK9yOD3fgy8vek5ErSEHHI6GEv1EEZtztSiq6oYgmSosp8MLY3iRyjmFpqr80x3hJzHyiQpI94JIEJyqzbkHV2A6Kfb7iVjmszCDy0SINEezmyHwxhgOEjR7rAYRgQYgGpioXoVxKK4iy7CEODPGmLBEMZ2MJgx9pDHrX+Vo1jQsdJuwDBd3+gMM6Z9lLDiYRG/AtguMxjGiIoLmaGhZDhwwxtz/RC5KzimW/yT9ZAQV+YPxka6FNDIRUIQtDKSxgbRWQ6vTxl0/gKVT9ufGqiBywS8GjJdB44f4VgLO4e/qQICQBg42IHZz03hR0WM5FAWXRieSr0J8ZZ4X4Po7V6GZFubmFyTtKtMKbLGI1WCC0JsgziM0s1h8nGmkkofbbk2kgePNJi70ZkTcnRC4XANP2hYGfoJ+HMPVVQbCzv6e9M/q94PBPqB15C3jhEBdT7F79TIyzULf86Hv76PbaqPX66DVaYiVut7qotaow2bMsNtkbQS8+fLb2Ll0FXMzs9gaxWgsL6CxMIssIfWmYSNGnmQiEWiWeuWjQZ1OfJv3qhcKKaRaTnGHbI0oy8CCssC2OsF1U3HFtHyKosElFnGUQEj0t8V9kmuWZC8VLLZNVaUkuGL5k+7FhCR+8TQNEQcRRqMpDoZDCT9kYgV1U2U00eWtBQy79PxIjCcsipWkfLeOL35ucihGBlI1ILLajQSz7RYaVl24COfRH3uSGseoIKbjUcUiobPI3zISMROdpov5ORdJ6iE1dZgNQ76Hux5cR8PW9gHG0wgoLHhJKNzMduvwvEjSSOgSm226KqbPCFFz6jK+KMrkfT80SJlmjpqmoWHZqJk6DkIfU4rrpXpCt2XTiDCa7GEapdCsDG5eoB4HWOzURTUTUJdN+eh/RGVUyvgnIygzPbpuA/VaF7T39iwbLcdBc3EZs1mAGcfGQcZSm0zZKmCIEVEBCXUlKuD8iIn8yLecO9SUGYyurI8KKUmxlAWYWEqRSuGqcc9dQ2CEDts1cfrseXR7sxJetj4YiJFgaWEB/ekU+0WCaTCVcZGrjbMIaRRgNBzj1OIybgxH2A98uMjQ0HWcWlxFCxY6LQvn7KZwmizXcObUaRGt+XbkO6YD16khNWyEvi8vcgr7eyh0VypDsMz/fHcGDsP3BmM4pJ58axzdU9DgOhZe/rO/wl/823+P0chDXJiYa9Tw1YdWsHDqFJa+8gyaM4vCnSPPh0mxqmYp7kpNNE7Fkkns4sqwQoOZFqL/CQQwSoZPEkOctBBdjAKIMrwpMZUNNCYcmJa8Hd1w6tAsCzo5KH0BYoujmEjfhorE4f1UUcWyKvmKFlJdvRqjP1Kv+BhHvkJQIjbT/iimp5n4qQO6QWiEobVeY2C+LgarES2zUxN+QBtDhnozQxrvi4hq2kCmp3BsFzkSWBmDSgDD1WEUDFxhorqGdj3E6OY2BmGILMgkZ/n21hDTEavlMcuG6WU16AYRG7BrNuIkR5TkaFg11GmXSHIEcQjXDtFpsexpE9MwQpwFUtLU1TT06g4sW8eN0RBjLwT963EYgapnr2ciDKm7qgIGXhDDQg0zszYadfryDwXBj8bOD5z9RCMRqSDfMMawLNPUsNBpY6O/L0DTdV0MQ3IZDd2y4p6iDoJOH3jUx/wUt0DFLRXS0TqqTPicjeqLKCt6Fa2+ouYS+nQRI+uaJZEtUbirsjNQ4OzcEqzdXXhRiLrhYGTqSJCibTnINB11y5EX1DCU7+5gH3uTEVI/xEJ3Bi9eehMbd+6g8AI8/rnH8Oijj6PfH0i8K/NYqcDT4shNSlIdZmGDbwnP6BrJCwnOHo7HaDRqEmTfqNXhxgaaXZZncXHp3TfwP/zL/wV+oKPTaaBVt3DSBp780insbg9R7O/COv8IzDyF2Y4FMYsiVQkLugGzpqGwTURT9TZzqgfCRZgbSi5J6yqxU9xdXDkV8K9CyQjQYq2Qd9tkjg3TcqA1moxgRyFAzHu5JxJ1gDgRB48YShgdRe8CXVH8ox2AzVhK1aORxptif0TjjIphlYJzzPgQ3ZiEOJRACBJvUhFKA+k0R+AnMM1Enktin4zGyr1R1+GHjI4ykSd8JQJvs9GqZTgx38TGMMHe/giBH2MHKkJst59Cyy0cX3VwcJChZgNPnGoLx3SYYRImuN5PMQz5Sg4N8w0Lsz1TrMI0HNIw1HQjFCnDNjOYmoE0t4XoLLQt9FwTkyyU9VtoNrAwm2MiIYhjmInF95Ag8huoOw62djSMIg0LczYGowHSGUiB8U/iohW2mLbkFlU/Sd/v/1AHIpfK6y5ij6IDLWQBimAMU+uh6TaFA3UsA13LFSfx/T181C8V+iWVJcVhTU5AhKNIzLQhmuhj2KYroitDxmh2Z2YK9VuKsJT3KQbydYI3198VHZb1iqg30JT+8vp1aFYbxf5tzPV66OvK10XRixZN+rBYfWFxtoe1lWUxk7MGT5CnePrBi3jg+An09/bllYZsz0ilU2sn8f7OrgSvd7sNFWtKhLUsRLYLBijMzc/CZVEqFs3qdqBLwAStmKz2kMgCv/32ZeyNPNSdHm7tDuF7W6id6CLxJnjo738VqXOMsoG85IkZJqkRif5KsV5C4/IMhuXAbjZEzJbKDtQsdOUWkHWkDd0sXVhcU3Fh0PhE6qbqJDGgnYhZ1Gv09kpFG1pNabCiIY4InscMwyTHi8XpT2JAjsj5SNhdnIjBxY9CxLR4U5es2SIR0S3BaCG+D5NuqdBLRMpizXHHromYmibk/MpAQ4vszIwFh28Ea1rY3A4lYJ/GmFbPwkLLRZHoGOxNEXkRXh2MxNWV5Y6s686BIortpjIeGbqNr150cXHNgh/nmKsb+P76GLlR4NkLC4gCCzd27sJxc2RpjFrLwPGOCzd3MRrvA5mFOI/RaTvoGjbmF1ZQ0wJE/hQDP8ZyI8fx+Qzvbg1xEA7gFDlaWgdffqKJplXDdD+BHsdo5QEm/hA29VGN4ZQfhRMffc7cGCjnOGdIwwe/qctUfRhpiq3dCUJ7B0U4FJEkCFNEsQc9SOA3Euz4A+QMJs6pB84Ix/0goisjUGWeT5BTZPAChARaApvoXBHS2IOlZRjvbKLO1000W+IWIeVmtoJh2jC5uYQS3YVhuDh16hG0ezOEJtx56yU4poWVRUbBxAhHFlIaaVotNBwXCSCB8Hdv3sCjD17Em++9h9t376Db6aJVb+CBs2dF612cnceJ1eNSxoNzeeiBc8iTFMdWj6G/v492qyUm1siPMOAb2SLA8ycYHezi1LETqNsOpjt9iUmdrTVKv6KyeHJ8s50Gvnq8gT1Pw19eywQQ3/7eS+hdOAn94TMikpIYkWWYZhkeR7dKGiONQ2RIwZcvM3uDcbFUJfjWNsql4uDSVc1dicRKSADLaCFBcgaKm9BqdWQsJUOfdpigiHKkSYbxaCrcutVsIItT+KEvBiCKpIzMoWhMzsc/CSpgLDVf3Ey/J3U/jdb+TN6V6XuhROPQbWQ6lhAK26a7gy/bymFbQN2wJSskKXKcWpnDqU6Bd/d30J4hFGYwnRi9HtB2LWzeHmJ/SNeMioF26tQF24jDITqdNuo1VwgIddy9iYdnHnCxF0a4vhOjYZl4+VqE86dn0HJ7cPQpWHBjey/F2rEGOr1F1OJdLHYmIgqPPcYVF+jM6EiSCdZv3sE0CrG2YmG4O0TnOHB3EOCNazFqZo7ZRoHPf87GeDDCzf4uIurJ9QwLVBdgIQ2UcVBMBRWCfTReHp41//s/GikfVRTDaXYka4OZHrphlY7jDH77OwjtlyTxOeabtSXUj9XbUqGCFVeik/i3/ttfx3PPfVneHizIXoo21FmMJECRJkAWIUzGyP0QOReBllRqRzljJXMkGg0jdRFP6bhlwjPt2rpOyhyjsHwxLI6jRBzdWmGgT7uRxmekcK0GTjYcaKMpWqfPIIkLDOia0Q10HAeprqN++qyIuOSu08kBpt4Yg4N9rK2t4s+e/wsMJ1Mp9vy5Rx/DE5/7HO5s3sXx5RXEktysdKosJ0GJYRs6es0OoniMGl8AbFK3iTEKOM4CWchXCnbFZZHkCZYXl7DWbuN8z5DXDS7WdTxxeg45Ytx44TWcXv089KWUEKwMPzRAkDsyAL9EVroTJE7XBpxWgSIKUfgaiqyMQKKeSHSVaCQLMOhTZGhVhoLOdpZjMXWxULJkjJZzX1MwOmd7dyJcc3GxB93IEIex6JD0+bCwsq6x1i4VVJ2xZPCTBAdTirc+giQWZGUwPwm9VbfhkORlDJsLJY/VsRM0HEoVdbg1DbZuYmPzAGGWYuIfQF9oYXN7jNEkQ68DEX93djVYhYl+v5D3pRq2iU69Dcuti+hIl4pjAlHkizSUUJfMU/zfL3uSdbS8MION93awvNiElhb4f19eh+/to+OyGLcuPv5mNsBSu0CQjtCat7A1TbBUt9GtBbgxSHBtrwFDc6BtAi3bQH/k4/uXMwwGBc4t67Bz4MU374rfdDDSYDZjzLR0aA5zd6mtEUG5Kx9kX4f4+KEDkw5k3bAxd+w4Wt05eeHsdDLC3vamiDFi0vY8jHzqbTqmfiBI0ay7Qhlp/FFJpRp2d/fxB//Pn+DnfuZrEqRAClsUDNUKkGYRci9ESkpN14FtYRonGB9M0W7XRHm2DBu2YTG4ShKx7Zoueo5Y9kw6i/lC1Fy4BcMBScxt2xSiojGW3NThkCvkwFtXrsLOQ1gra4jDCYwoQFp0xWdHAwVD+aIoxLGVFaydPiF+1ySiny7Fz339ZzEaTzAdjyVljY5yPw7B3NLdfl+CzJtNZm4E0KiH6bYUJeuaNhq9eYn15cuaqENyMFt7e2iHGRpzC2jP+3CNEBeX6+jONDDb95DtjJCEUzzy5BeQN2dEOjClMoBKPldJhLbojsptkkpUC8uYiFuEPkyqiyajbRK5Rh1eSUK0iDPNgkoEI6qoMNICnCL1pkgnnDMD+i1MPB83b9+FHwJ+GOD23btotQy0mkxQN4Sr6lENluXKXlBNJZcYToYIfBXi2Gl0MRwPAKsma2yUgacsDsdqEI0m95c2A0vcGuONAxz4U4n3ZbTP/nYf768zSkfDaGwgSjJ4AX2djJfOMNvrQdNjhGGMRj1DkEQy94WFJgJ/CoNlT2OK44zosjH1aVCLEW8foMX0utVl5LGPS9NNzHYbsh5WVqBpppjVxwjCCRozLE2awZKXdDFJxMJDp+ewNwF2dnwkJt/EbmP9doqrN5lza6N1KpJ1vbptYXdAQ2CG08dyOJoF09cwSWO4tjJ4fggLf8QJyQdNsxiNRhMLKydlkruv3MLauQuot3uIAx/azGlEdg/thguPjvk8l1zAty9dQo2RGcx2oV+PKV8Mus7o6/GQpxHyhHWDUkQMy3MbEnExGY2xtvYU9uLrOIjvoD9KMY1ZlNmCEXlYmeshTmiMMVCzDSw0bAxHrP4XqDZEYoaGSA1bE67JlZZT2wAAIABJREFUMpMG62WoxPJCQ7fTQnSQou/RQR6K1dGmrytLEMYRNm/yFRMXcemdd3Dj9i0p0tyu1fHg+QdF32REybHjK6JfUnA8s3pM9OuVpUXsbd0V/bfGIAhvKhE5/chD09IwHnuK2zNfcncHs705pO4MjL11aC98F+/+oQcvWcSDp5YwOthGvVmHbQXY92gMSjAdTzDHdK2CWfp8zYLSGQFfRG9G24gFle4WGmu4uSTILLbG9ZXSPIwmqqg0EdVU/mkukZHQMSm6bKF5sBz6nzPsH/jYHSbY7o8kPI1ROPv7fTi2jk5Ph2tr4Mtlg9CGWzPhGBb2+xMszHUw9X0p4dntdsQyOjmgdb0u7xhhgAFDF2kwI1wMDoboNRzY2QRh5MGfRjDyFDsbKVhNpllzsNXP0GwYmG11Mbc4Eanp2nUNqd5AreVC01V+bsaAgpSFsxOJBKJE02swDtpGEiRYbRo4sEgjTYl/XerY2PL3MN/ScfK0jV47w2iPfuAUppGh3g6QFxNMhi72+i5ub0xx6w7w5MPAjB3gqw/38KoZYBqEuL4NvH6DvoYCj5/LxOe7F+TY8QpsBSY6sDCzDzizwDiO4ec5VjqEpL8mBxUOKLVlKTvvic5FcWw6HqDe7EpYW5jtoL3cwmgwBB3OfBswA5ZtFnUWqyplbAJEgTRLhLMwbCqlmMNSGrPzGAyvw0hc9FZnMdgbwNLrYiXLjAwmHKG2Ph3VCfUxHV7kI8sY7NzDqW4P7165jsl0C66tKHiRkbvo0OhTrLdEvGi2OsiKAJ26jYVeF31/ioZLzpDANwnQuUQMMaqkdvqMOKg7Mz0shnx9gYfhZCw+thdfewXTYCw5k49ceARPP/EUtjZu48TaKUR+AIPIEwVCRRmV0m7XYWsNpJEv1mepEM5g+ZVVtNIQp/AWTvk/APpD3NgF/vzlTSydfwCT4QauDgqMfANR5GKw6aP3tZ+C1ughi6cqUk+MOoxTpRRChz2X2pR1z2lBRaLiYZlFRIOPaSANPZiszscPdU2H3FdDIeJnBD+eIgsS0QOLnPG7Ona2+nj58h14foGdvQPhbkGQisTEgmCsyPj1L51Et1fDW5f38calHQHsbtPCuZMraDVqGI8HYnkl7cwLuodqmE4DRExc1215Y3h/f4pJjfpIyuAcFImJoc8UwUIsyEwKiCTtsIYzJxKsrnoYDnP85OdtvHIpw5RqkZ7C0pgXmssz0zTDpNBRN4E7wxHm5yycXGUJkwJOVCDWQqz2HKytAvustEAebheo2wY6ywPEFHEzUwgGE6tZ7uTVqxNEKS2uBoaTCBubHpbnJogzGy9dzrEzimG7Br7woIYzSz4ubRTIDQd+ZKFhAA493Rb1/hQ7fQutHh0mNNYJ2Kq9+RT/ml6sskb6b7yG3uJxjIZ9iUlkvdSr19YF3313iOT9DYn6SOjMZxgYxSXDRBDRkqYyDZj1cHLtOBy3jevvvYeFpbNwWwZsi1ZCR+VrFgmGO9u4u/4uOqaBfmai2aija1ryXgy31xMfXsu2ENLMTceqZovrQGIqTRu25WBv2IfDVwvEGSZ6C+ZwG7UoR39vD8cXevBbsyhMB8XdG1L2MJLIJl02nylTdB+FQYSl+QUcX1kV8Y1xECQs3/iZr0slA0a6SNFtvoWb8ZmGKXGWrHnTabdER9dj+sp0JIUhzmrW2mm25yTTfjG5jBPTl6EP7mBrzGoPDdzta9CiGJvbU5xfW8b6aBdX+0OcnLMkmXztJ38CIRPXWd+3DO0Ty7a4PQj5qlCWJDgxAUFyNVXBNaa7mY0GKIZqrHiYJCLtULKg4ShOQgz6I9y8uyn5vU69BnIh2wkwTTzU3T5DSDGcbmE0SuF5LOaVYe9ghFZXw+nTLBdj4tVLb+DOFsuaaNg70FAEMZ58+gTGY1YQJPd0EBT0b87h3OJptBsd9Pu3cHl3iv1+CBp26DZyxWXFV0zQN2mgPzhAHtMYyHhYZp8MMT6IsTuw8chDY1x4IIKWL2CYG+jv+chBCSBHGjhot3K4eoLtfaDhpohGOkasy50WUiFjvj6DJ1bO4srOjiDu1vAmptYE5+Y8tGd1xEEXux4juYCbWykmUxN0ybQ7Gfoj4MJJDa6RIAh1nFvT0NgusLYMnDvu4a2rJrZGLmIWFMhZQFxDz41R7/D9Oxosm8YwOpKVYaCSbT4FfsL8+0+q1CMS5jTdB07QSlcDiroEF+h5gs2Fp5AvPobp+EBKiMx1W0gi9QIfv7AQxAFma00cO7aKb3zjp6FrDRRJInqFpZkowgj72zcxs7oG251Frd1Gf/Mq6idPY8Ccw8lIDE7z9OG2ZzCmr820MR0OcdwdIs+WJFwuClSmexQFaHc7UnbTZRaB7QKNFuy6gwkjbvguRomgNDCYemh1W/BSDYzCIZdmEeudWzfx8IULuHT1Cjb2tkXfYPTPA2fOgu9mZP5gu9FCjcXEdA1Ly8tCYJZXFzCe9OHW6irONY0wDWJMqMtndMf4aJm7OLH+XcziFn5418RfvNzCje0aVucCPHLCQr0ZSzzn2plzOH5sGbWTEa6/+ireuXEHx+JA6txK2IakXDF3VJWVZJYP9XqG2FFsVFV3aRmn6EQBRhFNxgVHdHcwSDSiO8STuFpaIqmnhZMpppMBRncCxJqOaTKBkaW4tTXA9ZsBHLeObrcN00oRBIzBHuCRR5fw/laEdy+vY/3WRLJ6pl6GjsuxxNjbC1FvuPDDqWTNkBjMtAssdC/g4OAWXnzxeYkgPPWAhu2NGKalIWRiOTLMNXTUazXA7iEzTDT1BKeP+Rj2p5jCAvf71t0MDReo2SPYkYtvf2+IBx5q4qmHFnDl6j5qjRGcRoFmjf5OBoWkcLIQrbqDItFw7doO3ru+DT+hB8LG8nKCiVdgM9fROGlhcxQhGKfoxxoOJjpohKKDYXuHoXsJ9MxGt6OklYvHNVxcDdAPanjteh1Xt5g4QuSz0XEK2GaKuktJJsedXRPtGl+DoWFrSPfVobD5afAT5nKXiakkzKznUggnkTAzdsRwLSYxr8wiPXYM06EtSjsRNJh4UltmnGoIkhDLnVmcPXsOvZk5hBMPme/h7q1rWDv3IILpAEkU4sTaBZj1LpbWHsLGnbdhs1SiaYhJngajjg6Mowya6Yr+GqUqnIuGSC+YisU0zhnUDcQsh5nEsChCT/cxs3oShu3AiChOWbDiCZqdOmadc+LvnJp7Upu2Z9UQ1XQ0z5yWyLXFhXkR8QLPE0slxT2+74NZMvTznTv/AB555BHcXL+FU6dPYWt7E4PBQfmaC8nlQMtyYdZrUknAch103v8jFOu3cM2yMeobeGYtwyNrPt5cT7A/tJGbOlbtAJlpYWc/x2/+s28hMv4hGjUTWaMpz6XFtnKzkEsq45AK6JBjccGoGCsJTGD1+GAqidR5ESEfDjE5YH0gTyyb9XqESTDG7fVtTL0RRlMfRh7DShLMNmqIohQHAxudXg+rc00wJHcahrh+Yx/+RMfzf3YLSXYT7ZaBmd4sUpB7R6jXdJiuJpJJq9tEr+lgbnYPt2/G4jp647UXMPUGkg5HW8Hn1ho4/+w53Nq/i5euTNFra7h5Q+WprvY6YlxpaTlubuu4seHiC48EWJoJcHtbw8l5A69corElQtNh5QgdzWIPD62l6E9SzLRMdJwIl6+lCBNd4Nn0YgwOGHELZDZwYkFDr7cPx7EkxG9qa/jLtzQ4yDDftTAe5NiYAL5H+GKdKwtFYOHVaY7Zno6FFq2RGRZ6QH8vxdvvNpEZjBHOYOgOsjhDYRlg2hoNXVmkwe44CNNY8mFVovSnwk1pZP6r/zgRWV5iWVdOYTToY7C/K5ZWxj0STz3nPyI0fijhfH4QiVhE+KCYSPGLumdOES9O8Vu/9et47quPo7t0Fv3dDbHOglpmow3bbSHPYoyG+zjY2hFR+MzcglD+4cEQ+bQPt+EiZv4DJ6er4sSaactms6RmYdpC4Yc7O6g7FiYsD6KHiAYjDGnFSwO0Wj1k1IcwA702I3mSNtN/+EKflGIfF1mT+Nteq4P5mTlJV+NcabV+7ms/LS/kGXtTNhPjDQOx/z/K3ixIsjM9z3vOmifz5F6VmbV39d7obuyYDZghhpyFokSZpBc6whZly7LlYPjOvvKNwwpfOMIRuvCFHSFH+MIhh+WwaGqxZQ3JIWcGnBkAxNpoAN1dvdRelZX7fvZzHN+foEKirRCmJgAM0NXVVZnn///v/773fV7p5sogXzauvIxrBHMpFUIo9qiAQCR7o330B0ccY+DPRPqYYpYyXmtlvHEZPtqPuXcWsbNTYm33CvH++2iHf8Tz/9F/RxAM8ebLe6w6JaWcFd2s8sMuF6ecm9KUFaG+UqKLnE6mGHHExYMDNLGDxXMmi4kyJ48nCzrdIW4DepHOfGaiW7ss8iXqwbtoixPsWZEgK6nOeq2u0x/2lbVrEczUaKRUMtVpEyYm570I2xIsS0gxb8sImyDSlgt8PKRR9nnh5R7P33J46+c67aHPxlqZarHKfHHG7voKq4WIRW3OdstjONDYWBdPb6oG+aW8mJUT/LlO5Bl8+gS+eiMjjXQ+eZTSWNHZ2Qx45TmNTs/jwyc+jd0W4zikHIW8djNhMs3z7n2TldVEWdikDH/5bsb2RkS9JB7QlL3HEV6s8WxmK7HB3csZb3+q0+lb9Dsya49IAlFdSZqfzJRNtEnMegOCNGO9ZtDvZaw1AwYLefaNJbLHlh6cdIClkLVZ3xZDhUe/b1PJq5bel1+dIqWUnSjUUm5/5Q22rt3FW8z5+R/9vlLLSJkpYnO515hWWfF5DEc4o+IJXcqkpJyQRpO0+wX///779/jet19kZeMSk1EfLWchVtkoSRn3jjk9eMJs2CYvl+/JmFQvKmmVGGwDxyG/GCpFkggKxGIYipcwjlWuYzTvK0qe7BqSaqa+N9Gd6ZaazUlzS2ZrkWURjyOmUcwoHBKP+qqxI6+ZWJ7kND8/PuHuc3f4bO8hR+dnSihRq9a4c/MW+4cH6l4t5a0waGXhrqysKGJcc3WNca+v6hQRBwgSdBGGeJl0F+eEn7ylmh5JziDUNQIMBkMxNCdsNyJe2Q55ehzj3rjCwwcnrEyfMXr/kO63fhV7+2WyVDrOMhlZ5oMuNcxfOFoySQgTDavgX5ZyQ/mZZFORcKk/+fnHpHGkFs1k6qn7o247xNYqqdkkX6qzvlOke9Emm8MkuanulkYWsH8yZTzTiYIBe8cjclaqyAJCYJBNSe6bcRorzm7kCQ2xoN4Lt6jRbGhstCrEyZDLux3OOx6XmynffS3jT+9v0pmnFII+b7xg8/79I/7HhyNW1wyMJMfYM9RpPJ+FOGZIo2bjOibVckYWzxjOQwSNWRHdcy4lMxN+/KGjepJffwVaRZdU3qM4z5Pjjrovrq1q3L7mqavORV+jN0856etc2w7oDhMuujlCLSH2C7iFjNlixh+9XeDTZ7YSw8tcf+5LbEmq1FVSp8iiljHVk2NTldqzaqzeZ3G7FPLSKV/OliUKUtaCWxUpiZyqGZGe4ccGjijq5c395x32f/1aVVpcNVC2c5wd7OGW62q4vXP1NlfvfkV9Qc+sMo+FOeqpUYakW3/wwXt88smHVApFZdyWvUHuaqJTlc+bDntMBm3656c4rsvW1VtKdSJYxnxtBb1YpLsQUXVEe9hBE6lcrqBGE+lqlf5kTMV2yNyCEngLIV0gxIZhqYdTpH6ycJ1qGWu1ge5NuLR+VYGkZM56Ou0TexO2W5fVAjvtHasObdkuKG+rfemKgoBJoLCUtZ4nFjEx7YYc7h8wlo5uFHH79m2VJH1wcMjNW7c42N9HMJi2LbNHMacvYdopLuXuR3Q7IzppgdxCXPrCS7WYT2OOPZOcqdFPUARBTV9h//EDbC+k2IfB7/83bPzO3wF3gzicqKH2nx+cogKSuaSY4SWSLo0zLtod1lpNOcAZXJzT6Q14+9NPufncS9TLu+QKKTlbU3dJIQk6hqZYuRLm5M0qaJlP5l4mTjbwgwlG+T7N5hh/KvenHNLBXWQx5byOFskoS8MUns98Qcl1lFmg0TK4tZvDshL81Gd7LWPmxTw9NJB+wd07Pa5cdXn6lsZsOOWsG3LWTZn4FnFbw80nTBcp44lUSmL9C/DmKdWiRtnNcHOQMzKs2KArUA1NGjYZvYsClUbMWX/B2kaJeRbiJSXs2hXm9phBJhT+AeOhzcGBjZ+kPH1mslrME/tyQUgp12yGvpTxCYdBmelC5JkiKhElpJjLRR8gi/ILbI+mE/gmu1sJu/WQvSODmWcxmOmI00j0W0JWEDGHTAtk2ibUCtMXS1yORZpgh3KYKVHrv35lfvEZaoFK4+H42edsXrnDxckzxoOeig4cDXpUaqs86YfEdk0NvKWzKF69sYjBHVdpYuVrySKXBSOwY+nxzuZzWq115oM2K61XqdZ2GF90vygZEjwBMMcGSS5ifXUFxyqqb2m4GJO38jimhxIuWEuEhXjxRFYmBph8zuHk9FS1yWPP4/zigjULHh0eqtJ8pVojK9TwL46o+HOSnEkk9+l0OYAXC5d6E5IQCRuu1euKtyO7mzCGvvud7yolkLwuMvCWFS4nqAzKRSwvkC3hDSWJpixUYy8knVzgfvg2Y19nFlr0J4ZSksguXMrLIFywlBr7fZ1iq8p4GHD85ISXbxRoLwy8nz7Fsf4rjN/4LylvXVMKn6MHD6lUq0pWOBoNldxO7viLuTRQRmxuNDHza7SEj6SPybs/4Gtf+wYLT0YMC4aLgL2TMdcuFRSNXwgYspF6sUVnMuLa5S28+ZjISikNy7RHY+aehu9HxJFF5iwf0sya4poWt27UeO/pgpmXYOXE5K7hmDH9YcTEy1gtidlAHmmb8/MCrjPm8s4JdTfP/nnEaLIMKJHXbZLJe5EyGelE0RJyPZuF2FpEGmoqNqFUTphPE9ojnfMBPDstUnITao1EuUM0s8JZB1IrUa/t+laVxVzEBjkq5TUiq4x/IBwtj9KKgx8tkJwvqxDzteczPv7U4q0PTSpVoVOIATBToxOFEY0yFqEspkhdt+JEo5TXeGFb1E4ZD9uSHJAQC11CVa5LLbk0KD151iwDpyDoVPk6qMCmovSufpEWrpS44l9LsDg+PGDqJYwHXaQR4888+sOnxI8fM3HW0fIh0/lcQXkFNSmLpZBzlG1IGkxCeZNF+iu//C1aGxuMZhaxpTPx26pBMBl2ONu7r2RX8rmpnJjVMr2jfVYam+rklbK2Jqbq1hqC6xLe4Gq+SOwvLT1xzlGWIyGpi4cy9Ofqz3WVDUnmUjmFNJEEcE9dFQ0G4zGBUyAViZypM17M1N2tc3HG3Vu3uP/oEc+OjxRTp16p8vwLL3C0f6BOXWn9i3KlXKmo5Fth3FTrNawTsRR5SlAe+KLECXG6H3ExjhjF4i8UB5DOqQs1WZhGxkY9pmAmbLVMjqM63UFEMOgQRx7vnlrcaLgU3v2EtdP/DOPWi5g3v4Omb2BtVpiKuz/nKmlkEEgJ6yrhfrW+TmZs8vjobfyRx2/81l/nxu2XkAj0026Hez97h3Z3yuXdTdEmKFmeEPpkzheIaEMeHl/HXwQ8fPSMi65HbzDDmwm2LFUd3NI2rFRsMssm0qaq0TGfi3Vrrtwh7V5KlJjKjiZjsaknM3FpOkrFA5NxRL1m8PRMY+YZS5N7tpR0ShNGUKsiaFEKSpEVigwxsfHCRJXO29KUqkZcWYeztsXcsykU5fojFrwVdfe2cquMFxELb8JsIc4iF7O5gTGI0XIeq9WQZj0kSAIu7wp72eTobCkTtd0co7FBxY1xcvJaJOSKmbrODWYh5ZKJgrhFlvo+JM/lk31bnfzCWhEtgOx6hoxRZINPBa1i4hQTQiEGRppCxMiERam5ftEF+p9/t6QeRqmM42iEpstdSkYsyy6umYV81vwu9qU3OeldULMMVteby/GFzP/iiJ7vsdHc5M5zt7l+aZsHH/4IPTGZjHqUGjZptKDf6XHaPuTbf+XfZe/e22xcukE/WuAdxJyPxsxGQ8ZhxFY0Z9JrL4XGgY89n7JSkpyQJY9B+pmiHTWle2Na2AWX1eaGGlhv7Fyid3KCFnmsr21yIeygapU0Z3MgfsAsoVmpKqN20bmssP7r6+tKkyuEevWRQafTYTAeqSpBxi4vvPiCSpq++8Lz7D97hsCryVwlXJ9HCc7kmPnhEzp+jmBuk/jLsN/52KJkx1iZDL9jZcmraCafdObsHX9I01xQe/GbuNPHPDw6J0wKbHoDrnR/RP6jH+Fu3cA6fpHC5nUmtSuEk5DZYMTmtRdwwx7v/eSfKULDpHcBWo7QvcvPf/ozAi9hjk2x3GT4+JRY8CtFE6EISjkgYHBh6wqmRiqSdmfO6bn/hd5WxlTyci8jFaZTcG1LVRbCEA48R0kDRVkki2o+0/DClHwuYTqJ8APx0hpqnjnoFXDtiWLujgcOpfyC49McYRqhm9LskrGZjNQEd7p8mMWo7weJEkzMZjrnuTy76wm3ri0omjBcpJQcg9WVAv1JzI0bV8gYUA4lKsLCKlfZ3L6GpacY+if87u+MKMQTeuMSP/u4zKfHPomI/UNLvS9hJIxe4RJp6OJqySyOuqFSL8ki0LAVy0hcN+L9fHYq6X22glxrsVRXOpbM6jOpBGTqoKnXW+6lUn3N/BhBT8shK8KKpfrky69S8+5WdXlnlc6mNCAMS3U4//wiq2cJl4ttTPNP8VdkG44oa2W8XIgpmk4jxTMTytkj8u1HeMW/yjyKGZx8pjSQm9tfJVtIa7xAod4iX1pXd6gw9kmCEFe8R5asNRdDvubEU0IISaGy8xXFGdIdsf1Ic0Q6x5rCQQz7XfI5W90VB1ZHoUAmx89UQ6jhFukO+wQ5W5mmWYwxvngY/VQ8h9J1XRqIC06BW5eXvKEwlhlZwBu/9C1lSQvDgFi6omnCxva2eiOV8TrNVFJ4kNqszMbER4/oTVKyWMzJgm5cpmT5keAybaIsYDizKJZTmppO+7BHtx/w9V9qsfZX/ga//dUxP/pf/zfuf3yP05xBoZbRJOXo0R7Okz3qqyLRK2E9/7cpXiuRfPI/EwzPaGh1fFOn2nRJjDXaVDDqBp3BhI/fvY9RbFBeWWcyn1Mv2kuhiOxrhk7RESqWPJAC5IoIk4ggChWIW+5isZ5y55ZDLkqZBwGrTRM9NJkXdaxCRC6vIQL2opsi41bR2k9LNtkkYW03VgtptNCWD76hcWcnYWM94fSSx1sfQKOeo9ws8fGHA7bW5K5s4E8tTi9Srt7I1EHw3kdioYgZjkzmc4c7NzMKzQnNNYt2t8qoE9PrnXP9+phLLZ3P90WXKwKLc46Pj2jVYxo7RcYThw/eNXn0NMWLTSJLxy3qlEQvrYrYFN2SRg70fDGUywLKFK5z7kXookaKTJKKydnYUKFYMtdMQoHXxcqRk6Uiglnq4SXIqjeIsHMyNZB+vM4i0KlWpfv35RenHBjmJJAjOkYvbqAXVon7TxQfhkTYMWL+NTGmj4hP7qucC/kD5gfLxSIlqfwgonEVpeginJOdn5I0v0fOlfwPOekMwtkcX/4anHFycE/5BcV1KKhE2y2S+DPWy3ms6jad45j1lRa2cFxHPcxgSpbWFXArMywKMiPV5ZJfJhFRtBAK8rIINEJVxC3ZuUPZ+jVTiRKYzclC+W4zRV8X7XD76JRbt5/jo08+UV1bWbBF1+Wll17i5++8re7Z0vBqNhs019fUHFL8ohIOJPavRRjjsKD09C16/TM1pBZ0h5UL1AxRcywGw5T5PMMuxAS+zWgAej7EymwaZsL1r10jC9qYpQK/9rv/CTfuPWDv3gecp6fKWdNvj5RcbLqXkisY/M2/dYf88F0Wj94l/5XXcA0Tf1JVzYonJz5WWSIyNNVxFf/ngw/f4+arr1FbqRMGIog3ldlajkhxm5iaRWJqrJYTfvOVy4rD9OSsw6OjKZ3+iP5FyG4rRyAuozBjd9PAi+fcqMP5hcmT4RJtImXz2MtYF8h3xWI+icXToJQ8haLF4XFCvZbhTzLeuJPx0uWEyCwxLJapN3S6+2McM0DMEbWr4BZ0Gm7C978J45FOZSWjVI/YuaNRKsQspvDBYcp5e0S9lMBVn/5IHE954sTHyHzWtkxYaPz8fhU/1jg+HRAkE4o1jUbF4PaVDDMK+eCerZ41gUhEsUgANUaLsWJKyXgrFb6QKLu0BD/I1GSBOCQKRVUm77dUkRIjIc4ugYulGKbDbGEST6UKyTBtTflRg6KUpcsrgFo6X+JvYuklSyPM8gZ6dRt761XC/Z+QxSFGeYNkeo5mu2iGTTrroOWrCCBa3ObEPlqupBZ4NjmFRY90MVQRgLIg0yBkOh4xDDu8/8GfKVTj+A//T649/xqN1U26+/cIihW8yQB3MWcSXJDqObqTgRK9j3un7FQK6FGi7ogCMJN5n8Q+iAZYFmCtWFL6RrdSZzYboJeraDmHmiY4RonBK+LrOuGZ7JUookKYGmxvb6umS2uthelY+POFqkPkc0I/QGagw9GIW8lNGs0mxweHvPj88+ydtRktpjTDY6wH73JxPmWhtLFCGkhx8jp+KLpXkb1ZTAPxSDrkiDCDjFJVZ7sZEVsWmy++QUGvqxNaLGC3v3aX21+7ozTPo3ab/MEpJ8dPOH54Spkah4cf8viPf0wtmHMzf457eYVccw1fczn64C1cdigZeVVaJbJzaxlPHn7Ob33/DbrHT9Tp6Dril9QJMkt5e18yBzRrAdWVS7gVB8zn+LMHF/wf79zn0fSUaSC5NRajUcSeHlGpSKyDRCNqzOcyanOUaMSwNKrFlEpZ4/BCJ5zJ6WITzDUeHxvUZin9gs4widgsJZS3dIbDhOpKkdWqTdA5wzVED62r4FvDCXn1OUGJwDxOuHJJIzI8MlPfKOPkAAAgAElEQVTntC0xkhG7VyyqVfBDg4vBHJnhSse81FjBMH1miwQ/lAXkcf1qgZt3xzRXA1byIZoHx2c2cSqbmsDJ5Ouk+H5MXnoaMoOWCIhIGkGmIljK3Vs64ytlKORFDrg8WT2hbCp1V6oog6ZwLZIMYS5L2qEAvw1B0wpXVdboL/BhSrmnuw21CDNvRCJ/DQ8wGrfUgjVWbyijtpYrk5hP1GLW3Ra6u0IWLLmjsoDTYEo6u1D3G+HnpqmUN3OVRqZWkLBncnn63QviTz+ktXldnbxuzlIjF912FYZEyl7Rm/qKmielnYVh5xWxT2WQmJqKMJiPJyrASMqvMBkoCFTmzyFfV2W6PzrEqFZVBy0nxmZL8jwlsSxRmuJQQn6kEeXk2FhfR1CiMtsVesC33/y2GhlJyScsHenSXbt8RZmZa60m0cVPqTz6OcdnBoHmqHFNLFOvzCYU358mN2VDLXyZ78WJTqOoceaDPdF5ftvj0puvk65dVwiQ6WzCvfv3KazuEC0mTEYDmrdfoWOdYn/ll9m5NaVqjvjJO/fY76Vsbe/y0x+f8612wJVvbOLlUr79q79EZL9K+6LDYHFAkknTzFazZhE2lIpVFV8oroJEGX/kTp9xtZhgT2b8P3/6IXu9gJWSyNVMXt+ps2gHHPZHNGoZ/baB+I3Pg0zd7ypuok483dZUV3NrzWAyl25JxizQ8RY2uVzC0LMwCpryQy5EhBBIXmnElnSInZSLQUIjPyfSi0yTOWlOZ7PucGW7QG/qkdNiRWyYzcXfmWMkkkrHZvOGg+cb5FcizIrQFlpEoU+5JlBsX12vZINarcs8uYreAJcOTpYyX5g8O4JuV+x5JmFgKDKHL9QJXVAtS+mkomB8MY8W/Knmy7MqREWxkxnq559MMtK5WCAtFr54gy2EayHs5bywky35fsQQL2PBX2BlfvGpy7633O/s4pJROheuT0rc2yPuPkTTJdRVyN2iaJFhrExm7qtTU1rTakNQdbVMzOUhFcaqyXMvv8zjD99VLgXxCsq8UcJYhQCwWipzvve+us9e2b1FL0mUGF2yFA03T7nRot+7wHNsBbSK9UxpYsNkocTr0iBSOZ8SqhsvGTx+GOGkIk6W/qOulDDSeZxEHkbOYuL5rFXrypcXewv67Qt2L1/h808/5+GTB4oCUKtUefXVV3j77beXQCthmW5us7WxSez5mE6O0uA+8d57tDsGUyPHNMqwZZMTR5BpEAUp8tCatsF4lBAoSIVO0RXanDhSMoaDjLWv1XByNkk4VxGKT57t8bVXvo8xPGWWRmxdeZlJ55BSc42NrUsUjS69nsd0FlMslzkfTLg3NKl4CfsPz7gqUOzLkoi1TmV1lbc/esZR+5z5bKZcJMVCAUPoEtIBkvebBD/ROG9c5qbWITXgYX/B4mTCN3ZdXm4WeXVji3fuX9DpWGTCVJrGVComd14BLzA47Kr+Jtc286Smx+NT0E8lZk8ySVO00Oa4oys3SM01FUlQRlSe4TI2KnRHKe3DDsVNi93ruwSxz7R7oVCWVikiZzQ5PfII5LalSzc84iKIlcFfcKnbl12l++33dM7OIkp6xuUrGef7IZN0hiMEDT+jVl8a+fcfRKRBQXzwPO1oDAeG2oClMy6vi9A9BGcqyJclxG55XxTkjTQpS25GrWwwWeiMYo28I41ZKYFlY08pWDZlsQrqGY6bEic5PAG8h+L8EtKErLpfsMQVSwzJjPTgT9QuIB1QOycTV/kQX2JMpAsqZIkMlHpcGkgKHi2KFiHDqegA6YLtEr/87xA9OWPSMVhMZ8T1UDGGxqMRUT5QD6qE8oreV4w/h6dHaJ5P5C1IQo98sahEDslsRH7JqVfzJklszhYmSnwvdAZJS0ZjrVyksHWFsRjJ+30SRyfM5lTWN5gtQlYqQk5PGKcJQRpT1i0iGdesrSvG0aWdLVYbVSXWFxaSNIHE4zqXnMvZlLC+quSTnfGAzSxk7x//fVgETBKHqZRQvsSqW2S6hZdmTOOcACMIIoExyxst44WU4ShBFC7DOCbVbPyf/ZDLL93FXr+Fbc2przaoF6ssogHzYgnXlNTsguIblSol0tlQjbSEtyTGdTFeC1R6NJPGSKjYTSpJ24ZSeQXDWnKBZO+M5S6VCcEgUSIUcVwI2iSnp1yq6NSbd/j6C0Pu7b9LbXuVkqWrtPM3br3I7330lGeHQ4qFHNtXXXU/7AwSBkMRXOS4fCnjpdsFTto2Tw+mFPMF3Eqex/tdOu2IrVaO29tVBt4Y3TQo1xvqe7HzeW61NJwkwSwUGIuH19Wol1c4PY+ZExMaKVmuzu7WZSquwcV0n8jrM5uGBOkIP7XJGS75nM+1zQoXnQmTacDduy/x9sfHdC7aVEp1vKn0DqAbrfPk88lSnqprhKH4h0OuPreigAJ7D8aq2Ptz9I+SU6JhabrS7ip7QiDJZ+JgMtTISWbLni/315B63qRRi1S/YONSyHziU6smrG5E6jlpqVgKIZV8sby+xD9McTjIhzoL5Tj8C10mKw15sPrrnJVfZLNapFHNq9N2enFOP9Gor1YxFlNMp8CNF75GNh8w+MlPaD+VC7QQxMUNkakBvywqyQCVpGwnXyKa+CRyIc8kEEccDhJ0qzHsnxPNFxRyBQq2rRo2MjxXwgEpca28aiDlrWVkwmQ2UabxWRriX3QplyRprEw0Oacgp1oUkcuE9C1e1WXZuvwxYxWHVy62VLtfOUi0jG98/StKdWPqpooCFIzH5uYmVhgSOw2C8bHKFL3o69TLMYvEUh3c/sxkFCozpJKFyasqu6mURBNhMo4CciWh3Rvos4Af/t3/ge//p/8FWqGo8COZmZLYDonIgyQ2TDY/NEaDCf6wy7A/UKAyabAtZCa9tY7tFCmWZsosLzv90ekhH356n/ZpG8dyyNK+Os2FQStUP3k4Ul2j7roMA5/JLKPw7CkHTw64veEy0jQ+OBnx4FnAjRu3+c1f+y5//w/eRTN8nGoBs56QmCZXyyVuXG5x59I2988ekOaG7FxpqrRxx5KYwQqDjTFvvrJFvVlXDajPHg9J7bFSno2nAZmp8cq3rjAU+no/oFwoczSe4qyUSCQ9TUupbAQMvB6jSQ4tbyC9hnZ7qIiIF90Zu1UbfdUil88RRA6PnjgkxgVJFiDigjCeEifSXV/wyusF6is5hr2EUT+gfRrT2qoqBZC8Rxsti35/zHwheJalgUTGja6QREYe5VIBX4d6zebqTZtcHqazIYV8wtVrebacANP3cMqiMsuoNWJqZVGp2ern1xZSCqhF9iWW5vJTzL/9f4+UGkh2ApHPqdNRqOUqL2M5z1tU3iNwTjBJlNxOfhj5/DgRPKY0exNkYF+v1/kP/61vqi6nnZcZ0nJkI99ss9lS24DIACUs1847RG1PsUhL5TJxGCu/olzMlXpHISCXXTFpuCwlGMv8DuHsFATElWYEAtFaLJaAX0X9k+/J4ODpM7xxj3LoqxAd+W4KSA7mUjA/HfTYubTD5w8ecHFxpgQQIvm7c/cOD549U0nVgv8vF1zWNzaViWCl1aD1yq/ys//l7zENJP1MmgMGFhJBEbHaFOd8btmxk4AdAWVZomM12X+S8NwL32Djus3HP/whhlDltSqm2LWMlKJbxB1fYLf3mRbyhLMhjlAIQgl81QmDjFdeuc2n9x8rT+qtG1eZTOcM+h6v3r7GP/zhexSbITW3ou7wOemeL+a0JI4iM+gM+8v0MkWnj5jOxuSLOU5Ck8slYfvkGXtjHszEweGilWC/c8Bv/ht/i1/5je/hzZ6RhQP8YMiH+wcs4pDz4AKvr+HZAaW1W8p3GyYzkrhI3q2wWZwyjjUG/ZCK4SJYGqtqM+6ETDrSxIp4+OSEk5NAKaakOx4uylRrBSrlbUxtzDQ8BrtDvw92Js0Xk0KhoBwqyXxO/loeP87x/o8O0SKHfCHlwaMexarL7qU81VKGjArLzYRo0ueF58pMZwU8v6xO+OEoYDTMKJcsyq5NruDT68roKcTUHUWpf+5axG5NFmQA4qSp1HjhxesqUOvgdKhUcAJKo5ARTgSHOlPSyrJh8fAQuoOEQj6lJT7YL5yBX3aFmhM/JY4z1nZvkS9W2X/4iVLJqGNYvIITER1PGEtkYOQxn84U22Xs+YpcJ0hM6VbpomF98gzdH/A3//03VQ0vJag0Y+TyPpmJCslUKp7pbE7jalWJHEgyOr6v4MFJ4iuxt8jbRgJ/0i0qAibzxSSeMQl81TCQzUOM1ArsZ+ewBMyVJOQdQVu4inUqACkKjlocsiEEEluXhVTEWmUIGbypus1bmxusrTWUOF42GVsI9c2mum8PvQGBmJ6VtnLCqtbA2LqOd/VNTt95n/VigB+I2N+jJZ0kO8NJAkoCJ7d8kjDDzK3y4cGIeWqy9Zdf5Ze//x1ODrqEnWc898Y3OPzDP2Vlrcbd0wsmn/4dxi+9iX3tDg8+/GdE+Sb5xMMfDfjok4c8d7NKybX5yU/u89LL1xSS5NGDJ/j9A3769lNe/+4tLq25CnMZxiGCR201dzlrnxPPJ+TzrtrZZb/rTBa01iK6/THTUoxVSBiOR/zlF4v82qsRWy/eYrr2mzgra1gXJ2SGSzw10PJrfL3q8Njv8KQ0YKqfst+boBsl7NKcYC7EwU2MYkiWFph4FpY24TgLKG2KUyejcruAfUv6kyKUCNlcLXPUCfFiH88v8KQ9oVSLSB2P/XOBoqds7xYYjw3VSJpNUgJf5/K1KiOvSxKVWGsUWG3s8O67n2DPE9Yzl/ya2CN15Yrq7c9prVZorZRVH0QAZNvPe8r4MZppuEW5T0cqhNhRjGcp8z3Fgt5qWQht34uEeQy2M+K8d4RV0ClUK/gLUSmFeF5RVTSTYMSmOSKcBZz2ZDRlMo8WrJeX6XV/fth8mUVqCvtmpbGmJEv9831e+9b32bv/Po5bVuWEMFet1SssyOHNlkgQt1BUUXynR0ccHh+jW3InStWpqMTysqgiIdAto+MljCb05sjUUjJHvPgC/4O3v7DkCKBpxjxJVeqxmJ5F1SOpGRMRzFeqymkyn4zVSWgpooLOYDigKLBo5gxO2woUVq1VFJJFqO+Rv/SrLhaBCjs6n8hDlDGfjdWDEUt4qyEXdznhxJQtw/u8qiDWVhpKKL9ebyhtr9wv1jfWCH2f+opD8/kXGEQGw717pLO5EiacTQ0Yy8OkUcyFNDav03z+Td7a9xlWurz5yjbOagO7tMXv/Pd/lz/7vb9Hv3OK92f3GNsJjllAmBzxrdeoFKr0jj5n4/pN8IeKR9xc2+SzBxfcvHmF57o9ojQkl3fpdtqYmYtbLqkgKXnoZeOSPJqNzV0KTpFHj/e4ttFahhSjEwQGt66t8td++wUauk/22f9E0ezyN/6D57AnF4weHpGOI8znnzBPH3J2+JhuHHEWj2knC0rjPHdz2zxXbTGzBhymYwz3TDk4xLVh1Z6Q02OCoMB0IGMfFz/skkha2FjHmUXkCw6VYo5mfQM9NydMO1SrFp8+TJiMpjzbD0itlJ2WQ5QJ9UHn0lWd8dhVjZ1ZFDIYeDRrJbIsotaQ5qLJpRuCi8lUZIeeWOj5lL1HHqfHKY2Gzp1dqOQzrl8y6A5F3z1ka01gdXmKhVX6ErUpenIRwFsa4SKiN0zpSffaqKCTZxRGxHEXtyTIzybNlkFJokQCm95sRLG+ga/bBIU2r79YJ0ibTOIxi7FEUi4F9V9mccrnmFKGia/RKRSpGSaj/gWd00NWNy8ppozoGifjEbnallrIvV5HGaeFmi1KHumm5cUNIielhAnFgncUlqtkiyyzH8MwVAgROfnEwiaYjaR7xvbVa2qckU8iKtWSSquajQbkciZb1W2mg5Fq2AhzRu5dAgaTsYicxHknUd93kKSEyqOpKSKh3NOkWSZRAHJnFXTL0WKBoFp2ty8honNBtHQuOty4dp1nTw+ZZJEqm4Q3dH33CvuPnikIlOBPpBN4/fIVJf9rrrWYjIfY5hhnZ5tYXpujPczjc7Q4Uv25oZ6x+tLLbP7qr1G+fp3vfDXm2ek5lcoqhmNxcXrKzp3bfOWv/S4f/fE/4trdHWZv/YhZd0RRTyjYMXq5prqJRRVFMFGWpfWtS0w7R3z28Se88PwNvCDh+Ohj1eiyxeKUeirrRNRPooi6cf2m6nD/5Ic/plK8owKSdnMh1VJC6VaVqzstOL6H+GoFWnbrW1fYZMzv/4Me68US//hHAd6f/F8891u7fMQ++WLGZDpSTiDPLbCnD9E7UNnUmCcT6mZKqrvobkKnP1GNxlY9j2NHSqxSSqpiOiSyU8olAUP7PDmc8+h4X5rK9M7n3L0rHlCNtYLLlWspBdsin7d5cjpSuUDtfsKLd0RwonPS0Tg7jEgXBnbRUqzcuX9OLhdTa8b0TwKmEwMniSkaMUboMG4HPAgTruy4NEsBQ69EsyXBxiLtjHDz4t8VRrPLwZmNTA2MNGW1KfkvCSMfVsQmp/kYkfRG5Jk/5v2PhJqwjetEaHZMrSbChgYfnfu4Vo5C1UHPNTg4PiFpDVWu9Zedh5p+rDPp9NRA3SnW6LU/Vx5MsVfFT54qIvjAWMWqbKqEa1HvyIMrZm6JF5CTR8YtEsMXBRHlokkUC6x4iXcUd0GUiJB5SeSTu6C0Rf0wVmTA4mqN8XhAw7GwTEd1oaXJZUQJFbekNJqC/JcBe+TLkD3D8z315ybCc9V1nEJBeTyllHYsYe+ImsjENC11aiS2RRLHCP18vbSlRh1bm5uqxF5dXaUq92gBPecFwwjFgqsG4jPVx5Z0g4SZt6CRZfR6A0j6XGuucRRXyBrfZLZ5SPTsQAUdTUorHOl1Fs/6fM0ucP36ZabDPB999pDgyo5yehilNqmZEjspuZ1bym/LP/0nTI4OWP34xyRvNhUZUNQtYlAXverp4R7r9QrTyZgP3t/j3/zt7yth9vHRPlW3hGX75IourY0tdq5XiD58yP/+e79HkgihX7SjIfuLHHejDjvD93n6eYEfn8XUqwv+7ZdLVMInnL3ziGiiEWQ59EVEQfPxFmUheSjrXMV0cV2H836o7lJOo8nJhU+pKgINUX4lfPKJR/9E41uvr+KaYkUzCBKP+VjaXQ79wYRY4h/mKZOpT7u/UCiUxdhgfz9he6dEyZKm34juwqYUCF1PZyU35/WvVxmN5wRpnu98tcSfjAMWo5DEzPH6V2K2d44UHqVaNQlfEddRDyPReO2VmOEbLv2hQ6+dUzT6h22dhddXLKPJ2MQPJZNmTKtSVba35ytNzrpHKqVAqBFnXZfCaoyutNURju0y8VKOuyGus6GCksbpmDV3pCACtllCzwf4RqKaUtNgxM56RQUmK2r/lzxCzV+5JSh6h1jN6GboN8T/VlzOPJVxOOapvcvU3SELfVaLVTrdCyrFEk/396k3VllrrXFxdqpo839JKWEmCC5Wzfm+CDsVUb2coLEnt0GJCBTWTEBehANpouxR866PP/fVnCuLJ0rZk9Uq6K2mou4JxU7CVeUEVNF/kiMput9xX2EqZSwiHskwWqhwJFmkgqkUi5iMTySNWXYAwYnIaSxCCvk1IZsLFd0oCmcINlvrykaUyIhF9c10Wq01lblSLpdon2fUa30MGX2PTOLNHbTmhnLOZH6Kd9Hno/c+oiLhsrbLla0VNdb4/MEBOd2kXMwzOX+I3z/D2Whw5pb40CpxVyugff6hOj3N2q4SPEjknu/NmY8GuNvrikd0cX7Oz/7kPQwzVQKK7Us75FcDNm8+T6lc4OHeE370wz8iXCywhSwn2a1i6tY87hkr5JOAe90pPws1/qo2RD/7iODpgMGTmG0ZsUxDlSz+0qWEt7yAQMsUMQAchtMZbsnCzBqMR3mmk4SNjRblyvLEKgnE+6pGmPo8eSLiFI9L2zWaTZ3JJCWXzyvVz2gg8r8C166Uae3o/OAHI44vEuqNAV99KVSNvr1nKZoYx0sQxhazxOSwbSu7oVvL8/VvrHD4OOY8SHl8NlWk/enIVoeBW8porcYsZjZHXZ9yxWdFz6vIifEwIkuKVF3oDKccdU1WyjFrdRPXtLGMmHJJSluYjYocjyF2Mq5vGESZyZ+9XeB5dZJbHBxovHhLkrwTJtGMl2p5KoUc3al4VBNmk5CiHbJWcgjHNklBkgC/5OqUEvfrlwUQuPxYzn+WvFlZTfLfzVRjbeUyw9ptsmDBZmWFvadPVMiQFk+4fvcWV3ausPcox3g2pFLIM5yN1GIUt78sIClpVVc4k/lgohbnaqtFrbGqUJcSBy+UBl8QK5HYzDRlMXNzecRsLJRwGSBL4Cqao1KSF4uFWnTzYM54OFimfscJ49mcyXiq6A7yZ0oQk+ARZVAv+lTRS8o8UIziokxKVOis5FKq2CFVpgqlb4kVkQdTNpZllJ78XqHRCcTBE0lZboCz4uMs6gxmcvS6KlSnVqsyGg3447fe5qzT5S997xt85QUxiMd8+NkDDDvicr1B2ZQGWoKotMe1KrGVkhw/w/j8QzbeWGfvo7couTVW13YxjVSJN6SJtbG5zv7RsTLLn55P+Cc/+ClrqxtM/BIrK6sMJHhIvIoykM1ihes0TNmkDHUdeGtWZDrr0ioL7UJDdG6Sp1Qt2rg2vNPJ8LWMquRszhc8GKCQJ5c3IacvN7M4tBkNQ5J5wPFjk1svwmToKQF5Y8MkIKY78dlYqSkifLc3JwwcRsOYxlqBWX/M4d6Im7++Rac3Ju9k7F5PeO1lnbzp0xnr6DkRfGR883Wbo/2Mz+6P1WuXBTEnj4esaDZ5p0D34IiVep6JrzOZQaFu89ljIfyJSiijsurQ2RdqPmy0PEqrIcWCT1GEDF6BZl3u7CGjUQGKU8rmgCDMU62Kh1RnJo5Jw+PJyZy8Sn5zeXIiAdYarYbkyCy4smtw0bM4PI8Um0qS9BaLjJxRYi4jqixgu1RSidy/iN7P/G9/MFYNFrkn2vmSigOXaYuMXETmJg/uLPcOifVA6Qml/SzzuV6/h+u6/MmfHagdS4KNpIz8rV++y3M3VgnFdqMM3L5quMividVGkqOUSkNgYXJnTWNFhPdnCyZhQKlYwcyJhnOh6n75ffLDymkrJ57ML/OFAt1uV/lRZR4Ye0IxWkr45P4rC8q2hQUrNHJh6IgtaBm2dHHRVmWXgLAv7V5WobuZYTCW5KnQY3dnh2OhFevi+QxYqVZYWWkwns4RMLNIAeWbqFfKKh9Tml9aXqIH68TjHLm6hCnpSN6h8FyfHB3xaG+XtZU6v/yNuww6A9599zOyr7/Gy5dvouk9daJLJ7rzzd9AG3aYnT7ELTcwRiMWkUZNcCsnj+h0BpTLZYRgL1JKzTYRxq9j2eq6ISHYEuQkVw95DaTDPpegWxnNaiLmXrJxLyZzziZDNuo2o3RGljOIYwu34PMksDmbJ2y6HudxEb9ZonLuMZ/JDDnHVOa8gVipphRLNoWcKMc8Op3lrG/nlklxJeX8LEKLLE72PToPulR3HGxrwdHhiLX1Bts7ORJPZ9pN2d5a4dp3NUpul/4oY79XYjoLaLeFSlBkbxgqAUKlXOPkSEM3YxpNHUnX27rkUdvMWL8WMOz5rN60GE0TOqc2V7ZTjkYZz95LuHTNZmdd1EABwcJgGJrEzYDzXsrGBoQdE7caoNsDxURaiL63qzOamww6Ea1annHP4CQKuXIpZjTU6A08HEM2cUvZ9poVR4koOmOD3ZZLdUeM8ilPuhGLQCYHFkYkyIYvf4Iar12y/mtJ+qpU67zyxvcU/tCb9JHZpCvpWRKymquQ5lzE4SK2L2nAiOpGGkFiQhXdukTG+YLYD2NuXV5djieyRD088g3JHVQWjzpKBUS2mClbmQgJRXonD1TJddlYW2N9raWoDFJuSgladasMuh0CCW9SbFpPCe+9QCLPZUEuXRzic6xX62ogLwJlx3GU8VjiIWS2KgqmRrOhurfy62K2FQC3nKKJmBszURI5DCYThT6JwlA1qYRL1O/3kS5x96KjRAL1eg0R74dBopK8cyWh8OkMpim6LuMdXXV3F9MFp8fnFAom62sNbt+6xB//5CP1wBniZV2towVDnh0esH7nDdJyhY4QHG69Qdg7xbALlBtNegeP1SYhr7mkdk9GYxV7IV3xi4sepbJLYeWKYgbPZwEHB8dMFzMWc4/trU3KZUdVA3Jvz9IFmnWBZKS0J11uJX1yXZ+2YfC0ozNZOCzmIaV6gW6uimWmNCpSadns7U1Jwwrn5yIsCNnctYnDCgdPp8oIfXoYcfQ0YLW15O8MLkLyTqpE7P4spt/xWF8vMupldM99JU6RjTvWI2WOtgW2lhhKh7u1UeXjj9vsP/GpVIpsbcpfJfp9wYjquK7kwvg01sJlxZBazKYxvXMDMwenxz4bl0O2d3QcMyPvwnieEBsW7XbI8bFOEOvoYlFbZLhORt42mQUSUK1Rrppc285zeQ0K1VhhOesrBjsVU4G4Z2nA1asOemypXNOCk7GzJiCxlGptOcmQ526tllMNr2ye40VDuuzS9JSn+y9+SMmnk9369yC/qqSzkueNlD/PvfItPv75H3Lt7ldobV9RLpDrz3+V2WSMb5WJJcovFEp2BwnHFXaP/F6Znf3BH/1A2WxECWTZcjJKkrMQ1aSrK+WkxNWlBKGnBAGSNeoFHkKCLxRslaXhexGrufwSSJZZylvX7U2U6CHKFvjxjLmfqmaHlJlSvkaRRAhKiSHxuzKumePNQ3XPMMzlNiVhuWL3HwyGSnYlC1Puw46TU9EEcuKIf7PgVNWAX7ralza21OYjL6F8//L5rVaDMPCpV8sqRl2aYkkkidFSIQjlLlAdUhHYX1w4xFEBJ1el0TAZdAf86c/fU1rdX//+t2mslnnw5KlCYqxVnqdpl9Vizxmgi+pJnDhKnS0yCLkv6+r3ytsp7kIZAd6NrZ4AACAASURBVEi2jGx80in/Qh4k3HK1OYtQQ14P6WKL+yeOfLU4l7zYBZo9QI/nTP2M/X5EzzNYs2y6fWEAhUSpRqVcoDDxeTMX8k/NAtItF6Lei4Ua00lKoZKyvlPh0WcRe58PKVYNGq2UtOHQ62UcPbSUEfv0YMCRV2SlKvfBgNW1MiLSjOYRt+/q5GoJT0/7zPY8Kt9aU0wfw9ZZb1V49GmfrS0X43KO6dTn070hk7FH7yxg93qTs+MFq5WMYdGlUjHIVc6JE+E0W5ye+VhJjfaRxE0If18qqZBLlw0sPWY+1dm4Ik6ThGJB7p4ap2eixzWxy8Ag5tZmhmM47G7GBBchr921uLNTwLYL7B354k9SzCQByew9syg/n/H0KMEsacxGCa01AyuNaRUcFrE8JwsVDJb7C2q9v7hM/8V/N6UMXMzG9NpHXLn9ikJadk4PsB2X8bBHFAUEhW0FhrYMiTH36bfrzKZyegl+Q8JUCwRfnIIyIJe5oahXpCEjzRzJQlGGYOmnpzKc1nDtIoVcRX19285jhJpacEk0p+T2cWyPtQLknDHd6H3M1TFbq1IymGq4HXiiRPCYjANG/brakWWUYlk+pbpJrx3TOU/IOUuR9nA0ZGNjQ53wksomj7L8U5pFuvhhVfxFTjVTkJIYoYzLsF3QHxJeLF1muZ+LYCNiuJgpJKbsPiKxC4Sml6TY8ZT1ypizkcUsqKgTXqBSnd6Qn73zITtrTcplV2mHz9ptZtPLVCtiDrbISfCPhO9K8K5hIzaa2XyKO1uo+7Oy5kukXRorkbiU8SLtlkjALBYEquBrMmLZwPSlo1/GFIIMDaUXEC+oryYIA3gwDlmpSSCzydNhynMrNnYgHDrZHH02WxlZXuMHZzE/O/fZ3YXiqoVIsZ2CwWQMpycxbt5ia9Ok1sxwCx7rlxIePjVIeg4nBzGvf6fO2anHxV5EEkqKQJ7JIKFazLO7a1JbMyjaLhsbTVwjr3I5vbnO42cplUqdkoyatIBpP6EzDtWpK9WOfX7BS8/X5YigPxSjvUE50ti6lCrf7ZVLLl4vx8VBRHElZmu3wJks1j6USxrDXkoYmNz5Cpyf+9z7zOT5OwaNFWi3ddyyxkk3ZuDP6fhTNfpJ/QI/vdApVWasrGvMZoZSIO1cjvn8aE6qm7QHGief6izGEdfvBGyv5+n2Qk56Jq3KQrIkvpCB/ovL8F/9/815IBwVi4PDw2VMuqYrNpE/7JAk5+r0W+T6JAXREfr4nkxJCgQLk6l4/oyCymT0Fz5zP+TazjpZahH6whONKOZTBRAOvQRf5plRQrMJ21fHrDaPGPR09bUwxrjVGfnVCzR7oSL94khnOg/wwhDLFpHxjNRcMB7GTKcRoZ+wtq1z7a7siBIzH2PnF0Sxwf13LcYDydDMU2sWWF3IbDRj7/EBBVdKkgUbaxvqvil3OXnTRffbatToj8YItlLgaJYEOAkDN5zQWmsqS5FsOAXbRLM1gi84weKQUBtRJLriObVCykYj4ef3U8QtUSi4SKRju3PKw8eP8aZTauWrStig6Qt0QYXOBmrGJu3r8dmeamSJNWt89lRCm2mullWnUk5yGdDLDFrYSJfXavhStXxhGBZRd86UWXEO06yrKkQqqiiR90hKeonUEPH8DD/2+Idtk+8UlsAuL4ZmvUhg2cwdeLEI77giXa+Bb1BdjwlGNvbCYXIRc/WORvNugluNWMxS2s8SDo8DkuOYLBA+k8m1Vx12tk3u/cjg3kfHHOw7XL9aYvdmmU8/DXn00KN5EHHt6ozSSobh61SEHzVICKwliK5UzjPXfPYfeexecXn1ZZv1lZDEyli/tMDWTLodjc8+tyhVFkrT7exOEV/syYHFuLdgY6XEbJxhr834+q8YPPk0ZdLNUXBiXDtj1BeXlMnOhk63u1BilCyJuLnrYEZS9nqcPpO8GYPH+xH3DjQlzsjaKV99yVRSSsEzvf66yflxilu2WCxClRb3lecqOHGKIWDrX0Qs/x9/a0nTi+Mlj1Uc4LqRB20Z/SC1kncNHvYKkKywtuWw/zRm84rNatPBsDfY++SEaNbC0hu8eNVR95qNSzb1eoVGq8CgL0Nu8L2Y9oGOU5zS6QoU+pi19YpwrfEWeRb+ENOaEXoa54cZxWoOOx+qclPKqtCXgJuUQTejtWUx6bukUUAu18YtinVLQ/yX8qa88HKJX/oeFNyA0WjOaLLAMp4RTOvEicG479BoiA8wJpQGTXtKEgnhTTqcU2bebCmO0A027CaDQYfW+qqqIKSKKDgV5QzR9CV5QsZGgnoRdMZiGiuv63wofJ8c6AKQAreYw3TyKp+k0ahRLhRZrThITIAfJgy6e8S6Tb61xenjn1Faf1mVzcPzRww92SgyxtMR/eGMzY0Kvf5QOWYa9SoHj/tcaXmsrYEXLVOxJWhI6OYS+Ost5BQNMeYxqemzWPQZRxMGwwS9bvOPpia/1MyztV6neD5V3fTTowWv+HP++naOn9mS/Kjz6adzNPE/xnn0SZH3/rDHG78mIblT4sUKk7OY6y2DcCvk0x+P2P9YI1dwOdoXgUJGc6XMpWsr3HmxrJRdp30dKxeiWQGffOZz1vN56Wsl9d609xJOJ2PWt0w+fKdLtx+xebnM7a8UaA9iIm3AlQ346ONMAcoqxQoHRz4VR0gYcjgsM2uu3oz56KcuVj1gc8fh+Mhh5M5pXUo5P5E8U5vrzyUKvXN+IkkHc7Y3EjTLoH+ScfRJgdORRqz53FwvcvA4wXQtblxd0L7w+eAQvv31AlZRV4HHwTRma8ek2146v+ZpwvvPFny1Kcnfgbp6/KvPzH/5V8zv3Xb+5f8i//bP76+aKuk+DEt45RxGYtEo5Igdn6Zm0lKx8jp208VoFbDSiN5Fl+aajczD8DzaT6QBpJOJ5643ZrVg8dm9EMe1qZslziemEh4YVqyiJUb5MoEvXsqAYMVWdG5B6qcI1ColDCvMewGH5xrFMvSeapx+vCwJ866GN5dw2ZRiMaFQFAWCbDgaM1Gc2D3KZbmn1rCzIUPvGEtGO15CLZDcSYvOo0eqebQiRHf5n5ExOh1iawbHn3+iMCvlNMDvXSijgDhlUt8jmo7QvOVIphpHJH7G2aKltMMiHZHOtIouHC0Yz0N2ZMxULnH62Z8yGhzSb/dJvIXypRq5EtGsS9h/XzXWvFkPH1PZymTkJHkr/aM5USjxAjZzMR1IRxzZsXXyzpw4DRTV4GQyptVsqbupF0oy2ASnNMatZTTKZYxVuH/s8S4mb7ZMyo+PMWKfC89mNs+p6LxvRRpHKx5xYUIhdjmbeMSyUQ4XXLlkkRgai3mNS9stalrKRz9oc+XNAuPdBe/8sINllRTO88q2w+5Ohc2rRR49Gys11GrV4eJ8welRyqNPh2xfb/AHfzDCLUDdXM68IzNHezDEiA1u3KxycjLmk48CfulNB9uQuAu57+ZYu7TArCb0OqmyFvbPVymXA6qVOW98x2Q20SjWpgqg9t67BuNuXjUhU0MmCBnpRGd7LWI+Fjr9ktv72tUS7QuTs6nJuz+PqLxuYBQN7p9fcOs5WKuKCMbg3Q8SVSp/85dhFGq887MUzRa7o4YjmKCswEUuxism5E0Z7/1/l93/338xJaLtX/0hc5yU08M8Z8MytubTOYZcvsjZo5T9e9KpGqDbhmon6xI5ZxYY9zT2Y1/inZWMS55kmYmSVdSIRTzndpjj/JGlkqzk4dW1HI5lKNy+mFubpZRU2vlioJVuqZCpsgBDxBJuiVBA1v0Qr59D0yUCXexkcu+SThiMJNZddMS2rcZFll5U8rOueAwzT3F/pXElox5bZlu0lxiVJEKI8QIilr+nmoyCEuU9nUlKtJotCiFQIgQEIyl7WPr/svemwZac53nY0/tytrtvc+fOBsxggAExWAgCBECAixZSlEWRkUJFZkRHlsqSIku25VJKLpcrseyqOC453iL9kCuRnVRJSRVNmoRIyaK4YhtiB2aA2Wfuvp/99Pp1p573O3dmAIGYgYqpUiW5JOYup0+f7q+/d3/e54UVJ5LFZXaRn08WiLxPHl9Nx8jPajTG8eqZyxidHEFQqyPPB3jl1e+gVLEgUwbLa5LQUjlHr3voZMviDnECOWwl1pVP1jdKRJ0EPocakz0gS2AkDmYbGzh+9CKU9RL6kYmF/SkUhxJba1hdn4bfSFEbZ7fJAOvdDoqqh2oU4MwbA/zjz0xhgj2TiFEft/GNswXmG7F0gpg9hQNuiKc7XTR7GXajEO3LPUxOWbjt/SZ63QjbOzmK7jYq3QZ62y5e/4qLxmSAex4s0V0rYA9y9HMPq5GCGTfx8ukORrw6rHYJJ3Rg5Da8oIUOp5EHVQy6CsuXNrEwO4HdooPJQ1VceGYJO5seDN/DsSM9JAOA1FMLB0yQaPGbf8o9wIltBjY2Cjx0fx1HjnSRxz4unu/Dq2ZYusLiPnD4NgdXznFPJlK3nJqwUZsgd1GGA3c5WD5t4UDdwPqOhZaRYbxuYuE2F69f2MEnHzqEXtrHGy80cc4zJPvcahdYWS3wzPdMfOanXFTOcwZhhBPHPIwHwJ+dinFpsUBxnIiqW/8S4up3O5yZwJGRKuZrk3AtIVeVw6WZlalUFvo5vpfjroW7RW9tnTyh28DWNc4YYdqddVXJG8sGZ43Vs0MZWWfantQuKQyMB02SMOUlTM+XDoyKIuLIQ5aHsJQp4yoYa5mlxv6SqYEZWCagHM9HEHjCQM90trI4yk4GmICET5ysPUJIgkwFU9L8zAlhxBEzwSVAD4IsSJRtlNLWRiXBSTWc61II+KIgPZ5kk6XnVZrXmaRh65mNzU6IrZW+gPGzku5WiI1mB2vbbcwdWCCRKrx8BfN33QbI2pDFXJNwMQnErg8uL6Vd2PQt3aBesJ7MMQPDOTIElzBbPuVluP3eL2I76uDrT6dYvNrAkfEqqpVtrG9mmKwBlfElzE0UWNnpYZBHgoeNlcL0cRsjTkNoZdjh8tzpEgeqBaqBjdApwXx9r0wlCba9uYNeZwSZ76IyX2CtXSDpF3DcKq6+luDCqSs4uH8M/W4b5raPkx+fQVXlWN0ocDFZY9YPecqsqy2skNs5LXyJc2cHsM0CZU+h2dpF0sowaA/QrVgIrBqiENh/dBK1mgGv4uCN10vUagnGRitYvWQKdejcvIUrZ0s0d0zMzYxjtJ6jvW3i8iUPaxup5EuSvC1ZZE5ue+BjGeojBpbPuzj3sovaRILR/SXOvlZgrGLg3FqJ3S2SFVhII1piC9tFVxBZM7USxoEcu706zMQUUjTzGDmoFL76JzmyborpmQCclJ6Sy57VgNRCGJIBUTqP303srr12UwFlHWdzeRkXtjbhByQsJmyMjWSWroeyhigMByZM2LDZNW4CWdSTidSm7Qs4uMxJmpRJecA0HdnIzIyy4Tj0SWBlCQyMRXUKG1EarI1y81FJMEaWzy7Zi0r8C60rt68p6BhmO8nGYrsOHC9EzQtlViOzmSTBZsN33OeIdA560vNMqSookOxqoTLgrif5MgV/qHtkTACFgQkY1llzg5loxjyxKBSej3w0pUEQNZVzCc/JcCHiqAsy5ENKRpw4fXVpUxQZ18gl9nfjdazHTbGMZDkgIJvnYsa1EHpQ7Q0wq0tXVurOJhvWXYEOpmRRlGHCJepzOf7oizbOnrcxMm5g3yxRWRW0tjuY9BUw8gpiL8LlSw44WfPwPg+LWwrnrsYI4hwHDryJy1c5H7WOuZEIrR0giQl5U9itmXgzy7G80UMvzrByQbdutbYy7LYVzGqC2+cMjE02YNXbWNrYxnitKoRiDEc4XnFiYxRROYLVzQ7mpybheQSlpJjbN4JTz26gvdzCXXdXMDs/jquXOuLar18NsLy4g0OVClwqjNEQaaqhePffP4E3znSlIX+kmmPfvIXRmUimoz31Zy5KVNHrKFiqjijZxPzhFMlgDK++uIuxRgi3VsW5N9dQb4RobuS460SJJLXR27YxN5bA9Qys94EBLbtnobmTYGd3gNHJOjJjgIW7ujhg+rCMFDsdE5WGASM3sXm1wLdfScG5Fe0dB995uoMPf5R5hgJJO5CyHOcXi4a9Jobf/4ebCqiwuB84gIWZWThGLugcKePIDh6mo0yKC+nzSYFC15IZ1ligbbSSJkm0hCWNe5txmj7e90MEAedQcsalDQ6/pVtMF4AkxBqap6t7tNhiPYhyYqlBpUNXgYglhTGyEFqmkFDzGqQcU7AeS76YFIHgEDQfDy0n74vTwBlDMrvLc5BdOCRZGa+VrinXkR4CKUPYnG6QGZBDhJTEfASC80sn1rSnIOMhnACDThWFOZC6Hu/JcT2w1DM2NYkoLjAzxbKGB9OboP/B6o3cD3/2qRYKdutorhwy8RMNQmVJOhrep8OGgNSSpnF66HaYYmO9i6sXB/AKB66zX1qbPNNHMnAwsBIsbwP9VgFnjEqQl2Yit0sszI9g7MAxZBsv4pWNmFoOU/UEl7Y4MZ1JHB8rnRJJ4SFMKvLm5m4PVmDjbump9LF4ycMDB0ZxudFG5lbRibro9DZRXZ3BVaOP7qVdIRdz50OkRSHDruamK6g5Ntwq8KFPLuCO223U6iam53OS42N9CfBfTDlODGaL/E8D1I41cOiggUyxdTHF4oUOZh+o4vXTHvK4CsWJ4aTKdIHxsXFsbPZkGPH8bRYwtos71Qg2V0pU6rHQrG6tpjh6t4vWTgG/rmBUciFmGw989HoBon6GXpd0rQWSQYHLF7q475iJYKAwUKTptBCMUPhzVCrA/e/3cdsJF0+/BKysdLDjRHjyWz2M1St44H56YGzpkm1zS//cVECzOMYHfuxTePjOvyaM7cSpDn0vgd3RBaTAie0wzeHGJtKI1Euc+kROokg2dlESEtWTjhSibgyDlofzPino5EITFJ3UT0uDNT5bEEPyGUOQO+20UZgoTGJpNbmTwR5I7nCpvdIVJHkYBxvpKWEkPKOl1ZaQtOl0EfWcFyoVoyR8kcqDb9CKhgTIVAIoeFUKinQATDjFFFYJPIV9nRhhImEoxJxwZdi0xiZO/eYfoNhqgaMTCbljRpCW37HpYTj4oY8dw8P3PSzMdLx+ShPjdK6ZXKdBRBIb3AlGoMCSPoXKi2ulUOY5cq6hvinkRoq5N9bw4G270g44w2E/6ZuIk2lEZYFWzl7YGHa1FFD4TsfA6qUe/MzA43c+jnDsKCzjIh6bXkO/H+CNVonxai5UlIL26ic482yKILTghEDUz4V1wfCUMGNkysdX/3gRnSWOxOih3e0h8B3MrteR5C62mpu4rTGBqmdi7WoHz357B5VsDjPTHlx4mJ/y0ZVBzgZm5qo4f6WFhdsDhN48XvgGMbgu1pe3kbar2Fix8drprsyDzQwL+8O78OzGBbx8JYE5qvDgB6cw6JQ48/o2wmoF2zsVrF324Hg72NoCrDDF+kqB0RkD+w8VOPN8hDtOmBhsN7Bb7GJ3y8FqHsEryWI/gnNnWtJXOjNbw+H39VFtcJZoFS9dbsHIPGxv+ZgMTBw6keGF102U/QwzUwZWdkrU3ABBXmKkYmOsQvDENfH5wQgotwyTLVJjI58PLYoEaSzwM/Ws6auFDY1TX8U6amvAHScZXCOQZAq5bE0zlPhTkizifFIwNDkZuy5EAA0HhcnOkxjClk+RLTn7ZYiVYVZY2PYpUHr8oGxsyhLB4YSAi+BouBlJhzlSTiyVxZEDRN8ogVxJEodKhHEy1YhcP+NOBxYR5OQJMpgkomIqSFAjCkD3myqJLYhTYbcISlu6R9Iow+5uF67l6ZR6WaDe4Ng/A2tL63js0X2454F5gUn6ghjy5PNpNQ3SStK1l3umu5ALXtly2D5FqJG24hRjeS5UGsgRdUNMBrMYnVqD6/aws/s6VldKRCyTZTk2d1Mh+57Yl6K/zXiyxNG7fLhpgP/i2GFsX74kGXWnci+ifB23H2xjZc1CVg/QrNdxyE1h3OeitD288r0MdiVBvQG8+jTpJ21M7sux0uxDFZYwMNYKjoXoY5ntZbmJRx4ZR3HFweZahNG7bIyMOjJpzB+p4MX/dAmLl3o4eqcBq2bB2qZXY6DTzLF0RcGtGGhMOCicBp757gY+8xO3YWauh5ef7wCZifGKj2qYo9sGLrzaxOhYFfXQxR0LNZy5rNDpdVHHPLrbIZbOrWBjrYVHHz6IvGNhY2kXtx8cRTZYwe6mi9WeA8QBli+2cWBqBJUjoziyUMH6DlkeclQbwMplH3bu4OhhBc5fXbng4elXFM6tAHMHChyYdTA+Q/kjDDPCxGyJUa8KTwUwrR0NcBFzdHMZvakF5SkMIcgnysWUNiBaP6p2TggzFKMuxSKZuLEGhZkcsQatD+M62nMez7iAAqSTIWSmo2U0CwsWj6ELC859FOmXHCrfS8s3tCmSJS0EK6PbxlBo1lDdps7zapebtlIETjpyCMuh1qKLSgMpKS2B1tHFMwoPJRWIvFcfQ+mndZbrlXPRNaHh5bXQAjMmJSM/W/PED5ZsNK+d81A3W220+xk4AqDLobazM0IPMz01hc2dNo7e5mGsSjztgP66nJMuNVFdkijiObmKKr1G2M1hRMTp80J4ZVoh6mCGUMDmYA1f/tq/x3glx/gIl91B7GdoRhHS3ENrO4OdkuE8kcFOvllgecPEvfVRjLS7uLi1hag+jt/67hqiUYXfe+JBlEUL1sQoOnaAvHUJu7sDXNhoAqmFmYMWcSuIYwtbazk6yzmaG33BMjtWBZx8NYhi7DZjeIWJgZ9h8sEARYtEYD24VKRuH11l4cgdIZx6grHQlpmuq1tAmXoSgpx8pIJzL1q4eGYH6yttmUYX2X0cOlHgtRcMjE6QnNzAQBUYOWjjJx67Cxu7bYTMF0QRXl9cx/ToCLK4wCAdoFbz0Nn1MOg5KLNdPPigj33zD+BbpxYxsU8hWfdwYaWLvFnCnnKxcXFHACHrq2xpaWBx08JENcVUfRLnnuohKUPc/wRwf6Gwswtc3cyw3LIQxy7GJgqc2ypwcK6BqZlRZLGJLNkEoX56b/1ABJTMBBzf3UeZd4UITE8yo4vKUQKU8T2azmFMKoLsS4xTkA2IG54tZ9zYzHhwA1JYKPjynS4jX9RZTI5/o/Dwb8OcsCgDvk6KLr2J6UoxxtRCRzdQXExt31AambixbCkrCYVTWmhpScXiEWBPF5odL1wufqYoh1La0LRiomDSempFwPPzCqRThDcgmV3SX3Nils5mE9v72quXhRcocExpDp+b3YfV5WU0W13h7F3YX5XmbpF6Sj6FjgqKGVkZ2KOvlcqABNgUfD5QU3xgurVcZ+0JSMShSLXp4Ed/OgAs9sKmUJFCA8DWti0jKCo1C7aZ4+zrLPf4iLIMOxdstI73sN5rCQv8K5sdDLwWzD7wtdM9/PTCCK5udlGLFH6oHMHHDu/Dt/Md/Mf1K2ivGCh6IY6eqGDjosLGOVZqTamVp1kmCCXLCoXviomys+f7iA6VWDhIlvoYtz9UwBlvo6X6uO3BGNttA93QhZ05yFdjjE47sCMH517u48yLbVS8Kmq+jSMnSPpWYvONAicf0qwLtZEaDh+rYxtbqE5UkPbruLCU4NG7Z+E65AXOpQlkadtAYzpEPJrig/fO49JOimdOtzF+5lVk5QQmFoDKpIGJuXEcvc0Vto+F+qzM16nNB9Ia+MKLG3DLEscWpvDaH+9gudkX633s6AgqlR6mKlXs7nRxqRnh6lkXY6M+Hn6ggUvnewgyBWOeWYxbFU+pCN1cipnBkHjIqIird8260K1j/MgNxD0u/2OERGvK6Vm8FNlaMCXOpBxQIjlanNaRHjFf1/8ZzFxK8slAXrKti5aSX2wx0sIsUl4wQcBNzbdqfKyO30wpAJcSU/K6hppAifMqcbIsD1kLwSRRLBOtaZPE1eXnSCJIW22xauIr0K2k4PI4uuO8Jt6wvncmpRgf8tpcxwMvnfhdYoyr9QaiKAFjd8IhH33kftxz4gjYz0qh5tto4sWFZnKKOGbOxZECKz+TRpZ8tlw3Hsywgf/RY6ALDOmvZfLnq3+yDb+eob2VIO+T/MxGq13KDNOJg7mMbm/MOZibznD6JYXxkQLOBEcrZNhd38LMSAd3MfavAMmBRezax9Do+iDTc6/fg+Ok+IUHDuEjD8zhi1un8dpiB5ubEdiBNnuvIZ0/dpnAG7XR6gSIB21JnnRaIYKajW47wumXUkE6+aNUrnpQ7sppC8ooMb4vQ9aOsLpoYvV8F1ErwaHb5jFaNTE7W0P9ZISJuzowixRTPjteClxY6qMXRxibsHF2MUJrZRusyWyZERqjB2WmZzcGpvY7uLyrkJZA1MqxtbqDta0ErdxH41CGujOGS4vbuLxqIW/H2PUJxB/F5vYG5hdmAbuCXncdPvMsaYlue4ATd87h9a++jO98g/NqXRRhHeW2hcWlJhzfhF3aMn7xa99u4333hthX14lPsSGyr2/+zy24uNyNPIybmiU7zlJjaxX3o9YFtE7csAVjOZE6anf+QIGkNaDLyzY1bvxh4oMb3mRXik6y8Ex8lUJFN1aSPiLC3JRUADxWCwoLJ0KqTTeUMbBYYdYptctp0RLLKvCMTPaQMVy75yJXVCi0sBTgwoXFMhHfy89ArOM+KbdQEMgjOxiqHsbYzErzA4c1Uik50VpTCfhIYgMjYxWh8WCrnGt7aHda4rKPT0zj4UcOSudFt62TQkPNJjVWUWJkJrfI40oFxOSRDhAYNlgcGUjVwvsmJJN1Z66NlUm3yrPf3EF1nN6HhXgQYXWN2XBg/rCFlGPwOBy3bGCk5mLh4ABHAoUDCwbGqyG2UKLhOTh8W4muF6NjJ/jD6AzunK/Abk3h+OQsamWK1s4m9tdC/OLBo3j2UIJLrR6mp/uI1QbOnQPm51PpiNnZdtEvyDVluDAhHgAAIABJREFUYPsq6+BKgPpLFxUqJtA9HWBitoZBkmF/7mOqEqASWVg3Opg+YWP3jRybZh8NleNDH5jDaM1Bx8rRXg3QH1gYpA5aWyYGeQ9Zr4Bqm9hulqjZQHtdU7KwWXv/SBXPN9exnQ9w/76D+KPnXoDF8CoPMOFXYccF3GJMkGpvLu7i7vEH0DU6eH17BZtLXWH+b+Y7Yk2XLrWxvzoqZAWb2wk2tndx37FJvLbaxOkzF2CpABknpgcVjE9WcfXyJiZnx7B8JYFT8TAIM5QnRMdqm3Rz+RTJu+lhmt/WluI5JXBvWC81ugAWxHxREClMdL+05dr7iWUNxm/ssuCMcQotZ2Bw67GcwrqoNvz6fWKteR6xFNz61LZ0k6kVaHW0rZY4TCJPJmiIeeXrPJYCxKwr9Uap401xU2mFWb9lE5dODGk3VWdolUpkZqYMZ7J4TVQIRBPp2aEcMScegbic5OxlK5eCzWvi3+wUST/HH/7vf4aoncAsmsizXdx+9HZsbG2hWhaYMLkOdIs1IELsIMc48tZZiyXgXaIAFj+pVFhx5n0YUI62nDYBFmzhG5aR+AbWiAO/isEuLaqL0ckBqiF7HDMEHHvft2WwbK2Ww4xLzFR4Vht+z0Phk4zNlZETu+0Ban6CiYqDaFDFBrpY3I3xcmsLdx1oYMwYwWF2Aa3m+OTJH8V/HkRwext4ZfFLqKsBstVQcMVzM+QcCtFdSzEZxpL9XW+WmJkEQjdAUiVflE4G1QI2FDRlbEYAEyOjCkc+6KNnj6JIyDzfxuWtJtLSQ70aIrRjrC7vIsqrAtXb6u2AGBq17GEnSxCGJtq9HnZ2OpgccZFtpDh16iw+ff9JVNjvG8fY6vVxZGESuysrODI6gq+/9DIO1w9hZyvC5qAttCf+jIOMLneqJw585LGD6Oy0MeqwSjBAL4lx5GBdJpmPzY1AxTHCcEwSc6Zvo1GbR6+fQPWBy6/0EFcVyjsFz/ODFFDaNrqebL1iQoNCMHRjOR5cNo8maWZ8Zg7JqrnxGT/xeB7DCE38MRb65YsWme4pBYqWi8cPnWRJE/Od/CyWangeHq/dTDmfzIEZ1kKpAMxUPE66fozjGFlSOPVn0NpRCLUbShmgQIk1F6PNzZqJG2+UnJeqpPQjioGbiMJNj9Yhhk9bfGakeR3Kp9AQWEBWhwIu2AxQEZQR5266uYLdb8PZXobb72Hx29/GvffuQzjRQDToiCci98M6LKld6B3QeubMJFM5UPz0eA3x5pmjSsjrpECAoqSz0y5cFJidn4PtRfA8NjDXwFjechIkJUOCBBkcTuhDpKrIg44Myh2xRpEPYnFP45EEaNf1eHkzRlinpRrDsfc5Mvb+fNyD43WQjtdwPN2HjUhhbWkRo/s8LNxzCM2ohUm/gszMYfkWRoxAY2WHoJMFKqLSQBgQ4skuj4iLCptAj9KRIaMkm6O3EEVtWUt6auxkqt8RokKCAFuDRQ6mgZS76AVl9hVMT5b4uXsDadVjziHN6qh6W3AND/MfPoiAnlR6CZ88PAKjpPJVmAr6qA8M2PkFPD7nyniLVkzGjwIGCQpkD/vSk+s6Nhp2Bg4IoNJlu/HovdyTO/jI3cxT6CnhgjdTsSRNiSDiBTm5jbx0hBPJsntSMhsKwU2/3ZKLS4smHS4mtyA3kMamssOeF8Sgqyj0jTEslRtjFzS/uLHFJeS+p5DyDyJ6Ov6UOJVuI4VQ927KMdyUfJ8ImbagHOIuyZiSyR2OlNAJI25WQwAQTFwRYUQXW1s7mUtSUJC1ewy61YTWUR3It6E1Jj+8CCuVAnO6WlC0xeY90H1mLyrViHY1GSeKxy9yb8I3XHHtyWq4b9RDe7eJsN2DsRhjruqi2UnwH/7DV3HuzRX817/1Wew7tl/mfrDBOqKKoPAbZGRidjyTvlMJc4eeAHWMgCY4NFLZMBlrl6UMPw7rGR75kIOS80FNH57tAA5JtyXlDMuMtWdj6USc5+xDWkY47Ewif7GDjpFj6oSPj1mzMgKSzd0eQSaME3PWifWa8/OoeFq2hfhyB4tLG5jat4C7j02iFXEqoPZkuEMy7gllochCML2QFgNEeYFWt4CKCa2solAuEplSQOrQcNijqySMYCjhuDkymwOpFDgag83qnJLnI4DjWQhcFynLcWUEsu9JGMQ2QWSCmCrVLmYd7hAq5ArGwTGT1NBU4QUONThvNger7hl6GC1z2EUog5xZoycHFhW7YzHTHyM02KfrihfHHWswT0JwBOlmhMZH/Bmhw2HoZ9p1ybnkiDBWGDAvy/bSTuZNxfMWk0R0LzkunVpHNrVkUnlx3OeEulFQOQGTVou1xGFWUrC3FEg5TNw1XhMtHOWU52XtUP4msR/3kKblJDbWFBvB3c8jdFaXAki3k39kMogv0c2m4HLYMMs5BNhz0/NYup8lyzfUimKDaR0VMsUmaM2xalGjEgcqsa5EeVqR0GQV7Dzg58SaB4ifpxJ5r9w+QQS8ZjYEOC6aa20sPv1dgdj1ycnEu+j3cM/JO3D0fcfw5pUdfPfpN3D55/8ZTt53DHFWoLZvAp/5W59EJWTHiieDkNg7SkQM68/0XMRcixIjYEE3vpdsPKeSthyYZQa3TuAGjbcLGiQC7m3WYhUJrqpyjeSAyllqSTVdZcWaRXt3A526hXWC+1Pu3UxiZ2FbzNri+Uh+QNZc56+yYgWHG6M4ePAImu0IyzsRlpstuNwLZQCjJHNFDs5iLdjJFDMpZyHNTcQJ27IYK3MURyr1bSK/DCuTPmBaSYsDrsxcGtlJHOb5pfTm0k3ikOLA9+UabUuTyfG+SLvj2rawSBhliKokMYlrziUDS2ipyTCIeGo+e5O0NKxrGzJZjUlD7l0q8zDgMGBB0Up2ncpYJpBQQXCINHmQlSH3arqk03R1Es/ku3OZ96KyFI5pwbNrko8P8gFgkMz1WvAne//d/rkFC8ptOPyimpCtO/wAkTNuHrp9HMVAq8OECQWNVlFbTwqUoGC4NlwALV9awHlOxqQFETfaVdZZXh5EHcVz6Y1I60LBJKpGYjJpCdMTu5RoC1pSJqo0YEL0wLD+KRcuj8IS7UzMq2VPwHLItTsE9MvC6TvUx/PSeK/8WJ01lqwzNbBeCllr/o3XKTZ6JsY/+l9+X8orAiksCzglMFKrYCS7iPjp/wndQYhOd4BUvSCdFNO1MVSeWoLjOShsB4bD5A8DUVoSegV0UXkR1HS8JnHcZeNIVZfzP1WOH0l3pRzFlePEZx6ulRwvM0ehROdLAi5NYzhWiAl/CYPRFYw6OY5scf2I0qK7uSOCzcQZhSIX92LoFQl4okTVfR73HB5Fkkew1zs4nvZlqbhxSaZLxUXWDXHVSb8icEUHCAAz5PR1CmUp/bJEWzE3wMSXZeaij7/n1zBwajJEi43pFEIqYY766yRNOa/MROGDNljs8lCKZWTbXk8mitORY6ODKHUy1Lvk0CLiKxR+q5LWrzDgWZ7sYxa2PNOTdEZuMS1AWCITjRx9amsWEa4FE3m2qZ+BoeBYLEfGogBSpRs9fIMk2IHYICnvqT1jI8t0S//cgoByb1IouNB0k5gZ3LNijtgkXfrn4FNaH9opXReU2FV2MuNXbhJfEkwiduJ6UYILGS+uN+TQ1DLpwQQIWGbR1pi7zaQLKdLNqzBgW6HO8Ipg0T1MxdXNc7rbfZiGRG8wTAo2Nzqt7lDJGGTDmxCC61taqVs8qFEBPvSjh97x6HLLR/HGJqxpYo659LxmUh10kQ1akkzg1ckl0mOhT0tvYRjv8p4pmuJFiI7SMTnfQEGuGST24hmGSkWuQguVdOVIjM8PULrRoOwiba/C8TVKy470c1WSbJMVk04fUYq8DNF4vGrdCVQoziCUqUb0z0UhUN9S6JgEk2G4DsMA/Rrhk7wDuUTJxHM/aXZHERpqodKCyZktRYnTRg0RbBlz6ITET2t3m96cYwQyCZuNGt2kh8JkRxXHeXCigQsKF0dVSojAUhWvh/DIYTWC9XlaX8fiYGdeh6ysjEhMJbfC4U4G0jITBWTKnNwSPqfPKVKv+rAsdlpxrfVArpJGquCApwK9uIe+VSKgFxalMpbDJCPme/y6NQE1mBwiDE/EhHUHedSMh3K6WyxqCDePxsfy0fIRMdiX3UaAgcD36NZQILUfrpNDFGm96XisvE8ysUNBEgHVIAQp5tOllkXhpzJJxbiDu0fXQ/nAJMhnLGoNZ5lSqIdWl7GruLIcDSEOKJeAn3WDp3DjIr7LSzcedis/p2TfVxaslELDz9v7j+yIvA6uMP/KNZUU0PC0sq2vfQQvSa/OtT+JSF5//PpJXX/17T+xXkxJ4mxTrgcfoSFjCa8dubcc1KFarPRLe3+XdxFNxc96+9XovzAhtAed5CFaBPY+Qd8rf2MnkFyOjoZEoHPDQJ0jMNxRgSXyGSujQGBDiKu57VK6/7aP0bERaVBXJpkiGWw1hNLFslxEaYY4i2G6ofAhsyuI4JosS6VzKc5SIRNnGKH9Qr2XHGa4XQeZSlF4VUGNaXc6EqJ1tgSy5isKgQaJgs6ZLmzysGzp1aVCoh1iFTLKE+RJLFLBQb5/ccX21uWt329JQDn8iAV0NktTezPO4YKxGVqEQIDve+PD+TiZ2RxuEiaBJCmktHAS4iUlE4IfaEv1HMy9y9LCyg1E2B3vhBlelkTYRcItSBeZT5vxBJ1KrcFkr1P7MnFFrS2LoB88M9BcOPrW+tq4E9itv7fb9r7zKvRj0sKjZajVbsuYwtYu53Mq5AU7ZDJUwgrmpmdx/M6jQum5dw83+86Hw+sQCyqP6sbHpRWeFtahSynXdLOz3vj6jfdz499v/JkWQvcC8GiujAjRO7z1xqu78Qx6m9HK6zO89TXJBUqJiO/X98wj+JN236/DQHW9nN7uNVee1KyqK4OXSZnJOZ+GQ7hoicTy4Li+hBScWM7kYcLX2TzBRKaXoqcMqJiNhiyJlDK+3jJdERaNHWMDBwWIajqRnAWFzWR+Io2QlDF2YwXbDiRRJiqVQ6MdThtnWEUniOYkg03rWtA9z5GqrtyEa1U4rBNpOtDzXg0PVWav95bgHdb57evH329JQGXhmPiS+ITKnoLBCyKBMov+/DQunSuurDwEAajrR8dkEGterH+ysM74DzIRje/jJfA78a9MGlH4DSmwyzmpwSl4Isy0tPo/sdJcfW51UQA6DpSbFJQRm7fpApIH1kBWRLqkwR1QZMiMLlxnVj6Hj5hfes30v8M/4bnnnsNrr70mTBCMkUgc3R8MtMAr4HtLp/Dqay/hgQfejxMnWIW+lS9+Bv/b+2T9Hm0nec1UO6JK9FLeyinf8RhZTInL5OWhheLPWhDofnLdhhZdcgxvvaZ3PK1cPY/jCckmKIXboQfAvw+vfehwXz/H3rl5XXtWnlZWrmh4TXvPgX/rYVDEyDm02XeQJz1QyNKCRbEYNkcigiitAoWt6WMHaR+2ckQoGAqTEJy8zyKcRYwo56RyV2hlxdUnQNGydNKQU+GUjZiOtW1LHoEKmZqMQ7QKMl1ACd5Y4udhnT4rtONs2DQ3VTQHfWRJW5JT9Og4OlPxepkNf49ftySgpsWWMGZGdf2ILO7ivpL+g6ljPhBxPfnAGCfStaSToO0bPTfbZMdGLpA3HafSpaBAMsYcukniSlMA+Yz5GhNNGlygH7q+3D03mJqYbjYFkGAH/Wi5ObRVJqDB4iCJoU/BGIrXLtlowueGi/VWkbz+25NPPokrV67IYOJDhw6B/5HgmwghWlBa1LNn38Tly5fxzW9+E61WC48++uh7eAR7G5ZvYdd9H3AqMLJYPBMlSuk9nO6GQ5kUMjjb1A1Q5gMYdnXvachR/GSiuBSjsqGCfbvCuOF07/AjvZxM08QwrmO7nDlsiBDFo++N/4q6yTOACRNx37nGewIqWvbaNe19EL2bwLMxGoYyOY77zPAYYxvSvK5UH0ZJOlTugVzoX7M8kmRNnkVCg8pxk0zYmL6LHE2xlsyUF4hQqoFEwYxVE04vUIw8HenbDdj0b1kY4zxVuv7MkNssr4SSO+B9SpjHoWFxS3IfHEFBIAvbC8mo0Y97sOwQpiK7ZYycCaOYe7nzNrW8d8fv/P2WBLQgcoWZRbLJM+NJ0ZLMJZMTNH46rpSYjsVouqLDJE9mUphtWPAl4ZANtTTFyGBWlh0xDPCZCZbGZFpiBTDjJYkJ5jToRtH14xeVwBBlJL9yC2jwgKYw4Xl5Lm1RJa8xtBJ0aQjr48BiWtah6tZxssjldeH81re+hYsXL2JmZhZPPPE4psgVSudMpVCDdfhhAzMz0/LfkSNH8NRTT+HUqVMyxvC+++6TY2/9H0lvA/f9HRj7HoARbcD4838ExC0JD0zLl7EabHwXz4H341aAjKUiBdP1BUpHITFkQhyBAA7w4f8B1uQJFOe+gOKF35WaKBUZ+Z+KaAeYfQD2A78M9dVf1eMqCO/IY6EH5ZrqddefVWaRPFPTYeugQjn7IJyP/GPEf/IbsA//MIzmeeDMH0mC0CACStBfTJqkKF0Pxcy9sDbfkA4SWFVR6EQ/maQvpfIe+i96zWhhAZdzeLhH6H0XZIlhhpf0lwmiXgrboXvpIQxqaEU7yFQXjlERfifCHWVIEQdYGa4Ma1ZGhDjWoZUpOGxON2ephIOjySPlIlYD2IpJJhu5xXZCbm8yVxCjwoYDmh2WwzSAoihj4UDKkgJ5WkoTOBOqnKXDTIzrKDh2jtxg7XbPJNz6zrglASVqhiwDKbtaWJwfArqZaNAakfkGRn+E9Fmc1wDl8PJYdC805w/dICZq2DvJ89Dt5aoTyE7LZpTwJJZlMsBC6YUyn1RrWlpVah8mnvbcI1pCDTVkXVDc2VwLZybZZnIU0QOTAfUCbNA3y/jBQiGgAg2Z05b3+qItLy/j9OnT2L9/AU888QQ4DClvr6D/wu+hXHwR5mALcXUcWPgAwnt+DvPzh/DYhz6E737nOyKkBw8cwtj46PUT3uwn1uW8MTgf+FUk3/4nsHwfeaUB58CPgfQH6twfIz/8BDgpPE86MOwKynNfgHPox4HRO1C++Ycoxo/CHLsT2dLXYa+dAY5+HM7+RzA49S/hTN8DY+5RFAceBpaf5+QnFPc9JiUpe+YhZB/4dZQXvgQwwXHHT6JYfFrIwY3JuyTja7z5JHDwYygnboN55kswm+dR+hOwJ++DdezTQG0MdrqFvH4QxYnPAYtfhxn4KNkOaFeA+gLc+34BvW/9JtzRY8DG65JUKWbvgXP6Syh6V4ZZ7b2FokSWCGwPyq6xKimkaWzMGJApDCbqfkMAAyLkSYl6UdMZ2tKGg0Bqpb5bE1ghs7fKimBZDeGdCty60PKkVLZSRmGCERioSEYlknLHLgO4CHXirGDJqCIT8OKkK9juTNBmMSwjE+BElpBlMUEv7Uo4RzJ0kuCR8M1WrFGkMMkgKcbirUm/vbt+p++3JKAkT9bFclvMt+FVtcaTWJ81SiZOEunyJ3qCdohxpNQ8JYtFqB0z6HSnmNzxpS5nUS3xi6Uwghp48VQAtMI2a1AcNMOzDV1gCfm102SKG61rmqzj06rv1aGIQOG5eF66P1wc2h7if2jAKea8Nt/dDxh0u/R10Krz69Rzp3Dl8lV8+MMf1cK5ew7xF34FRuuMVhpGCOxeQnHlKcRGHd7jfxdzs7M4ePAQnnn6FF5++RV85KNP6BuTM163zPLr2/+h5xBtI3n6nyJ4/y9g8J1/CHvsPpi3fwpF3AVGjsMbn4Yx4CYzYHkjyElJeeiHUXSvwnz0t+HUppH3tmHuvImifB62PwMkHTiv/69QL+ZwHv7vUE48COvAE0gufxnBvZ9H9My/hBMvw504jrJ+AJZLUEEP5n3/LYykC8OKYYXzyE0P9sFPQPUvoHjol4Av/6LEaIP1UyhH9sMMJ1Fe+DOU/Iz6OMz9J1FyqFT3LIzJu5GvnQfai7Arc/Du+yUkT/+PsO74NOzmJeChX0H5tV+GnrdwwzqRtK20hOWPqCDSy5QpW+3ISaQhl924h5ggDHJbueRVjgVUonoROMa+nxZoocccq9TeHcapEjZzxmgk+4BNEg5jUsdFWFgIEQjwg15AP2O8GqHiNmTwFB0YlqR6USKDedn8IQ0ghiOZ3YR10JzhnI8wDHSThjCc2OilHYKnYaA13G833Ovb98MNv9+SgHJTMJsuBpCDewUzNLSI8jnkAgpQOhqyx5iGcHSpWRJJQiETl5PZWAqIjv/EUx1GRnSKGIuK+IlC00Nm6K7yoezFpbTYkoKQsgrdZwY5vAjSYNKm8iEOG7n5HIf/Y8QrfaASc5m6SXy4RjcKaBRFeO3105iYnMLRo7dL/Tf+9m/DaJ+BHUxBqY602BVxCvvB/wbB47+OvL8L+A1JElWqT+KlV17B4088JtxBoiWGgn/Dur/1R2as/TFRar1T/zMqH/7nwNknETcvoGyvwl54FIh3YHR3YLL2S/K1YB4q6SJbehaV459B9PL/Bvvu/wrmyBwMhheqi8L1kY2dgHPyryMPZoF4BagchOGMAhe/AXPxWZR3/BiKpedgHfwoTE8hP/sVBO+7HcoLUG5dlNq1F0wKs36++BycO39cAyUI9OgsIm2uIbz9JxC/+Psw6uMw+m3E0Qa8+hxUZsEmJUbSFHfdjGIUS8/AWH8FOP4TyJa+Dfeu/1LGTUgWeZhc4mOhpdnptZCN1oVONc9cKDUQxgmn9OC5FkLHRy2savhjVmCk1hBPKo5jMQgWUWCci8pQwCxktAgj3qRPtgu6+gQxaL7hnKMCGcaVhUwLCNhA4PqSSWHHU04QCFOaZhWNgFBKutCcDUQ4ZS7JQxJgF+VAYJa+66JQrPtzIoJC1fdg9mj939vXLQkohYpbn9qC5Q3LIJtZicJiLEr7NrRYglbJQZpJggakHslpzUMqFOn4EEEhWN2TDcwamFg8gbNp089/VcGCM5u92SKVCskUXVMhH5N7JKqEAk1xLQT5oRNKXHgbhUVQAhNI7KfkeehesM+SGpdKQxfIdapCImI569b2NlbXONPzo3J9yeoryJaeh0cintoMisb7od78Ctz7/wa8j/0TZBuvIP3yr8P8yd9HOH4E+xb24fKVy+j2+xipcwrPUAvc7LlkfbiHPoqCkLHFpxCf/wqcD/wajMYhpOf/FOahDwi8jKB3oXXZeEGmnhvHfwbxla/BnL5LMs22PSpeAZa+A/Pop+F+/PeA5lmOlkJhGTCiFswkQuGzTc1EYY8DRx6HuvSnKDwPwb2/inzntGw05taYIU83X0U5Ogvn7s+jeOOPZC8wO1mWMczzX4R5/88L0L248g1YBz8Bf/MlIFqGPfthGJ4Pq7sE5T6IcuKguK5F6zKMQR/2ib+B7NJ/GmbhRUXrVZI8BS0Cp6wphJycl7XQi7twTAfVIMd2Z0WoTDmyPsvJshiJKvZtzi8tkHB+C2liyHulKvA9E1XfBr1B7kPuOZYLe6yRslOIjBVsWOC41DJFFplwU8JFbcyM1RCGdI9TDKIePNtDr78lBGWuHbKVBKq/KwJNWeEoT+KxmROQ4VucCOiFqCiGYLe4H4b75eYCKgE6Y1DGeaToIAxNR+3ikgrycADy2lI7sdfOMEMhk2a+DCY56ljaIH6VvmgGU9qkiOpgEpjCzIdN82+JdRCBs2oyQMgwfDGQGuxs6LlGdJDF/NIdJolXBjNnXjlBAdahlPR6E/YlPg2FkjAybn6L7rUjwGtqUL1c1xfNcm3cc+8RHDmyIEtURNvXOGRYFA8+/s+RH3gM/snPId98FdGXfgmqdxluugsbR/TIRkK9hJ/kZlI5fF28BAU8+TdhNhaguldgZwnKb/w9lISdddeBxW/AiNvg9CJF3GrUgVp9GkYwBjQvAJVpYYhAZwmosPWpjfxrfxtlfRaqeU4jX6rTSLO+dCYpdpFkAxRf/rzu0ImbkrEsrzyDsnuFGRBZJ7YWFmkLWP8e4E/D2HoNZjCCYvFbKFeegTPYxeDfPw4kbeBKD1j8LsreqngrxsVvCIzO6G8hX3tBAALyrFQE9fW/ByMcR9m+CtOhImNSZZgIZC7CMoRcfDex0BbuKt1TbFoFtndIaUKs70Dqo57vwTISwb2yC6bkaEmrjkqlikQpxMzqprH0/+Qpy30GSpPMhwTCl6ClnaqMoh+1kJUuGs7Qp+LwqqiJVmQjcAP0ewPJ4PeyAXJhofSlAZz6JPAcGUlI2mIOTiZ2gI0G9D4TzsRhSxzCa8HULe6MW6iDylBYC6UToCzHwD4bLWiypiiLSBKshRBH01pFKNGTwi9ZBAiXIvCb3RECLDArkjljMMhyDGNEup6ajlMLLFu3yLaObAh3K5nwGfIGCWpMF3AodGxXssi969JSSwFGJ2dJbySrkCHPI4BM9yxqk66zILt6jNI/rrECPE58a2CymuNz90YID9T0Glq+tvCsTXY3YfQ2EZ78HJK1VzD40s/DiTdROGztIpxQJ8uu1/iun1ef7F3+ZbcIy1ZbpwUdw5IEupuShGPmEr0VlAsfQrF7BlZnBYXtw0xaQLwrc1bN3iaKyftQOiHMziWYhDeqHsqdMzDIQF9EMJuXZGMSyleqVJDORWUWZjABo7euE3E7Z3VLF1vBhp4T64RGny72JorZuyQZ46yfEdIzrr/ZXZLzmsSnNi+Ix8SoxugsiTCAAPqIg4r5RMj968HM2jCaTUBgmFz84QPY+6lQGKvkUAHheib6se5kYg1eEWJHhkTTwcTYGEIKh1ysjd1eB76nY8pUJXCMAiGzqIpN7MO8BJn5Yw5YijHiVtCJFDZ7TWGgZGJncnQWRdbDIE1RtXzOoEQr3pUZpEZZEWPiMaQrOA+3J724jZH9EgPGqo8kH8jAJMci6N5HXvrIaFppIOTr+r2+y46Ql25qQRlHJoMNqPYV2MrnnlKrAAAgAElEQVSC6dBn121hAnNyQlgg2oIxJ0HqdC11bUroKYsBSrnotlhHTu62WBYwOEOF3TG6vsoUNh+WY1dgoEYfWBJEcgy7aXLigWMUZQSV98D0NvtNBTlU2ihNWmbuGTICBoL0YKqOLrRt12A5DcFNElVC/KQl7O033j4fHl0QH0k/AnbOozZ6G+ypO5HW96PoLsKMWhh85dfg3P855Kf+Nayso13+sTthjR3RS88HceP6XzfO7/4smNW2ApThONBvSlKjJHKGHkhpwcpbUBNHUWYUStbShKVbhvHCH0G2dRHOw38Hau1p4OnfAaouSrchXo0Z7QJ2DYVfAeINjU8N9yEfrKOsjgLVOZSLEdTofphRVxRw6YzJ2plJW1vW6gywcwnG0c/CdE2o5d8EODOWd2XpFjneOCFvvGW5bdYLh1+Mxag+9xJ+slf2gFLyd75bL9bevxW3IikVNktwGtuoW0W9Oi7T35mQ4dOjC06XVci+EWM0qGA0nER7sKMTh1mMmktfjsN6OdGN5/JQZZtanqLWCBGwNzU3ECsT7cEAnaIF5BEqtg/bC2TQVOgH8P1xCafiQUe3mzHXwknBpoPt3qZYUNKqysQ75cB0TLQGTV0PNQkbFNa3YaS9tzLv/v3GHfqOR9LYG2Yg9bVCdSVNbUgzMcCapnSCkPiZ8aBV0RAoknTxMmh1yAtr+rAF8E2aLj5SPihaMzq5rHEVkvFCRqHj3/goPalZ0sKSn4idMmy94uwXOxgR+kduAz5MuhIyE5OkWzK0VsEgcijRXTDk6LVJAWoUiNI+zGHmr5i8bWhBeU1aQJ1gEt7cfTphVeRwwnF47/95RF/7DXh2A1bzMrL//A8kKWYVNkveCD74a7ouyZuRxoJhOUjubm9Tyi/v/A/jY4JAPvD3oepzMFefRvnsv4F59BPAfb+IMo9hnPkSrGAMxtRDKI/9FIrmMpRP1v4A5sTdMF7/A6ltkgO4yAco5z+F8u6fEQE233wSxeRJFI0jMC99UdYQRz6FsncVav1lwJ9EceyTMN73eZSdZWTnn0TA+JAdk5e/KkTWxfzjwNbrMJSCkypkJlFhN37tPVc+ES1i11/l71wHXcf9i69fP5I/ydEGsBHF2GayMU8EuLGpcjSTdRn6nOYxGpVRUciyj2gVkxiZq9DrXoZBDG3OodEZJienJWFpc0TmwJApc2GlhmZ7G3FzgFglGG1MYtZ30G7v6s6dWiAZe8pUaYyCJI470Y54Z0mcIilLKa+EHodH54gSjvlQGK1wzGRFRjwanoWsb8An42VSAGw34zq8hzj0pgJKi2i6AcxwXJq2mV0jgpaPQ6wRC+WKZRgmYMjrmqLIMimskw+ndBlRurBLXyBb7HckWFkysXQf2ZrOWhTrpxROgelp8D1dUp7bofATR8keRraYpU0UKQcu6WA/J9KJgipE2JbUwEqjKrVPMvJJ7UlY9xR8hwV+UpukItiyNcQfuxaQwjn0UfS/968w8GoIFz4I98TPyGS17NTvwewvwSyYADCQN+ZReezvwjn04WtbkhO8CbK+vnmv//TWbXj9N8YwbKxmRwYbfJ19H0Ou/gVsb1QUotndgjF+GHbjDsQ7X4Mdvh9GfR720qvAsQ8j3n0D9r7HhrhlvZ5WMA7FOTNxAozfIw3NCKqw5z+Eoj6H4pV/h7J9BebRn4QZjsGePIb4zS/Auf1jMPY9ovHPvWVYE3cga10WBebt/xCK7YsoEUlZ7PodUPj49f3u9cbX3y68w7fe8E2S/jBQtUOEBlCrTaLiBej0OqjWXKQxM6U+6v6YZONVMpC+ztB2wdpmbCq00wyhV0HFryAasLPJku6WenVU2sR2+utCGaOUIxHuaquFLCKIYYB6xYXfd+DnmoROODWyXOht3GoVDQLucxoVC0k6QK4M+E6ITpKgP1Do9Hsw/QJMOHL2UEa+ZCbLhNjgvcH9bi6gpKtgMqG/g1KAv2xg5kg/B4oXSmysNMLuuTN1iTUcsZiFZMdYliFAnm1EAkrYYyzgzuzmcJwAisgYahe2WRGLSyABrZ7to7QIgaCw68ysDBca9shLIzbfw8RD0RMuVZtxrxPqgoy0p1mCI5bQ3+JYuBCcdiaQLZ5XsoZ79hjw3Ari2jR6L/47WOEkvInbEZz8WRS3/5CUNfLBJpz6AbgL98JyJ27YWsBnPv0pfPyHP4paTc9dfcuL3+cXNp5bwQLKQ48gWzsPMxiXrV6wj9G2UTg2ctJvsBbYWwOSFuzZR5A+/TtwTnxSMtjF2jNwb/+k9HLSTtFbYExeGhHKkVk4tRmo7o7OmQ3awPRJqIkDyD3G2BxQ3IIxdT8Muw4j60jSj7DN0vLhHvlxpExU+WTI13A9ZshvLmpvv+FbfIeUDSy0BzEGxOGy7StluSDATpeND7403ffaPdjsO6XXUkYgDpf8QSHJwMyGEAmQcT/JO6h6NalpwhygKDxU/Fl0adFoQPJYSNfYIxoE40jMHfTTNnazDkYbc8iYWEOGDCnSQUtAO6PVuoR1bmkgKFy4Jn0+NmoYCJ0JGPAQkb3BLCV+Jnk429GYTRdv7e1L831+v6mAirshblsOlfQleaNsPY9R55dpSdnka0qGkVk/GRnI9iDBx5Kky5GYsnQyoT2hS0pggkBwmechNE87xRpETb4hgguYNJH2MMhsSKlz0tARtG/TrdWamZlgCrRtBXAYH9H9YneBWHpuVz0BjZsKBF2UA2k08wLdQndjHZTrxHuu3PkzsJq7SJ75t7Cf+A2Y4QTsyhTsO/7ataXsJSm++eSXMTM9h0GfzH8kDitRRF184KGHEDg6cUTrvvdFXSD/DfeqvMb5p90tqFf+LxSuiXi9A8erQ7UWgQtfhTFYlUJ6lq3CaF9E8eaXYfWXYW49B/Xcv4I9fgfc1hvILlPhtUDmAKO7CnXuSWF/sOnWTx2TMYlxewVmaw048bNwNleRrX8TGWOrjZeAk38T+RtPAhsvII07wGAHykxRLHswGvuQrr2MUrVgkWzbuXUFtHfvt/qdoRHXZafXRBS6iPoDwd+aton1dhOhZyDJTGxHPUxUR+BaJALrwzNLRGkJhxPa2bDHtlvHFutaqF3x/KTzUG2i4sYwlSWs9Z0kQz9OZNZLu+gLwJ6wQj8wEZkctzmOdndLWCl8ywYhg3lhS8wZE+dslBjkxPv2URbbCBCi5o6gUQnRi7b1SEwYmDR9GE3NyHirbu5NBZQLxQ3FthuDnIZsiJUETiFExUQMkVKRMSJDcVoj+uQpk0V5opNHMqUsR8GhP44nrihxuCyrlK7uhrEJBeQXa3NDHWOVgRZcsYKaAFtcXLZ8RT2oIpIJWoT5afYCE5ZNug+WenQ9VARcML979VJCFljaccH5L/wiuOHtXwQ6Vx75dcTLz6N78Sn408cRzL7vLYcREra1S2SICd/xMTY+gdPnz2GMA8qZeX2brpS13HMERTK5uIyN+fkJ8OLvSoMBr7kI6jC2XgWWv4N89lF8M/xpjCU7OJG20c8VLgyOY/yef4bZl/8BerM/gjMH/ntMdU9hdul30Dzxt3Gl9jHsa/05Ji/8LnZu/2UsZQ9jofnHqF/5isa+fv03pBOFPY6a5cJC8ed/XxSiQ0qP7XOSCBEoJxFekvyyNI8nb4yhwlBBvmVRfhC/cG3MAuMNH7lpoVpzdD0xTXB4eoRJVemkqg0qaNTretRHnMOzXKRpiZjgd4MT9DSoxWfiyreFMJt5jJHKGFRWQtkZUnICJEDVD9GOIuEIrvkBDM4ZVQ62W30Mkia6aQ8jQYiKp8kLSmZ1lYVeChkuxcRpL1Goe67IwQqWZZ4P+05rfhV5SfA88ys6b7L3+G+2XDcVUNlAeYS8vy3FaKKECG5mqryg+8WNyP+z4ZhjHKinSDtBSyetOkyYcAanZqEj4p8CZZikmmCztdaWHJTLDhgpxRAeSDY0SSkJNgsGkS3MoQmnTAlP0Q3UQ5OKlAkkurhsEKc3kiDPe0ilY4XJKwOmFKE5mkFnkAsrB3zGA2RlePuXXkQSy4QHH4bZWYDls1anv6TRnLWurIuaCyxfPoe52RmsLJ3F+MQkVq6cx6B9N9wg1GRbw/ftOXjilTBlQrnkvBpRSQVMjyBygrd1qxxdfD9w8cb0Z/Av/uAV3Hn8Dvz2yY+gPf4jWOofQDx+L+YP/jma+z+PK80xqH2fxczgeWzOfQZXNwB74a9jKj2Dtf0/i6vrfQS3/S2MbX8LedyB6bMeTAimbmzjdegGd2lQEr4evZn2lNee2uTvrGdzs+29trcyP5jvEoMWgBs4cEITvXYXtqN5dle323DdmgDQHcfBUmsbhWGh6jXQancR5RnCmo0RN0An7aPfayGKW3B9SxgNPUshdJngtJGScbF00JisYqfTheta4AwcVvqb7S7MKEDoV1CoCGPBqPAMJTL8mZUIU1BMM5zOa+ZIE3Iika7Gw06riVoQwuLIiyxF6migQpf5ANmgt75ONxVQ0Zx+BWWlCkRtyYwx+VBmTHMrFGmi4z7XhWNXkbNDX2aCMoYkOIDlFA2a57XRurLTgZtQNoDBAUwmjFyhzPqC1lAZO9UNFG4Npa3Z9hjkczvwP5YYNEUK97cNk90SLK2Ik0kYn8blksqCVtxgYZm1VaKhUiKIciGoMipk2Bqu2Z703CBMlHUaDru+T8dbQ7VHhEjS3YSTJbj70DQa992BJEmQpzMC6Di+/yQkv5sl0q0hz0RXjeRH2eriqvPDrutScX35F/4wfCVTBqa7z+Kzn/hhzIYJjPXnUS+ruOd9j8JrnUa59jzGq3fi5PFfQbj5FNT6i5icfBb+XT+L6vKTUGsvYm7fC6jf9QnUr/yfUGyPkgYC/RlSmxzeO//ytmUYrsaN3/au9+ZH3viu9/Izz0y1sZm0sFwWqFgBXEOHNJzmXprC44dqpY7pegXNbg+l0UIlcIF+gbyXIansCASwWg+kl4r1eGVm4OzctUGEWp0Dl6rod2Js9jrixXBEJBst+PlhNYJtcgRkX9oVHS8RahTb9zEyyqFYMRxGmf0IkZT+SLdCXq4CjboNj9aSlKEBPbkEpu/BYymxybPvreHNV8Xo/+v973502oP6od9CcftHYXS3ZCxBnvVQpAMZhCsgARaiyUBHzcrrkhEGzH0paZo3hE6SF0okD8nB2A7FFC8J1qIh6xzrqwQ1uFJbYi8kTTPLLqS5ZEzJpm/tVtEt1MzwxN2SzImWgLEvoXyc0VmQZ4axqMe0t6d7WZloEekggVWCauUkLNIivsvO5OHX7MS7HPd9l3pvdQ0gXvwm1Bd+SrdzSdz9fd917QW+3SoSeBO3QcU9pN0NKV+Vtf0w4h0g7emm6foCjP4GyjwS3id5neAGAjPI8lfdB6O7LErqurb5f07Irt3AX+IHrjcF9D8uuDirBqiYHFgcoxZo0AD3j0nmMeYxRJiqAq1MByUCDksl/DfN0C9SeH4owHYCHdIil4G/hUlKUbL0ZUhLhYpXgWUoDNIObN8T99c3DXgEYRhsbxuAe5iZEVLExFEsDDX0Fnd7MUYaY0KTSq/CsR3EcR+GU8K1DbhwhU95wLxLO8bntrQnyX31F76YIzFsqE99BeXYHVKLvbkFZYF1+xxSN0CRllJDM4MQdmUClluRMQXCAECghAw7GjZxittGmhJC/PTYeCOPUMYk7tXQ9SJNYQc14YsxOMWVLWrCJqBtoXZ+mUViHyApOgQvMhQYZnwprxwBz8RPAZPlnbSNwvSlPUksuLTJxTANZv9YltGMDNwALLDzS6osf2G19B+uCSd//cvs5+F7uJFI7K3SARsbBQQwNJTyQXKY/LMn0foDpRxF0s/V12QdpNDMDO3um5rLR7p6cljbZwXkQWigTExjpwgbqAmVZKjRvCylKkmQCgMFcwvXzPi1m2MFWiCXzCfwYL7Cw4R8mttquGV48fL63qLweDlc1kn/lW8c/o0gBgGzaE+Ih+pr2Xudv/OYoZdkmjKRzCZmmCgoM0VGxKit4JgKgROgF5GyU9NuUioT1UUQNFCv1KR5Gn2iyGLstrpSeZgYHYPrKwySSJ45O6wIQU3yPkKviiBwpPTCW+tEEUwjhGVbqPiEmNrIE8636aEVZ/BcT5gapibGBERRpIZkfgeZC9st4Fk14V9OzEgY86PcwKTHEI69zteW+/rNf5+fbiqgXLGSGqY+CU+aV1mbLFAO+lBZDOVoQDEpJYgEEhIq3V4nG5LETZwpafpk+iNSkFen2eTl3Pw1J+fRQJpquWaSPOITZKwrCalcSi2mw9hXT1KTzK8klqjVhn6qY8ENq0LPKHVOtq1JvylbzvaUBGus7Act0E9OwSo9KIsP2tQQNZISc0fKbqN4UDFQs0mxUtZWhrByZD3B51zYvY3J5y1tc+yVYmN3C6mK4Qd1mEYFRXQV6d0/Lq4QU9hst+PHyNv5szwkFrLpjDMQJ5PisBmeH0SMKjPccRdZEsH2Q0mGsIm+iw6ej78nVsV3iJ9liSUVXuCIobZlwrcGMjeEGp79t4oUHWQBUHpYFdE2nlcB2QrY/0twh0O6jjzDIDFEIZdoyhMiTzCRZGmmFR8RYMxD0HthVJ0RpmkBsWLNlJ9TRSDTzrbQ5QQjxoRODkvZQJojNUvU/bron6LswjIqaBkKu1FXaGlqfjj0joBeXGIl20JQkOEAsBNJWiA1E6wSoheNIS9M+GGAcYZKtXEkbMQ2FfqDvuB8Tc+DrQp4Nql2EmRlDN8bRRFpDREErEbEKDMXO6QvoeFgE7lnYWzSkaZwlZHNr4VYOHMzOBUHvvIlXrbyEmmZwPRs2IpqbQCXMiIghRs2zPcRzL0/34KAFnCCcWS1OSDucZ6tplSUDJkJNqaSqyVTCUzVQqY6IhS2X5N6lQiUAIs9EOmuIX5sviYAn0lDA5ZDn56YXGZV6dbqcQrc/hY5WFWMvLuNLOrLMBvLGRFqCa82hmDkGAziJbnTRbCk3/3aOgh8bBj/URTYa8qsJVvlCUEUVBQXOuvAcEZgBx5I8UJboSduU2FwQbUw0UuQ8hDPxc/jUxMpFQmSrDX/QLeaZM0Om4N9Ni+XUg4x5x4Wrc8x9uS+lDMPn5e2WEN2CEFpUbJkwcVrEB2hcumWYDbcsrVHYRUFvKKNRv8lYa5juyStNdNzrCCHWQnuYc8FfN+DTfefDcplBodJOyKtkIq1IJEz64qEF8roCInDmHgrUanUocqu5BxYsiI800kzYVQnxy5BJlz9PM9JsCrr7JKLikCTxELdH0GimtK47Pi07iTRVrANpvtodUhCRy+KHL4lHi+BRziyT/hydfIsYT1R1rxEHplwKAAu4cOaaK4dN/HU6/8HMnUOZjKGQTWHb5K3llknA1XLRDdKxU1tjEwKkD4y6YXF8MoACXtg3QAZ1yzqokZeXsOAV/MFys0n1o+6gJtgfKyBbtMQ9BLxAJ4iZXUXvj2GgRmhdDOo0oYdWFoRCQn5nujd2vebC6i4IrlobgaY0nNAF8mUBjSYBSk1qdzpXvYkHlSksWDcyW4Dci5lnCBlILc4MIgAeUeyqVKvs10oW5duKBjEHYmlUEqalWOZqUHrl8pwXLe+XzeIpwncynG4wcFbu9ObHPVOudybvOWmLwcjNz3kL3WAdszf+lb+7ZGRe9/6x/+P/vb+gz+Hr7z0Gaxun5XmaeWmGMEImmkHvqNZH53MQNQaIPFSuKjAtybQ6vYwVuGMUhvRIIfBsE6w3Zrqx6dCcpkbMWBlCo7y4LKqURDb7WB30MI+jtbONZfuSFX3srI1k0yrZkQs7nv7urmAMvvVb6JorQmMjxZRXDPRYrrkIjMzHQtOfVxcKQIReBPMnHESF9kACQ+0OERXZWJx2VWiui1pzZG+RIMExUQmlchJa0FeF2JNKw1Y1TpCIoPYXEubkifwxiYRhD8Y4XxvS/b/H/1XfQUq7gQOj38WV9b/IcaqIZqqjUvpErLIx/Qox3yUKBwTaTRAq+miXjERBgoN28akNYJBGaPjMG+RwHZ8KfV0ojZqZhVe5qHuu0gjJUOQE4PZXBokur0+dvsRElYjlIO+yRa0ApkqkDgKIQkJJMS79RW8uYDSJfdqSF0fFnlCWV9kx3rOWSSEXKUAqTKI3icdBWuZLLRzLjVRQIzExRPkDBcD4LwQ8tWoHHZ1DA5B8DIdTKFMYxQSu/iwfHbK58i7LThujEHJvswMbkD31pOa1K3f5l+dI9nhL507f3Uu6f+VV8IGD1Ki7MMsGkYdg7gFw87Q7LVgF47QeaL4v9u7mtAozjD8zMzuzt9uNnGTmhgTQ5CoBBFBK0Ww4CFIxYJgLPQsePEgoiLUQwUvUo+KoODBY6EgXqIeeqgVBEHUqvUPQUTzt2Z/52dnZ2fL886mmtqmorXa4hzMzOz8fPM5z/d+8/48D6fzPip1A5mkhbasjWpYF/+EZdmgnbDCiFEp+FoCLkMuzJ2JSL2pwgkdpE3WkbIIvAQzoSJrLxDZxSJDkkoVFfoTEjoySSZb+FKlJI6M1+x17Zsvst/OdyxVtqLBz6AsGoaqG4C5AGq6C1q2DYrOzKIYgI2ghsj1EFZKqFcK0MIqlCbVrWKya1CYlmIzwnXGTmiFY1jETX8Qe0HXoVgWVDsNxTCR0A0kUkYru0gTUqZmzUWjkpekBjM7NF/T//XfgiCA4zgYGxvD8ePHkclk0NXVJd+MqVQKFy5ckHUyBM7MzAhNJ4959uwZTJP/88CZM2dw//59LFmyROg6+F36/PlzibNSY4TL5OSkXHtqagq6ruPcuXO4dOkShoeHUamw4iiU/Y8fP5bjqtWqfC+zfaVSSe7Fa8i3omHgyZMnyGazch9+V58/fx5Xr17FrVu3sGzZMhw6dAi9vb3I5XIYHx+Xa7FdHGx47OnTp7Fu3Tq5pzTwA/in4NzAo/wYlMBAleWIioIF6bTM5qBbcEMHtqWhK5eFYlAIwgX0AAUvxFS5hCodVQRlSKOSglNjHyblG9nzPSn+LpRVFIoBFlgZBHUmLvSAGjJBvQY7S/I8OswCSfULfBU53cSyPIs04sjBq90UJ+U0l38NmJ3iJ0lY+p9GZF6cq4Qw00nAtkXaXZj46K0QJTFTPHasTuHcky56JgaQFpGJQRGpDVmL6E0gKoVQaHGZWJ/KgDrrCaPFY8RSq5bmKB0KlCnk+VLQTYIx4TNi1Kk79npGAbRU94s2fiBrhUIBZ8+eFbDs3bsX+/fvx5o1a+QlJ/k1OXYJvMOHD2Pfvn0gaNPpNAggy6L0Xh3T09MCar74BB+BQKDxWJ5LQBOYAwMDwiB47NgxAe/Jkyfx4MED9PX14cqVKyD1J0G4evVqaRMHBW5v2bIF69evx4EDBwR07DrXddHe3o579+7h6NGjuH79ugwaJOnetm0b7t69iz179mDlypUyqPActsO2baxatUqATR4g7vtQlpDOJCqqZVh5VBO5QrdIF2QSFZXixp0SK6cqnF53QfVU1yFZdQambcOv+dBVC2XFQ7HmIk0ZiaiJMrOwGkmU/ABBSGqeJKoFDw5LzsIpJMhpFDaQ0iigVEeuU0fdseDQbNLDLdQ7xJx4Fud2lwTp5+Ix8d3ltpbXjlaMJ7GOk2p9s6RfFprPfkHUXhC3fxwWiItk6Q2lR024iiSnNL4fvYASb5TNCA2HiQ0+kqYhUwpmCgVeIGTDmmUjqZNHhw5RJq/HH+HiNSVYZz2obJd4aumwJVu3haR5aW6MY+7j/uNbQb2Oxb29+Gp0myhmvXwDvqAnTpzAxo0bQdrOgwcPilUimTUtHK0frSbJr7lwndaV1pMgLZfLAjSCYmJiQrYJSKazkQybQM3n8wJOWj6CmcAmeDll3r59Ox4+fCggJBCvXbsmIKZFpdXjvQjyrVu3CtE297PNHFRoPZ8+fYoVK1Zg6dKlWL58uVyX1+e9yPtLC3rx4kV0d3ejs7NT7nnnzh1s2rQJu3btkuu/3B/ve73WjOBprAtuSApffiIPmCkstG2YNRVNvwLm3LqkMa2nRIXMqYbCXUS1tkYQoaSWhWWhLfGJyGQmGw6aviE5uw3VE8HfjnZTGO9zahasWKkhQMgkmooKU03Dr6QEqPSKT9UcCcPF5Zot1/2cjuK+eD/TZbmmDK8baeopJgKoqLquvAjMlW3LZOB5rHVrSgaLlaLgDHMJk9CTGhzfRVtbO0xDF+3NmeIM6mRwUxR05XLwPVe+Q23LQCQxRmByfDIW0KHnSwLfLVl78dyyNa344+zg8sdniCMZchyD3kICNucB3+0G0/n6+/rw48Wx36eks3fkC79jxw6Mjo5i8+bN4Mvb398vQOIUlWCjdeTLTcu4e/du7Ny5UyzczZs35XeCmNNbgphWjeAkqAhGLpQj4MBJAA8NDQkg+ZfTak5fCWKyEvJ4AomWj78ThLR2/L2jo0M4f0+dOiVWcXBwUMBMUPIZFi5cKMAl2AncxYsXy6DAttHKP3r0SJ7ryJEj0vaRkREZfD4k68m+8oIZFL2nMtNj3hHZ46FFSGmzkiWUdmTON5XeYs0Xhv1oEpjuF+eLUwuU5HVNSXRgCCmpkiOXhHiUe+C1SOvDimfKR5BEL44fkzdWwoVM/JA4euxcbav9vSfX0brg1hoSElM2jnzZHFjUDTURxyVrUQC36km2j8nvQVEBoygsb9iA59SRsUwhQ5opFqCR1EppwkibqAWxvJwaRTBMC5UyafE16JYlfC63b/8ai+DOAnD27f6P/K0FAXp7enD2h+9fASgfgUAhODhdnG8hUAh2wzDmO+yd/UaryDZwAHjThVa5p6fnTU//eN48PVAqV3D555+wdu2nSBSL07hRzENNJGDpOlzfE3p9jixUMeY0iOaWIzdHUWIrlvfjPtIKUvE4CYOuZz+QzB+hNiSBFI9lmllrYeUKjeT/daGVep2Fs4f3BU62j5b4bZZAWzUAAAAXSURBVJeP4HzbHvzr85nWumHD5zKI/ga0zX8tuBNXBwAAAABJRU5ErkJggg==;" vertex="1" parent="1">
          <mxGeometry x="612.81" y="490" width="232" height="122" as="geometry" />
        </mxCell>
        <mxCell id="uFv2Ksm_HB0WcEMQn49q-88" value="BDD SQL server Onboarding&lt;br&gt;&lt;span style=&quot;color: rgba(0, 0, 0, 0.9); font-family: &amp;quot;Segoe UI VSS (Regular)&amp;quot;, &amp;quot;Segoe UI&amp;quot;, -apple-system, BlinkMacSystemFont, Roboto, &amp;quot;Helvetica Neue&amp;quot;, Helvetica, Ubuntu, Arial, sans-serif, &amp;quot;Apple Color Emoji&amp;quot;, &amp;quot;Segoe UI Emoji&amp;quot;, &amp;quot;Segoe UI Symbol&amp;quot;; text-align: left; background-color: rgb(255, 255, 255);&quot;&gt;&lt;font style=&quot;font-size: 12px;&quot;&gt;172.16.77.5&lt;/font&gt;&lt;/span&gt;" style="text;html=1;strokeColor=none;fillColor=none;align=center;verticalAlign=middle;whiteSpace=wrap;rounded=0;dashed=1;" vertex="1" parent="1">
          <mxGeometry x="1628.54" y="856.46" width="108" height="30" as="geometry" />
        </mxCell>
        <mxCell id="uFv2Ksm_HB0WcEMQn49q-89" value="" style="rounded=0;whiteSpace=wrap;html=1;glass=0;dashed=1;fillStyle=auto;strokeColor=#6666FF;strokeWidth=1;fillColor=none;gradientColor=default;" vertex="1" parent="1">
          <mxGeometry x="934" y="713.96" width="108" height="308" as="geometry" />
        </mxCell>
        <mxCell id="uFv2Ksm_HB0WcEMQn49q-90" value="" style="sketch=0;aspect=fixed;html=1;points=[];align=center;image;fontSize=12;image=img/lib/mscae/Application_Gateway.svg;" vertex="1" parent="1">
          <mxGeometry x="955.26" y="748.96" width="64" height="64" as="geometry" />
        </mxCell>
        <mxCell id="uFv2Ksm_HB0WcEMQn49q-91" value="" style="sketch=0;aspect=fixed;html=1;points=[];align=center;image;fontSize=12;image=img/lib/mscae/VPN_Gateway.svg;rounded=0;glass=0;dashed=1;fillStyle=auto;strokeColor=#6666FF;strokeWidth=1;fillColor=none;gradientColor=default;" vertex="1" parent="1">
          <mxGeometry x="961" y="920.1800000000001" width="50.2" height="55.78" as="geometry" />
        </mxCell>
        <mxCell id="uFv2Ksm_HB0WcEMQn49q-92" value="VPN&lt;br&gt;Gateway" style="text;html=1;strokeColor=none;fillColor=none;align=center;verticalAlign=middle;whiteSpace=wrap;rounded=0;dashed=1;" vertex="1" parent="1">
          <mxGeometry x="957" y="981.96" width="60" height="30" as="geometry" />
        </mxCell>
        <mxCell id="uFv2Ksm_HB0WcEMQn49q-93" value="Application Gateway" style="text;html=1;strokeColor=none;fillColor=none;align=center;verticalAlign=middle;whiteSpace=wrap;rounded=0;dashed=1;" vertex="1" parent="1">
          <mxGeometry x="956.26" y="823.96" width="60" height="30" as="geometry" />
        </mxCell>
        <mxCell id="uFv2Ksm_HB0WcEMQn49q-94" value="" style="shape=flexArrow;endArrow=classic;startArrow=classic;html=1;rounded=0;entryX=0;entryY=0.75;entryDx=0;entryDy=0;" edge="1" parent="1">
          <mxGeometry width="100" height="100" relative="1" as="geometry">
            <mxPoint x="648" y="996.96" as="sourcePoint" />
            <mxPoint x="908" y="996.96" as="targetPoint" />
          </mxGeometry>
        </mxCell>
        <mxCell id="uFv2Ksm_HB0WcEMQn49q-95" value="" style="html=1;strokeWidth=1;shadow=0;dashed=0;shape=mxgraph.ios7.misc.vpn;fillColor=#007AFF;strokeColor=none;buttonText=;strokeColor2=#222222;fontColor=#222222;fontSize=8;verticalLabelPosition=bottom;verticalAlign=top;align=center;sketch=0;rounded=0;glass=0;fillStyle=auto;" vertex="1" parent="1">
          <mxGeometry x="765.12" y="980.96" width="30.88" height="30" as="geometry" />
        </mxCell>
        <mxCell id="uFv2Ksm_HB0WcEMQn49q-96" value="Vnet-Hub" style="text;html=1;strokeColor=none;fillColor=none;align=center;verticalAlign=middle;whiteSpace=wrap;rounded=0;dashed=1;" vertex="1" parent="1">
          <mxGeometry x="966" y="713.96" width="84" height="30" as="geometry" />
        </mxCell>
        <mxCell id="uFv2Ksm_HB0WcEMQn49q-97" value="" style="endArrow=classic;startArrow=classic;html=1;rounded=0;" edge="1" parent="1">
          <mxGeometry width="50" height="50" relative="1" as="geometry">
            <mxPoint x="670" y="941.96" as="sourcePoint" />
            <mxPoint x="950" y="941.96" as="targetPoint" />
          </mxGeometry>
        </mxCell>
        <mxCell id="uFv2Ksm_HB0WcEMQn49q-98" value="" style="endArrow=classic;startArrow=classic;html=1;rounded=0;entryX=0;entryY=0.25;entryDx=0;entryDy=0;exitX=0.862;exitY=0.97;exitDx=0;exitDy=0;exitPerimeter=0;" edge="1" parent="1" source="uFv2Ksm_HB0WcEMQn49q-84" target="uFv2Ksm_HB0WcEMQn49q-89">
          <mxGeometry width="50" height="50" relative="1" as="geometry">
            <mxPoint x="750" y="851.96" as="sourcePoint" />
            <mxPoint x="800" y="801.96" as="targetPoint" />
          </mxGeometry>
        </mxCell>
        <mxCell id="uFv2Ksm_HB0WcEMQn49q-99" value="" style="endArrow=classic;startArrow=classic;html=1;rounded=0;entryX=0.764;entryY=1;entryDx=0;entryDy=0;entryPerimeter=0;" edge="1" parent="1" target="uFv2Ksm_HB0WcEMQn49q-87">
          <mxGeometry width="50" height="50" relative="1" as="geometry">
            <mxPoint x="790" y="661.96" as="sourcePoint" />
            <mxPoint x="790" y="631.96" as="targetPoint" />
          </mxGeometry>
        </mxCell>
        <mxCell id="uFv2Ksm_HB0WcEMQn49q-100" value="" style="endArrow=classic;startArrow=classic;html=1;rounded=0;" edge="1" parent="1" source="uFv2Ksm_HB0WcEMQn49q-23" target="uFv2Ksm_HB0WcEMQn49q-24">
          <mxGeometry width="50" height="50" relative="1" as="geometry">
            <mxPoint x="1145.85" y="766.666412331949" as="sourcePoint" />
            <mxPoint x="1104.1399999999999" y="630.96" as="targetPoint" />
            <Array as="points">
              <mxPoint x="1140" y="731.96" />
              <mxPoint x="1517" y="731.96" />
            </Array>
          </mxGeometry>
        </mxCell>
        <mxCell id="uFv2Ksm_HB0WcEMQn49q-101" value="" style="endArrow=classic;startArrow=classic;html=1;rounded=0;entryX=0.006;entryY=0.138;entryDx=0;entryDy=0;entryPerimeter=0;" edge="1" parent="1" target="uFv2Ksm_HB0WcEMQn49q-20">
          <mxGeometry width="50" height="50" relative="1" as="geometry">
            <mxPoint x="1000" y="761.96" as="sourcePoint" />
            <mxPoint x="1060" y="761.96" as="targetPoint" />
            <Array as="points">
              <mxPoint x="1030" y="761.96" />
            </Array>
          </mxGeometry>
        </mxCell>
        <mxCell id="uFv2Ksm_HB0WcEMQn49q-102" value="" style="endArrow=classic;startArrow=classic;html=1;rounded=0;exitX=1;exitY=0;exitDx=0;exitDy=0;" edge="1" parent="1" source="uFv2Ksm_HB0WcEMQn49q-92" target="uFv2Ksm_HB0WcEMQn49q-5">
          <mxGeometry width="50" height="50" relative="1" as="geometry">
            <mxPoint x="1010" y="941.96" as="sourcePoint" />
            <mxPoint x="1160" y="1001.96" as="targetPoint" />
            <Array as="points">
              <mxPoint x="1060" y="981.96" />
            </Array>
          </mxGeometry>
        </mxCell>
        <mxCell id="uFv2Ksm_HB0WcEMQn49q-103" value="Publicación" style="text;html=1;strokeColor=none;fillColor=none;align=center;verticalAlign=middle;whiteSpace=wrap;rounded=0;dashed=1;" vertex="1" parent="1">
          <mxGeometry x="1313.51" y="748.96" width="84" height="30" as="geometry" />
        </mxCell>
        <mxCell id="uFv2Ksm_HB0WcEMQn49q-104" value="Conexión con terceros" style="text;html=1;strokeColor=none;fillColor=none;align=center;verticalAlign=middle;whiteSpace=wrap;rounded=0;dashed=1;" vertex="1" parent="1">
          <mxGeometry x="1056" y="972.96" width="91.51" height="30" as="geometry" />
        </mxCell>
        <mxCell id="uFv2Ksm_HB0WcEMQn49q-105" value="" style="endArrow=classic;startArrow=classic;html=1;rounded=0;exitX=0;exitY=0.75;exitDx=0;exitDy=0;" edge="1" parent="1" source="uFv2Ksm_HB0WcEMQn49q-30">
          <mxGeometry width="50" height="50" relative="1" as="geometry">
            <mxPoint x="940" y="1291.96" as="sourcePoint" />
            <mxPoint x="960" y="961.96" as="targetPoint" />
            <Array as="points">
              <mxPoint x="940" y="1294.96" />
              <mxPoint x="940" y="1211.96" />
              <mxPoint x="940" y="1151.96" />
              <mxPoint x="940" y="961.96" />
            </Array>
          </mxGeometry>
        </mxCell>
        <mxCell id="uFv2Ksm_HB0WcEMQn49q-106" value="" style="sketch=0;aspect=fixed;html=1;points=[];align=center;image;fontSize=12;image=img/lib/mscae/VPN_Gateway.svg;rounded=0;glass=0;dashed=1;fillStyle=auto;strokeColor=#6666FF;strokeWidth=1;fillColor=none;gradientColor=default;" vertex="1" parent="1">
          <mxGeometry x="975" y="1076.31" width="31.5" height="35" as="geometry" />
        </mxCell>
        <mxCell id="uFv2Ksm_HB0WcEMQn49q-107" value="VPN&lt;br&gt;Gateway" style="text;html=1;strokeColor=none;fillColor=none;align=center;verticalAlign=middle;whiteSpace=wrap;rounded=0;dashed=1;" vertex="1" parent="1">
          <mxGeometry x="958" y="1108.96" width="60" height="30" as="geometry" />
        </mxCell>
        <mxCell id="uFv2Ksm_HB0WcEMQn49q-108" value="Virtual Server&lt;br&gt;172.16.85.15" style="text;html=1;strokeColor=none;fillColor=none;align=center;verticalAlign=middle;whiteSpace=wrap;rounded=0;glass=0;dashed=1;fillStyle=auto;" vertex="1" parent="1">
          <mxGeometry x="915.49" y="1395.41" width="193.37" height="30" as="geometry" />
        </mxCell>
        <mxCell id="uFv2Ksm_HB0WcEMQn49q-109" value="172.16.94.13" style="text;html=1;strokeColor=none;fillColor=none;align=center;verticalAlign=middle;whiteSpace=wrap;rounded=0;glass=0;dashed=1;fillStyle=auto;" vertex="1" parent="1">
          <mxGeometry x="1273.74" y="1460.64" width="193.37" height="30" as="geometry" />
        </mxCell>
        <mxCell id="uFv2Ksm_HB0WcEMQn49q-110" value="" style="verticalLabelPosition=bottom;sketch=0;aspect=fixed;html=1;verticalAlign=top;strokeColor=none;align=center;outlineConnect=0;shape=mxgraph.citrix.web_server;dashed=1;" vertex="1" parent="1">
          <mxGeometry x="230" y="985.36" width="58.65" height="69" as="geometry" />
        </mxCell>
        <mxCell id="uFv2Ksm_HB0WcEMQn49q-111" value="" style="endArrow=classic;startArrow=classic;html=1;rounded=0;" edge="1" parent="1">
          <mxGeometry width="50" height="50" relative="1" as="geometry">
            <mxPoint x="1030" y="1221.96" as="sourcePoint" />
            <mxPoint x="1110" y="801.96" as="targetPoint" />
            <Array as="points">
              <mxPoint x="1030" y="801.96" />
            </Array>
          </mxGeometry>
        </mxCell>
        <mxCell id="uFv2Ksm_HB0WcEMQn49q-112" value="" style="endArrow=classic;startArrow=classic;html=1;rounded=0;" edge="1" parent="1" source="uFv2Ksm_HB0WcEMQn49q-26">
          <mxGeometry width="50" height="50" relative="1" as="geometry">
            <mxPoint x="1630" y="941.96" as="sourcePoint" />
            <mxPoint x="1680" y="891.96" as="targetPoint" />
          </mxGeometry>
        </mxCell>
        <mxCell id="uFv2Ksm_HB0WcEMQn49q-113" value="" style="verticalLabelPosition=bottom;sketch=0;aspect=fixed;html=1;verticalAlign=top;strokeColor=none;align=center;outlineConnect=0;shape=mxgraph.citrix.web_server;dashed=1;" vertex="1" parent="1">
          <mxGeometry x="1311.31" y="962.46" width="58.65" height="69" as="geometry" />
        </mxCell>
        <mxCell id="uFv2Ksm_HB0WcEMQn49q-114" value="" style="endArrow=classic;startArrow=classic;html=1;rounded=0;" edge="1" parent="1" source="uFv2Ksm_HB0WcEMQn49q-113" target="uFv2Ksm_HB0WcEMQn49q-25">
          <mxGeometry width="50" height="50" relative="1" as="geometry">
            <mxPoint x="1610" y="931.96" as="sourcePoint" />
            <mxPoint x="1660" y="881.96" as="targetPoint" />
            <Array as="points">
              <mxPoint x="1390" y="996.96" />
              <mxPoint x="1390" y="931.96" />
              <mxPoint x="1610" y="931.96" />
              <mxPoint x="1610" y="901.96" />
              <mxPoint x="1610" y="809.96" />
            </Array>
          </mxGeometry>
        </mxCell>
        <mxCell id="uFv2Ksm_HB0WcEMQn49q-115" value="" style="endArrow=classic;startArrow=classic;html=1;rounded=0;" edge="1" parent="1" source="uFv2Ksm_HB0WcEMQn49q-23" target="uFv2Ksm_HB0WcEMQn49q-81">
          <mxGeometry width="50" height="50" relative="1" as="geometry">
            <mxPoint x="1160" y="811.96" as="sourcePoint" />
            <mxPoint x="1210" y="761.96" as="targetPoint" />
          </mxGeometry>
        </mxCell>
        <mxCell id="uFv2Ksm_HB0WcEMQn49q-116" value="" style="endArrow=classic;startArrow=classic;html=1;rounded=0;exitX=0.5;exitY=1;exitDx=0;exitDy=0;" edge="1" parent="1" source="uFv2Ksm_HB0WcEMQn49q-27">
          <mxGeometry width="50" height="50" relative="1" as="geometry">
            <mxPoint x="1260" y="1041.96" as="sourcePoint" />
            <mxPoint x="1310" y="991.96" as="targetPoint" />
            <Array as="points">
              <mxPoint x="1136" y="931.96" />
              <mxPoint x="1230" y="931.96" />
              <mxPoint x="1230" y="991.96" />
            </Array>
          </mxGeometry>
        </mxCell>
      </root>
    </mxGraphModel>
  </diagram>
</mxfile>
